<svg width="1942.499756" height="1236.500000" viewBox="0 0 1942.5 1236.5" fill="none" xmlns="http://www.w3.org/2000/svg" xmlns:xlink="http://www.w3.org/1999/xlink">
	<desc>
			Created with Pixso.
	</desc>
	<defs/>
	<path id="Vector 2" d="M0 1236.5C517.11 1201 845.5 1199.5 1188 1218C1530.5 1236.5 1875.5 1224.5 1942.5 1191L1942.5 0C1568.67 27.5 780.35 114.95 310.5 34C85.29 -4.81 19.11 29 0 34L0 1236.5Z" fill="#2081F0" fill-opacity="1.000000" fill-rule="evenodd"/>
	<path id="Vector 1" d="M1937.11 0C1401.61 96.5 939.09 37 596.59 18.5C254.09 0 104.11 18.5 4.11 45.5L4.11 1236.5C377.94 1209 998.89 1163.69 1474.09 1202.5C1949.29 1241.3 1944.78 1218.67 1937.11 1202.5L1937.11 0Z" fill="#353535" fill-opacity="1.000000" fill-rule="evenodd"/>
</svg>
