<svg width="100.000000" height="100.000000" viewBox="0 0 100 100" fill="none" xmlns="http://www.w3.org/2000/svg" xmlns:xlink="http://www.w3.org/1999/xlink">
	<desc>
			Created with Pixso.
	</desc>
	<defs>
		<clipPath id="clip9_2169">
			<rect id="icon / tv-mounting" rx="0.000000" width="99.000000" height="99.000000" transform="translate(0.500000 0.500000)" fill="white" fill-opacity="0"/>
		</clipPath>
	</defs>
	<rect id="icon / tv-mounting" rx="0.000000" width="99.000000" height="99.000000" transform="translate(0.500000 0.500000)" fill="#FFFFFF" fill-opacity="0"/>
	<g clip-path="url(#clip9_2169)">
		<path id="Vector" d="M16.02 13.03L82.14 13.02C84.77 13.02 85.88 12.7 85.93 15.79C85.97 18.73 85.93 21.67 85.93 24.61L85.94 52.31C85.96 56.31 84.79 55.82 81.09 55.82L52.72 55.82C53.19 57.16 53.8 58.46 54.3 59.79L57.81 59.79C60.96 59.79 60.3 59.76 60.32 63.09L87.13 63.09C89.59 63.09 92.66 62.65 92.7 66.03C92.74 69.35 92.68 72.67 92.69 75.98L92.71 79.01C92.74 83.4 90.94 82.77 87.4 82.76C87.39 83.46 87.53 85.78 87.32 86.3C87.16 86.71 84.66 86.65 84.31 86.47C83.9 86.27 83.22 84.67 83.06 84.2C82.68 83.75 82.43 83.22 82.06 82.76L17.98 82.76C17.7 83.45 16.41 85.96 15.98 86.4C15.72 86.66 13.11 86.81 12.77 86.37C12.51 86.05 12.64 83.37 12.64 82.76C11.2 82.58 9.21 83.19 8.04 82.09C6.9 81.02 7.27 78.37 7.27 76.92L7.27 67.46C7.27 62.87 8.44 63.09 12.64 63.09L32.58 63.09C34.96 63.09 37.35 63.13 39.74 63.09C39.72 59.68 38.99 59.79 42.07 59.79L45.47 59.79C45.91 58.45 46.48 57.14 46.99 55.82L19.17 55.82C18.1 55.82 16.96 55.9 15.9 55.8C13.67 55.6 14.18 52.68 14.18 51.11L14.18 16.45C14.18 14.91 13.98 13.1 16.02 13.03ZM83.45 14.07L23.54 14.07C21.04 14.07 18.53 14.01 16.03 14.07C14.7 14.1 15.24 16.42 15.24 17.43L15.24 44.38C15.24 47.48 15.17 50.61 15.23 53.71C15.25 54.68 15.66 54.77 16.55 54.78L81.53 54.78C84.43 54.78 84.92 55.41 84.91 52.11L84.91 23.51C84.91 20.71 84.96 17.89 84.9 15.09C84.88 13.99 84.43 14 83.45 14.07ZM9.99 64.15C7.67 64.42 8.29 67.24 8.29 69.04L8.29 78.34C8.28 82.46 9.04 81.67 12.59 81.67L36.4 81.67C36.42 79.86 36.12 70.81 36.49 69.52C36.97 69.11 41.44 69.33 42.29 69.33L59.13 69.33C60.37 69.33 61.66 69.26 62.89 69.34C63.88 69.41 63.62 70.21 63.62 70.95L63.62 81.67L77.79 81.67L89.08 81.67C91.89 81.67 91.68 81.29 91.68 78.41L91.68 68.99C91.68 67.49 92.23 64.29 90.07 64.17C88.94 64.1 87.77 64.15 86.62 64.15L15.5 64.15C13.67 64.15 11.83 64.12 9.99 64.15ZM37.48 70.42L37.48 75.92L60.35 75.93C61.02 75.93 61.9 76.01 62.54 75.92L62.54 70.42L40.31 70.42C39.37 70.42 38.42 70.38 37.48 70.42ZM47.51 76.97L37.48 76.97L37.48 81.67L52.53 81.67L59.16 81.67C60.28 81.67 61.42 81.71 62.54 81.67L62.54 76.97L47.51 76.97ZM48.12 55.82C47.52 57.09 47.09 58.48 46.61 59.79L51.62 59.79L53.14 59.79C52.65 58.48 51.99 57.17 51.62 55.82L48.12 55.82ZM13.72 82.76L13.72 85.54C14.23 85.51 14.73 85.52 15.24 85.54C15.47 85.2 15.68 84.87 15.87 84.51C16.2 83.91 16.52 83.32 16.91 82.76L13.72 82.76ZM83.45 82.76C83.54 83.18 84.61 84.91 84.91 85.54C85.37 85.54 85.84 85.57 86.3 85.54L86.3 82.76L83.45 82.76Z" fill="#FFFFFF" fill-opacity="1.000000" fill-rule="nonzero"/>
		<path id="Vector" d="M73.35 76.9C73.7 76.84 74.11 76.89 74.46 76.9L80.31 76.9C80.81 76.9 83.85 76.58 82.45 77.97L76.97 77.97C76.78 77.97 71.42 78.28 73.35 76.9Z" fill="#20C84F" fill-opacity="1.000000" fill-rule="nonzero"/>
		<path id="Vector" d="M17.46 76.9L23.69 76.9C24.54 76.9 26.35 76.8 27.09 76.94C27.7 77.06 27.55 77.75 27.11 77.97L20.77 77.97C19.84 77.98 18.49 78.07 17.6 77.95C16.89 77.86 16.98 77.22 17.46 76.9Z" fill="#20C84F" fill-opacity="1.000000" fill-rule="nonzero"/>
		<path id="Vector" d="M45.88 72.5C46.17 72.5 50.12 72.36 48.28 73.59C47.64 73.6 46.98 73.64 46.33 73.61C45.57 73.57 45.24 72.97 45.88 72.5Z" fill="#20C84F" fill-opacity="1.000000" fill-rule="nonzero"/>
		<path id="Vector" d="M53.14 72.5C53.67 72.5 54.95 72.32 55.35 72.65C55.89 73.09 55.41 73.58 54.72 73.59C54.14 73.6 53.02 73.74 52.53 73.44C52.02 73.13 52.34 72.5 53.14 72.5Z" fill="#20C84F" fill-opacity="1.000000" fill-rule="nonzero"/>
		<path id="Vector" d="M40.79 60.89C43.02 60.83 45.26 60.89 47.48 60.89L59.27 60.89C59.26 61.27 59.37 62.91 59.27 63.09L40.79 63.09L40.79 60.89Z" fill="#E5DCD9" fill-opacity="1.000000" fill-rule="nonzero"/>
		<path id="Vector" d="M83.45 14.07C84.43 14 84.88 13.99 84.9 15.09C84.96 17.89 84.91 20.71 84.91 23.51L84.91 52.11C84.92 55.41 84.43 54.78 81.53 54.78L16.55 54.78C15.66 54.77 15.25 54.68 15.23 53.71C15.17 50.61 15.24 47.48 15.24 44.38L15.24 17.43C15.24 16.42 14.7 14.1 16.03 14.07C18.53 14.01 21.04 14.07 23.54 14.07L83.45 14.07ZM69.46 15.85L23.73 15.85C22.88 15.85 17.44 15.65 17.07 15.97C16.81 16.19 16.9 18.04 16.9 18.45L16.91 48.35C16.91 54.1 16 52.87 22.12 52.87L30.54 52.87L80.84 52.87C82.33 52.86 83.04 53.36 83.06 51.76L83.06 25.81C83.06 24.37 83.33 16.6 82.85 15.93C82.26 15.73 78.95 15.84 78.14 15.84L69.46 15.85Z" fill="#2081F0" fill-opacity="1.000000" fill-rule="nonzero"/>
		<path id="Vector" d="M69.47 15.85L78.14 15.85C78.95 15.84 82.26 15.73 82.85 15.93C83.33 16.6 83.06 24.37 83.06 25.81L83.06 51.76C83.04 53.36 82.33 52.86 80.84 52.87L30.54 52.87L22.12 52.87C16 52.87 16.91 54.1 16.91 48.35L16.9 18.45C16.9 18.04 16.81 16.19 17.07 15.97C17.44 15.65 22.88 15.85 23.73 15.85L69.47 15.85ZM17.98 16.85L17.98 51.79L79.94 51.8C80.64 51.8 81.36 51.85 82.06 51.79L82.06 16.85L17.98 16.85Z" fill="#FFFFFF" fill-opacity="1.000000" fill-rule="nonzero"/>
		<path id="Vector" d="M77.38 37.93C79.35 37.79 76.72 40.04 76.42 40.34L73.74 43.03C72.98 43.8 71.68 45.32 70.85 45.86C70.25 45.97 70 45.45 70.39 44.99C70.69 44.64 71.05 44.32 71.37 44L75.9 39.4C76.39 38.91 76.85 38.39 77.38 37.93Z" fill="#FFFFFF" fill-opacity="1.000000" fill-rule="nonzero"/>
		<path id="Vector" d="M77.38 31.73C79.34 31.71 75.32 35.08 75.1 35.3L65.99 44.43C65.46 44.97 64.94 45.6 64.33 46.06C62.06 46.22 66.92 42.04 67.23 41.73L75.29 33.65C75.94 32.99 76.59 32.22 77.38 31.73Z" fill="#FFFFFF" fill-opacity="1.000000" fill-rule="nonzero"/>
		<path id="Vector" d="M30.54 20.89C31.41 20.93 31.09 21.63 30.68 22.06C28.55 24.34 26.1 26.7 23.86 28.9C23.44 29.32 23.02 29.84 22.53 30.16C21.76 29.99 21.73 29.55 22.23 29.01C23.19 27.96 24.25 26.99 25.25 25.98C26.47 24.75 29.19 21.65 30.54 20.89Z" fill="#FFFFFF" fill-opacity="1.000000" fill-rule="nonzero"/>
		<path id="Vector" d="M35.94 21.61C38.34 21.64 33.26 25.76 32.9 26.12L24.54 34.51C23.99 35.06 23.45 35.66 22.83 36.13C20.64 36.12 24.49 33.04 24.78 32.75L34.36 23.12C34.85 22.62 35.36 22.01 35.94 21.61Z" fill="#FFFFFF" fill-opacity="1.000000" fill-rule="nonzero"/>
	</g>
</svg>
