<svg width="100.000000" height="100.000000" viewBox="0 0 100 100" fill="none" xmlns="http://www.w3.org/2000/svg" xmlns:xlink="http://www.w3.org/1999/xlink">
	<desc>
			Created with Pixso.
	</desc>
	<defs>
		<clipPath id="clip9_2176">
			<rect id="icon / furniture-assembly" rx="0.000000" width="99.000000" height="99.000000" transform="translate(0.500000 0.500000)" fill="white" fill-opacity="0"/>
		</clipPath>
	</defs>
	<rect id="icon / furniture-assembly" rx="0.000000" width="99.000000" height="99.000000" transform="translate(0.500000 0.500000)" fill="#FFFFFF" fill-opacity="0"/>
	<g clip-path="url(#clip9_2176)">
		<path id="Vector" d="M64.93 17.19C65.66 16.98 69.03 20.76 69.73 21.45L88.83 40.22C89.85 41.2 91.4 42.57 92.24 43.64C92.29 45.69 92.51 51.6 92.18 53.48C91.68 53.68 83.01 54.27 82.06 54.24C81.31 53.75 80.5 52.78 79.86 52.14L60.77 33.29C60.16 32.69 59.57 32.01 58.9 31.48C57.06 31.61 55.21 31.66 53.36 31.76L24.66 33.36C22.42 33.49 20.16 33.66 17.92 33.69L17.92 49.51C19.52 48.66 21.07 47.64 22.63 46.72C24.16 47.68 25.76 48.53 27.33 49.42L32.82 52.55C34.06 53.25 35.31 53.91 36.52 54.65C37.12 53.63 38.33 51.91 38.75 50.92C38.65 50.76 38.58 50.6 38.5 50.43C38.66 49.92 39.82 47.96 40.24 47.71C40.7 47.42 44 49.42 44.11 49.77C44.21 50.06 42.89 52.71 42.38 52.79C42.08 52.85 41.85 52.65 41.62 52.49C40.94 53.79 40.16 55.03 39.43 56.3C40.95 56.99 42.37 57.98 43.85 58.77C44.5 57.78 45.55 55.67 46.3 54.94C45.53 54.19 46.1 53.84 46.55 53.08C46.71 52.81 47.23 51.58 47.57 51.55C48.09 51.51 50.77 53.19 51.31 53.59C52.21 54.31 50.27 56.55 49.9 56.8C49.64 56.86 49.29 56.6 49.07 56.47C48.27 57.77 47.41 59.13 46.79 60.52C47.45 60.78 48.07 61.21 48.69 61.57L57.15 66.44C61.93 69.18 60.72 67.83 60.78 73.7C60.13 74.35 58.62 75.1 57.79 75.61L53.53 78.25C52.95 78.6 52.38 78.98 51.78 79.3C50.44 78.82 48.66 77.64 47.41 76.92L17.92 60.2C17.89 61.99 17.91 63.77 17.91 65.55L17.92 75.99C17.92 76.93 18.04 81.74 17.81 82.35C17.32 82.75 11.84 82.69 11.37 82.39C11.06 81.77 11.19 80.67 11.2 80C6.72 80.03 7.81 80.16 7.81 75.34L7.8 21.11C7.8 20.91 7.78 20.73 7.9 20.55C8.84 20.25 11.3 20.24 12.45 20.18L49.57 18.07C54.69 17.78 59.81 17.37 64.93 17.19ZM63.38 18.16C61.68 18.2 59.98 18.34 58.29 18.44L11.36 21.12C10.55 21.17 9.69 21.17 8.88 21.29L11.52 27.57C11.67 27.92 11.82 28.28 11.95 28.64L61.43 25.76C62.07 25.72 62.74 25.64 63.38 25.67C63.68 23.18 64.07 20.61 64.61 18.16C64.2 18.13 63.79 18.08 63.38 18.16ZM22.63 47.75C20.46 48.97 16.79 51.05 14.82 52.49L39.28 66.48C42.78 68.46 46.31 70.41 49.77 72.44C50.45 72.84 51.16 73.21 51.78 73.7C52.3 73.28 52.87 72.95 53.44 72.6L56.67 70.58C57.63 69.99 58.6 69.43 59.51 68.77L50.01 63.34C48.91 62.72 47.41 61.68 46.3 61.24C44.96 63.13 42.07 61.18 43.4 59.52C41.94 58.72 40.44 57.94 39.05 57.03C38.16 58.87 34.72 57.73 36.14 55.46C34.27 54.28 32.29 53.27 30.37 52.18L24.81 48.99C24.08 48.58 23.37 48.14 22.63 47.75ZM16.61 29.3C15.1 29.28 13.57 29.38 12.06 29.43L12.06 81.69L16.24 81.69C16.51 81.7 16.78 81.7 17.05 81.69L17.05 59.68C16.56 59.5 13.73 57.96 13.59 57.59C13.48 57.29 13.47 52.79 13.53 52.25C14.63 51.47 15.87 50.74 17.05 50.08C17.12 48.17 17.04 46.23 17.04 44.32L17.04 32.67C17.04 32.25 17.1 29.37 17.04 29.28L16.61 29.3ZM65.4 18.46C64.99 20.78 64.77 23.61 64.22 25.84L80.2 41.59C80.99 42.36 81.76 43.19 82.6 43.9C84.77 43.66 87.03 43.75 89.17 43.35C89.71 43.38 90.25 43.4 90.78 43.35L66.88 19.91C66.45 19.48 65.91 18.77 65.4 18.46ZM63.46 26.49C60.9 26.67 58.26 26.95 55.7 26.95C56.3 27.69 57.06 28.27 57.72 28.95C59.6 30.86 61.47 32.76 63.39 34.64L77.94 49.02C79.2 50.27 80.5 51.5 81.74 52.77L81.74 44.38C80.54 42.96 79.08 41.69 77.76 40.38L68.21 31.01C67.17 30.01 64.6 27.17 63.56 26.47L63.46 26.49ZM17.92 29.14C17.84 29.45 17.57 32.92 18.29 32.74C19.71 32.85 21.19 32.68 22.61 32.6L47.85 31.21C51.2 31.03 54.56 30.69 57.91 30.7L58.11 30.67L58.14 30.61C58.06 30.4 57.8 30.22 57.62 30.07C57.09 29.41 55.16 27.62 54.55 27.18C53.35 27.06 52.08 27.24 50.87 27.31L21.95 28.93C20.61 29.01 19.26 29.15 17.92 29.14ZM90.62 44.2C87.95 44.43 85.27 44.63 82.6 44.78L82.6 53.33C82.86 53.34 83.12 53.35 83.38 53.33C85.75 53.12 89 52.75 91.36 52.77L91.36 44.2C91.11 44.2 90.86 44.18 90.62 44.2ZM47.88 52.49C47.52 53.08 47.18 53.68 46.79 54.24C47.67 54.85 48.71 55.47 49.68 55.94C50.06 55.42 50.45 54.74 50.7 54.15C49.78 53.62 48.82 52.95 47.88 52.49ZM40.55 48.6C40.18 49.2 39.77 49.8 39.43 50.43C39.73 50.58 42.06 51.9 42.12 51.9C42.54 51.28 42.9 50.63 43.4 50.08C42.61 49.74 41.08 48.67 40.55 48.6ZM8.65 23.09C8.69 23.59 8.67 24.09 8.65 24.59L8.66 24.65C8.7 24.92 8.64 25.26 8.73 25.52L8.7 25.4L8.84 25.43C9.05 25.27 9.3 24.84 9.35 24.59C9.13 24.09 8.93 23.57 8.65 23.09Z" fill="#FFFFFF" fill-opacity="1.000000" fill-rule="nonzero"/>
		<path id="Vector" d="M59.88 69.62C59.95 69.74 59.88 72.91 59.88 73.3C57.35 74.94 54.64 76.37 52.18 78.11L52.18 78.11C52 77.88 52.18 77.37 52.18 77.09L52.18 74.41C54.61 72.85 57.41 71 59.88 69.62Z" fill="#E5DCD9" fill-opacity="1.000000" fill-rule="nonzero"/>
		<path id="Vector" d="M46.79 55.46C47.37 55.56 47.81 55.83 48.3 56.13L46.44 59.29C46.06 59.94 45.69 60.67 45.2 61.24C44.69 61.08 44.22 60.94 43.85 60.52C44.5 58.8 45.95 57.16 46.79 55.46Z" fill="#20C84F" fill-opacity="1.000000" fill-rule="nonzero"/>
		<path id="Vector" d="M39.43 51.33C39.96 51.55 40.45 51.9 40.89 52.25C39.9 53.89 38.91 55.54 37.99 57.21C37.65 57.24 36.61 56.88 36.58 56.44C36.56 56.16 39.06 51.97 39.43 51.33Z" fill="#20C84F" fill-opacity="1.000000" fill-rule="nonzero"/>
		<path id="Vector" d="M14.44 53.33C15.26 53.67 16.06 54.21 16.83 54.65L48.4 72.65C49.37 73.22 50.39 73.76 51.31 74.41L51.31 78.11C46.35 75.62 41.15 72.44 36.33 69.67L14.44 57.21L14.44 53.33Z" fill="#E5DCD9" fill-opacity="1.000000" fill-rule="nonzero"/>
		<path id="Vector" d="M17.92 29.14C19.26 29.15 20.61 29.01 21.95 28.93L50.87 27.31C52.08 27.24 53.35 27.06 54.55 27.18C55.16 27.62 57.09 29.41 57.62 30.07C57.8 30.22 58.06 30.4 58.14 30.61L58.11 30.67L57.91 30.7C54.56 30.69 51.2 31.03 47.85 31.21L22.61 32.6C21.19 32.68 19.71 32.85 18.29 32.74C17.57 32.92 17.84 29.45 17.92 29.14ZM57.62 30.07C57.23 30.45 57.45 30.61 57.91 30.7L58.11 30.67L58.14 30.61C58.06 30.4 57.8 30.22 57.62 30.07Z" fill="#2081F0" fill-opacity="1.000000" fill-rule="nonzero"/>
		<path id="Vector" d="M9.35 24.59L10.34 27.05C11.12 28.94 11.2 29.15 11.2 31.17L11.2 79.12L8.65 79.12L8.65 26.61C8.64 25.94 8.6 25.25 8.65 24.59L8.66 24.65C8.7 24.92 8.64 25.26 8.73 25.51L8.7 25.4L8.84 25.43C9.05 25.27 9.3 24.84 9.35 24.59Z" fill="#E5DCD9" fill-opacity="1.000000" fill-rule="nonzero"/>
	</g>
</svg>
