<svg width="100.000000" height="100.000000" viewBox="0 0 100 100" fill="none" xmlns="http://www.w3.org/2000/svg" xmlns:xlink="http://www.w3.org/1999/xlink">
	<desc>
			Created with Pixso.
	</desc>
	<defs>
		<clipPath id="clip9_2189">
			<rect id="icon / shelves-and-picture-hanging" rx="0.000000" width="99.000000" height="99.000000" transform="translate(0.500000 0.500000)" fill="white" fill-opacity="0"/>
		</clipPath>
	</defs>
	<rect id="icon / shelves-and-picture-hanging" rx="0.000000" width="99.000000" height="99.000000" transform="translate(0.500000 0.500000)" fill="#FFFFFF" fill-opacity="0"/>
	<g clip-path="url(#clip9_2189)">
		<path id="Vector" d="M49.68 9.11C51.87 8.76 52.89 11.27 51.27 13.02C52.79 15.6 55.42 18.61 57.21 21.14L73.63 21.14C76.41 21.14 77.03 20.4 77.02 22.95L77.02 58.71C78.22 58.71 85.27 58.59 85.91 58.82C86.47 59.39 86.22 61.68 86.22 62.44L86.22 83.39L89.84 83.39C90.07 83.57 90.22 83.75 90.38 83.99L90.38 84.03C90.39 85.63 91.03 89.72 88.62 90.06C88.23 90.11 87.81 90.08 87.42 90.08L50.54 90.08L16.16 90.08C14.76 90.08 13.33 90.14 11.93 90.07C9.53 89.95 9.66 87.89 9.66 86.12C9.65 85.19 9.39 84.07 10.19 83.39C11.36 83.33 12.57 83.41 13.75 83.39L13.75 63.31C13.75 62.49 13.35 60.59 14.36 60.48C15.29 60.38 16.3 60.45 17.24 60.45L22.9 60.45L22.89 26.32C22.89 24.88 22.84 23.42 22.9 21.99C22.95 20.74 24.32 21.14 25.35 21.14L38.13 21.14C39.68 21.14 41.25 21.19 42.8 21.14C44.93 18.51 46.7 15.63 48.76 13.02C47.26 11.58 47.59 9.46 49.68 9.11ZM24.24 22.46L24.24 60.45L35.29 60.45C36.15 60.45 41.36 60.22 41.81 60.63C42.11 60.9 42.04 61.7 42.04 62.06L42.04 76C42.04 78.46 42.09 80.93 42.04 83.39L53.05 83.39C54.7 83.39 56.37 83.34 58.03 83.39L58.03 61.84C58.02 58.57 57.35 58.7 60.73 58.71L75.7 58.71L75.7 22.46L68.85 22.46C68.09 22.46 66.62 22.56 65.97 22.46L65.97 43.94C65.97 48.1 66.65 47.43 62.51 47.43L36.42 47.43C35.87 47.43 34.65 47.66 34.24 47.16C33.95 46.8 34.11 43.99 34.11 43.47L34.11 22.46C30.82 22.42 27.53 22.45 24.24 22.46ZM35.63 23.78L35.63 45.95L64.56 45.95L64.56 30.81C64.53 28.47 64.56 26.12 64.56 23.78C61.32 23.71 58.07 23.78 54.83 23.78L35.63 23.78ZM59.42 60.19L59.42 83.39L84.78 83.39L84.78 60.19L59.42 60.19ZM16.19 61.88C15.85 61.88 15.51 61.87 15.18 61.88L15.18 83.39L39.69 83.39L40.66 83.39L40.66 69.04C40.66 66.65 40.69 64.27 40.66 61.88C37.95 61.83 35.23 61.88 32.52 61.88L16.19 61.88ZM49.92 13.64C48.27 16.06 45.98 18.72 44.51 21.14L50.21 21.14C52.01 21.14 53.8 21.16 55.59 21.14C54.79 19.99 50.28 13.88 49.92 13.64ZM49.92 10.17C48.41 10.41 48.65 12.08 50.21 12.27C50.7 12.1 50.91 11.68 51.05 11.22C50.97 10.95 50.88 10.72 50.74 10.48C50.44 10.27 50.28 10.19 49.92 10.17Z" fill="#FFFFFF" fill-opacity="1.000000" fill-rule="nonzero"/>
		<path id="Vector" d="M11.2 84.82L89.01 84.82C89 85.71 89.28 87.97 88.63 88.62C87.89 88.76 85.81 88.62 84.94 88.62L15.51 88.62C14.65 88.62 11.57 88.98 11.16 88.22C10.98 87.89 10.96 85.24 11.08 84.87L11.2 84.82Z" fill="#2081F0" fill-opacity="1.000000" fill-rule="nonzero"/>
		<path id="Vector" d="M18.56 64.94L34.88 64.94C35.9 64.93 37.72 64.45 37.75 65.76C37.81 68.05 37.74 70.39 37.75 72.68L37.74 76.91C37.75 77.76 38.12 80.3 37.23 80.56C36.19 80.59 35.15 80.56 34.11 80.56L22.21 80.56C21.46 80.56 18.8 80.73 18.18 80.43C17.8 79.82 17.99 78.76 18 78.06L18 69.07C18 68.16 17.58 65.11 18.56 64.94ZM21.08 66.15C20.45 66.15 19.83 66.16 19.2 66.15C19.11 66.9 19.19 67.72 19.2 68.47L19.19 77.52C19.19 78.09 19.12 78.75 19.2 79.31L21.08 79.31L35.23 79.32C35.64 79.32 36.15 79.39 36.55 79.31C36.56 79.06 36.55 78.8 36.55 78.55L36.55 66.15L21.08 66.15Z" fill="#FFFFFF" fill-opacity="1.000000" fill-rule="nonzero"/>
		<path id="Vector" d="M21.08 66.15L36.55 66.15L36.55 78.55C36.55 78.8 36.56 79.06 36.55 79.31C36.15 79.39 35.64 79.32 35.23 79.32L21.08 79.31L19.2 79.31C19.12 78.75 19.19 78.09 19.19 77.52L19.2 68.47C19.19 67.72 19.11 66.9 19.2 66.15C19.83 66.16 20.45 66.15 21.08 66.15ZM19.2 66.15C19.28 66.66 19.18 67.19 19.28 67.68L19.36 67.69C19.55 67.54 19.6 67.2 19.5 66.99L19.58 66.89L19.56 66.95L19.55 66.92C20.49 66.19 23.09 66.25 21.14 66.21L21.08 66.15C20.45 66.15 19.83 66.16 19.2 66.15ZM36.55 79.31C36.56 79.06 36.55 78.8 36.55 78.55L36.5 78.46C36.57 77.58 35.4 79.12 35.3 79.26L35.31 79.22L35.34 79.28L35.43 79.28C35.78 79.25 36.2 79.26 36.55 79.31Z" fill="#E5DCD9" fill-opacity="1.000000" fill-rule="nonzero"/>
		<path id="Vector" d="M62.65 62.83L79.41 62.82C80.47 62.82 81.95 62.42 81.98 63.76C82.12 68.84 82.11 74.43 82 79.51C81.99 79.94 81.87 80.16 81.45 80.32L69.07 80.32C67.03 80.32 64.97 80.39 62.93 80.32C61.51 80.26 62.06 76.67 62.06 75.52L62.05 65.49C62.05 64.58 61.72 63.34 62.65 62.83ZM63.33 64.06L63.33 71.47C63.33 72.57 63.39 73.7 63.33 74.8C64.91 73.17 66.16 71.22 67.71 69.55L69.65 71.82C70.01 72.24 70.35 72.69 70.72 73.09C71.81 71.77 73.76 68.94 74.94 67.94C75.35 68.46 75.8 68.98 76.16 69.55C76.65 70.01 77.06 70.55 77.48 71.07L79.64 73.71C80.03 74.18 80.4 74.69 80.83 75.11C81.11 72.1 80.89 67.14 80.83 64.06C79 64.09 77.16 64.06 75.33 64.06L63.33 64.06ZM74.94 69.73C73.82 71.2 72.68 72.66 71.53 74.1C72.08 74.73 72.6 75.4 73.17 76.02C73.46 76.36 73.75 76.7 74.05 77.04C74.23 76.79 74.23 76.32 74.4 76.02C74.74 75.42 75.3 74.92 75.67 74.34L75.7 74.3C76.22 73.71 76.66 73.04 77.23 72.49C76.49 71.58 75.77 70.56 74.94 69.73Z" fill="#FFFFFF" fill-opacity="1.000000" fill-rule="nonzero"/>
		<path id="Vector" d="M77.23 72.49C78.26 73.64 79.95 75.62 80.83 76.85C80.78 77.62 80.83 78.41 80.83 79.18L75.82 79.18C75.24 78.46 74.62 77.77 74.05 77.04C74.23 76.79 74.23 76.32 74.4 76.02C74.74 75.43 75.3 74.92 75.67 74.34L75.7 74.3C76.22 73.71 76.66 73.04 77.23 72.49Z" fill="#E5DCD9" fill-opacity="1.000000" fill-rule="nonzero"/>
		<path id="Vector" d="M67.1 72.2C67.31 71.95 67.51 71.69 67.71 71.43C67.86 71.63 67.99 71.84 68.13 72.04C69.09 73.01 69.95 74.11 70.82 75.16L74.29 79.31C73.09 79.27 71.87 79.31 70.66 79.32L63.33 79.31L63.33 76.85C64.67 75.37 65.77 73.69 67.1 72.2Z" fill="#E5DCD9" fill-opacity="1.000000" fill-rule="nonzero"/>
		<path id="Vector" d="M35.63 22.46L61.29 22.46C62.38 22.47 63.48 22.52 64.56 22.46C64.59 23.26 64.61 30.68 64.56 30.81C64.53 28.47 64.56 26.12 64.56 23.78C61.32 23.71 58.07 23.78 54.83 23.78L35.63 23.78L35.63 22.46Z" fill="#20C84F" fill-opacity="1.000000" fill-rule="nonzero"/>
		<path id="Vector" d="M39.26 26.7L58.25 26.7C61.5 26.69 61.49 26.02 61.48 28.85L61.48 38.83C61.48 39.85 61.98 42.88 60.85 42.95L41.64 42.96C38.49 42.96 38.52 43.63 38.52 40.51L38.52 30.64C38.52 29.54 38 26.76 39.26 26.7ZM39.69 27.89C39.62 27.99 39.69 31.23 39.69 31.55L39.69 41.74L45.68 41.74L45.72 41.69C47.12 40.2 48.83 37.77 50.1 36.11C50.57 35.5 51.62 33.41 52.45 34.31C53.67 35.62 54.58 37.17 55.79 38.5C56.22 39.25 57.63 41.05 58.26 41.74L60.28 41.74L60.28 27.89L46.59 27.89C44.29 27.89 41.98 27.84 39.69 27.89ZM51.96 35.73C50.35 37.65 48.72 39.7 47.26 41.74C48.06 41.74 48.88 41.76 49.68 41.74C50.43 40.97 52.95 38.28 53.74 37.97C53.18 37.22 52.6 36.42 51.96 35.73ZM55.79 41.74C56.08 41.75 56.37 41.74 56.66 41.74C56.52 41.51 56.35 41.29 56.19 41.08C55.85 41.1 55.48 41.27 55.4 41.63L55.43 41.67C55.56 41.67 55.67 41.7 55.79 41.74Z" fill="#FFFFFF" fill-opacity="1.000000" fill-rule="nonzero"/>
		<path id="Vector" d="M53.74 37.97C54.59 38.98 55.38 40.04 56.19 41.08C55.85 41.1 55.48 41.27 55.4 41.63L55.43 41.67C55.56 41.67 55.67 41.7 55.79 41.74L49.68 41.74C50.43 40.97 52.95 38.28 53.74 37.97Z" fill="#E5DCD9" fill-opacity="1.000000" fill-rule="nonzero"/>
		<path id="Vector" d="M44.02 31.36C46.87 31.4 47.39 35.37 44.2 36.04C41.06 36.15 40.85 31.68 44.02 31.36Z" fill="#FFFFFF" fill-opacity="1.000000" fill-rule="nonzero"/>
		<path id="Vector" d="M44.02 32.53C45.54 32.72 45.48 34.42 44.2 34.88C42.54 34.84 42.5 32.82 44.02 32.53Z" fill="#20C84F" fill-opacity="1.000000" fill-rule="nonzero"/>
	</g>
</svg>
