<svg width="100.000000" height="100.000000" viewBox="0 0 100 100" fill="none" xmlns="http://www.w3.org/2000/svg" xmlns:xlink="http://www.w3.org/1999/xlink">
	<desc>
			Created with Pixso.
	</desc>
	<defs>
		<clipPath id="clip9_2207">
			<rect id="icon / handyman" rx="0.000000" width="99.000000" height="99.000000" transform="translate(0.500000 0.500000)" fill="white" fill-opacity="0"/>
		</clipPath>
	</defs>
	<rect id="icon / handyman" rx="0.000000" width="99.000000" height="99.000000" transform="translate(0.500000 0.500000)" fill="#FFFFFF" fill-opacity="0"/>
	<g clip-path="url(#clip9_2207)">
		<path id="Vector" d="M51.88 7.86C52.31 7.82 52.78 7.85 53.22 7.86L59.02 7.86C61.38 7.85 63.38 8.04 64.02 10.72C69.96 13.08 74.27 19.03 75.59 25.14C76.18 25.36 77.74 25.58 77.61 26.45C77.32 28.52 76.05 28.26 76.08 31.44L76.09 34.04C80.71 34.69 80.78 42.79 75.18 43.13C73.19 49.79 68.34 54.96 61.66 56.87C61.64 57.24 61.65 57.61 61.66 57.98C64.27 58.24 69.66 59.54 71.76 60.63C78.06 63.9 79.81 79.6 80.32 85.94L80.55 88.9C80.62 89.86 81.04 91.17 79.88 91.26C78.94 91.34 77.96 91.28 77.02 91.28L44.31 91.28C43.04 91.28 41.04 91.44 39.85 91.22C39.46 90.8 39.66 88.8 39.66 88.24L39.66 83.39C38.88 84.1 38.3 84.96 37.44 85.61C36.18 89.44 31.63 90.82 28.83 87.98C28.17 87.31 27.61 86.44 27.02 85.69L18.03 74.06C17.54 73.44 16.79 72.63 16.45 71.95C16.57 71 16.05 71.08 15.31 70.53C14.73 70.1 14.28 69.52 13.83 68.95C13.09 69.71 12.4 70.58 11.33 70.85C9.7 70.91 8.36 69.72 8.48 68.01C8.57 66.8 9.68 66.09 10.53 65.37C9.29 63.84 9.3 61.96 10.55 60.41C12.31 58.24 15.9 55.18 18.7 57.47C19.51 56.49 20.47 55.7 21.37 54.81C20.44 53.57 19.6 52.18 19.14 50.69C18.38 48.21 18.94 49.02 16.94 47.05C17.34 46.61 17.8 46.23 18.21 45.81L21.58 42.51C21.95 42.9 22.36 43.25 22.74 43.63L33.25 54.17C33.85 54.78 34.47 55.35 35.06 55.97C33.04 56.74 31.06 58.92 29.03 59.9C27.67 59.14 26.22 58.46 24.74 57.98C23.82 58.91 22.77 59.68 21.92 60.68C23.01 63.15 23.62 63.97 22.83 66.97C23.52 67.9 24.4 68.74 25.19 69.59L28.62 73.35C29.42 74.22 30.27 75.05 31.05 75.94C32.99 72.54 34.26 69.26 36.58 65.86C41 59.39 44.27 59.3 51.31 57.98L51.31 56.87C44.34 54.21 40.2 50.75 37.59 43.36C36.99 43.3 36.45 43.22 35.91 42.93C32.7 41.2 32.15 35.5 36.49 34.3C36.43 32.9 36.79 31.6 36.75 30.43C36.74 29.83 35.34 26.27 35.06 25.45C35.91 24.97 36.91 24.76 37.85 24.51C37.81 19.27 42.15 14.45 46.38 11.95C47.16 11.49 48.1 10.96 48.98 10.72C49.31 9.15 50.25 8.16 51.88 7.86ZM52.59 29.05C48.82 29.45 45.35 29.54 41.48 30.09C40.8 32.53 39.82 34 37.85 35.58C37.72 48 46.91 57.86 59.69 55.97C68.54 54.09 74.1 47.14 74.68 38.26C74.76 37.16 74.64 36.02 74.78 34.93C72.99 34.25 71.63 32.3 71.27 30.45C65.18 28.96 58.82 29.04 52.59 29.05ZM48.1 59.9C46.91 60.05 45.59 60.4 44.47 60.83L44.47 68.18C44.47 72.47 44.81 71.48 42.46 75.23C40.34 78.62 40.91 78.26 40.91 82.24L40.91 90L72.06 90C72.01 88.68 72.07 87.36 72.06 86.04C72.07 84.81 72.18 78.29 71.98 77.67C71.49 76.13 68.81 73.25 68.53 71.87C68.42 71.31 68.52 69.53 68.52 68.86L68.52 60.83C67.34 60.46 66.11 60.16 64.89 59.9C64.89 61.09 65.01 70.43 64.77 70.77C64.46 71.21 62.58 70.97 62.11 70.97L51.88 70.97C50.91 70.97 49.94 71.01 48.98 70.97C47.81 70.93 48.28 68.64 48.28 67.68L48.28 62.17C48.28 61.79 48.48 60.07 48.19 59.87L48.1 59.9ZM48.98 12.1C43.87 14.16 39.91 18.67 39.08 24.15C49.94 21.91 60.33 21.59 71.27 23.96C72.23 24.17 73.17 24.5 74.13 24.7C72.9 19.66 68.97 14.12 64.02 12.1C63.37 13.83 63.05 17.16 62.32 18.46C61.15 20.55 58.92 20.16 56.91 20.16C54.59 20.16 51.57 20.63 50.42 18C50.04 17.12 49.27 12.35 49.05 12.12L48.98 12.1ZM69.79 61.29L69.79 71.61C70.44 72.71 71.12 73.8 71.81 74.87C73.92 78.15 73.34 77.28 73.33 81.41L73.33 90C75.29 90.02 77.29 89.91 79.24 90C79.39 89.42 79.17 87.4 79.12 86.7C78.79 81.52 76.71 62.31 69.79 61.29ZM54.77 23.61C49.49 23.66 41.79 24.41 36.67 26.14C37.07 27.1 37.38 28.6 37.85 29.41C42.6 28.58 47.29 27.99 52.12 27.8C54.23 27.72 56.35 27.83 58.45 27.76C63.22 28.07 70.2 28.23 74.59 29.88C75.12 28.85 75.53 27.75 76.09 26.75C69.08 24.34 62.15 23.6 54.77 23.61ZM22.83 68.95C21.59 69.44 19.12 71.08 17.95 71.95L28.43 85.48C29.44 86.81 29.93 87.66 31.63 88.1C35.29 88.53 37.65 84.92 35.49 82.27C35.05 81.73 34.52 81.23 34.02 80.74L31.53 78.22C30.95 77.63 22.97 68.99 22.83 68.95ZM43.21 61.29C38.24 63.43 34.01 72.35 32.07 76.95C33.22 78.19 34.41 79.41 35.63 80.58C36.59 81.54 37.25 82.48 37.59 83.82C38.21 82.98 38.99 82.27 39.66 81.47C39.74 78.85 39.13 78.09 40.63 75.76C41.41 74.54 43.16 72.04 43.2 70.85C43.22 70.25 43.29 61.44 43.21 61.29ZM51.31 59.35C50.73 59.43 50.13 59.49 49.57 59.65L49.57 69.72L58.95 69.72C60.5 69.72 62.07 69.65 63.62 69.72L63.62 66.97L63.62 59.65C62.97 59.54 62.32 59.39 61.66 59.35C60.44 64.48 54.51 65.43 51.97 61.24C51.64 60.7 51.38 59.37 51.36 59.35L51.31 59.35ZM51.88 9.17C50.99 9.39 50.14 10.27 50.17 11.23C50.19 11.92 51.25 16.26 51.48 17.08C52.15 19.45 54.77 18.9 56.65 18.89C57.77 18.88 59.65 19.2 60.6 18.51C61.8 17.58 61.83 15.58 62.14 14.21C63.03 10.25 63.43 9.16 58.83 9.16L55.81 9.16C54.53 9.16 53.16 9.06 51.88 9.17ZM16.15 57.98C14.46 58.05 10.73 60.94 10.83 63.01C10.9 64.59 13.29 66.04 14.66 66.78C14.97 66.5 15.27 66.18 15.52 65.84C15.12 65.45 13.57 64.16 13.61 63.67C13.73 62.28 16.24 64.9 16.45 65.09C16.76 64.82 17.06 64.55 17.34 64.24C16.92 63.79 15.52 62.65 15.32 62.28C15.15 61.94 15.31 61.36 15.76 61.43C16.11 61.48 17.82 63.08 18.21 63.44C18.49 63.19 18.77 62.94 18.98 62.62L18.94 62.56C18.44 62 17.29 61.09 16.96 60.58C16.73 60.22 16.85 59.65 17.34 59.75C17.92 59.88 18.39 60.47 18.83 60.83C19.27 61.37 20.19 61.99 20.11 62.76C20 63.73 18.36 65.06 19.09 66.03C19.4 66.43 20.31 66.82 20.24 67.36C20.2 67.73 19.8 67.81 19.48 67.75C18.6 67.59 17.99 66.6 17.61 65.84C17.31 66.02 17.01 66.18 16.7 66.34C16.19 67.19 15.74 67.68 14.75 67.93L14.66 67.95C15.43 69.11 16.49 69.87 17.61 70.64L20.13 69.04C20.71 68.66 21.29 68.24 21.92 67.95C21.8 67.57 21.66 67.18 21.58 66.78C22.12 64.85 22.1 63.51 21.09 61.74C20.31 60.36 18.06 57.34 16.15 57.98ZM52.59 57.2C52.58 58.78 52.51 60.2 53.7 61.41C55.25 62.97 57.87 62.87 59.37 61.29C60.48 59.89 60.43 58.91 60.4 57.2C57.1 57.6 55.58 57.26 52.59 57.2ZM21.58 44.2C20.72 45.05 19.45 46.15 18.7 47.05C20 48.49 19.65 47.95 20.12 49.74C20.49 51.17 21.3 52.96 22.44 53.93C22.72 53.54 23.02 53.21 23.37 52.88C21.89 51.51 21.17 48.06 21.12 46.17C21.54 45.8 21.97 45.42 22.44 45.11C22.17 44.79 21.87 44.49 21.58 44.2ZM76.09 35.29C76.09 36.73 75.99 38.22 75.83 39.65C75.7 40.86 74.83 42.87 77.03 41.11C78.84 39.3 78.44 35.71 76.09 35.29ZM36.49 35.58C34 36.85 34.15 39.86 36.09 41.51C36.53 41.81 36.92 41.94 37.44 42.06C36.71 40.4 36.76 35.82 36.55 35.59L36.49 35.58ZM19.68 58.12C19.94 58.43 20.21 58.72 20.5 59C22.17 57.34 24.14 55.13 25.92 53.78C24.81 52.69 23.96 54.1 23.17 54.84C22 55.93 20.83 57.01 19.68 58.12ZM10.15 69.29C10.81 68.72 12.26 67.35 12.84 66.97C12.42 66.65 11.99 66.35 11.55 66.05C10.77 66.82 8.72 68.17 10.15 69.29ZM26.74 55.97C26.41 56.31 26.06 56.63 25.72 56.97C26.26 57.23 26.82 57.45 27.37 57.67C27.32 57.25 26.9 56.76 26.81 56.29L26.74 55.97Z" fill="#FFFFFF" fill-opacity="1.000000" fill-rule="nonzero"/>
		<path id="Vector" d="M12.84 66.97L13.58 67.49C12.79 68.28 11.4 70.28 10.15 69.29C10.81 68.72 12.26 67.35 12.84 66.97Z" fill="#E5DCD9" fill-opacity="1.000000" fill-rule="nonzero"/>
		<path id="Vector" d="M25.92 53.78C26.08 54.05 26.21 54.29 26.29 54.59C25.38 56.02 22.42 58.32 21.12 59.65C20.91 59.44 20.71 59.21 20.5 59C22.17 57.34 24.14 55.13 25.92 53.78Z" fill="#E5DCD9" fill-opacity="1.000000" fill-rule="nonzero"/>
		<path id="Vector" d="M52.11 45.55C52.72 45.54 52.97 46.29 53.35 46.68C54.65 48.02 57.9 48.15 59.23 46.93C59.51 46.68 60.78 44.63 61.14 45.95C61.27 46.39 61.1 46.67 60.9 47.05C58.9 49.73 53.41 49.85 51.74 46.68C51.47 46.16 51.62 45.81 52.11 45.55Z" fill="#FFFFFF" fill-opacity="1.000000" fill-rule="nonzero"/>
		<path id="Vector" d="M22.44 45.11L33.02 55.64C31.74 56.62 30.35 57.46 29.03 58.4C28.48 58.18 27.88 57.97 27.37 57.67C27.32 57.25 26.9 56.76 26.81 56.29L26.74 55.97C28.61 54.29 26.2 50.58 23.37 52.88C21.89 51.51 21.17 48.06 21.12 46.17C21.54 45.8 21.97 45.42 22.44 45.11Z" fill="#2081F0" fill-opacity="1.000000" fill-rule="nonzero"/>
		<path id="Vector" d="M63.83 36.25C65.66 36.08 66.39 38.8 64.02 39.67C61.76 39.38 61.52 36.44 63.83 36.25Z" fill="#FFFFFF" fill-opacity="1.000000" fill-rule="nonzero"/>
		<path id="Vector" d="M48.29 36.25C50.64 36 51.19 39.06 48.98 39.67C46.82 39.95 46.31 36.88 48.29 36.25Z" fill="#FFFFFF" fill-opacity="1.000000" fill-rule="nonzero"/>
		<path id="Vector" d="M48.29 31.27C48.67 31.26 51.79 31.48 50.92 32.44C50.67 32.72 48.8 32.13 47.77 32.3C47.13 32.45 46.68 32.83 46.09 33.03C45.66 33.18 45.22 32.65 45.53 32.29C46.07 31.68 47.49 31.33 48.29 31.27Z" fill="#FFFFFF" fill-opacity="1.000000" fill-rule="nonzero"/>
		<path id="Vector" d="M63.83 31.27C65.32 31.09 68.31 31.98 67 32.67C66.67 32.84 65.78 32.4 65.4 32.3C63.64 31.95 62.76 32.73 62.25 32.63C61.98 32.58 61.78 32.21 61.93 31.96C62.19 31.51 63.35 31.33 63.83 31.27Z" fill="#FFFFFF" fill-opacity="1.000000" fill-rule="nonzero"/>
		<path id="Vector" d="M72.63 30.68C73.35 30.79 74.09 31.06 74.78 31.27C74.78 32.05 74.79 32.83 74.78 33.61C73.8 32.96 73.07 31.74 72.63 30.68Z" fill="#20C84F" fill-opacity="1.000000" fill-rule="nonzero"/>
		<path id="Vector" d="M40.02 30.29L40.07 30.29L40.12 30.34C39.69 31.81 38.78 32.87 37.84 34.04C37.76 34.07 37.77 33.2 37.99 30.68C38.67 30.56 39.34 30.41 40.02 30.29Z" fill="#20C84F" fill-opacity="1.000000" fill-rule="nonzero"/>
	</g>
</svg>
