<svg width="140.000000" height="140.000000" viewBox="0 0 140 140" fill="none" xmlns="http://www.w3.org/2000/svg" xmlns:xlink="http://www.w3.org/1999/xlink">
	<desc>
			Created with Pixso.
	</desc>
	<defs>
		<clipPath id="clip129_3298">
			<rect id="trusted-by-m2--households" rx="0.000000" width="139.000000" height="139.000000" transform="translate(0.500000 0.500000)" fill="white" fill-opacity="0"/>
		</clipPath>
	</defs>
	<rect id="trusted-by-m2--households" rx="0.000000" width="139.000000" height="139.000000" transform="translate(0.500000 0.500000)" fill="#FFFFFF" fill-opacity="0"/>
	<g clip-path="url(#clip129_3298)">
		<path id="Vector" d="M42.5 114.57C42.98 114.55 43.46 114.57 43.94 114.57C43.95 117.8 45.05 119.26 42.16 119.33C42.76 118.15 42.5 115.9 42.5 114.57Z" fill="#20C84F" fill-opacity="1.000000" fill-rule="nonzero"/>
		<path id="Vector" d="M61.04 70.43C63.45 68.63 66.05 67.02 68.55 65.34C69.61 64.63 71.52 63.82 72.03 62.58C72.38 63.07 72.63 63.47 72.05 63.88C69.63 65.57 67.12 67.17 64.64 68.75C63.59 69.41 62.38 70.71 61.04 70.43Z" fill="#2081F0" fill-opacity="1.000000" fill-rule="nonzero"/>
		<path id="Vector" d="M93.63 52.94C94.61 53.49 94.2 56.06 94.13 57.21L83.9 57.21C82.8 57.21 79.3 57.58 78.52 56.91C79.4 56.37 83 56.66 84.13 56.66L93.28 56.66C93.3 55.58 92.87 53.83 93.63 52.94Z" fill="#0F1E9E" fill-opacity="1.000000" fill-rule="nonzero"/>
		<path id="Vector" d="M76.29 76.98C77.78 77.01 77.36 78.68 77.36 79.74L77.36 83.43C77.96 83.42 81.65 82.98 81.4 84.19C81.32 84.55 81.22 84.73 80.92 84.93C78.96 84.93 75.94 85.78 75.75 83.69C75.63 82.34 75.14 77.69 76.29 76.98Z" fill="#2081F0" fill-opacity="1.000000" fill-rule="nonzero"/>
		<path id="Vector" d="M45.36 30.27C47.33 30.39 44.4 32.3 44.23 32.43L39.47 35.92C38.55 36.58 34.05 39.17 37.27 40.13C38.36 39.63 40 38.05 40.94 37.89C41.88 38.07 41.36 38.84 40.97 39.26C39.54 39.8 38.27 41.76 36.57 41.15C34.98 40.58 34.29 38.44 35.61 37.27C36.78 36.23 38.21 35.37 39.47 34.45L42.98 31.89C43.74 31.34 44.51 30.66 45.36 30.27Z" fill="#000000" fill-opacity="1.000000" fill-rule="nonzero"/>
		<path id="Vector" d="M55.77 76.98C57.51 76.74 59.64 77.48 59.27 79.67C58.99 81.31 57.03 82.53 55.77 83.43C56.82 83.56 58.51 83.38 59.32 83.71C59.64 83.83 60 84.32 59.7 84.63C59.22 85.13 56.54 84.94 55.77 84.93C48.5 85.24 61 79.92 56.78 78.26C55.83 77.89 55.29 78.89 54.53 79.17C53.49 79.56 52.85 77.51 55.77 76.98Z" fill="#2081F0" fill-opacity="1.000000" fill-rule="nonzero"/>
		<path id="Vector" d="M67.65 25.47C63.47 19.85 54.09 20.7 51.45 27.25C51.21 27.85 50.79 30.53 49.96 30.45C48.61 29.55 50.85 25.67 51.51 24.79C57.19 17.27 68.52 20.16 70.68 29.19C69.31 30.25 68.76 26.92 67.7 25.54L67.65 25.47Z" fill="#000000" fill-opacity="1.000000" fill-rule="nonzero"/>
		<path id="Vector" d="M83.4 76.98C84.87 77 85.87 79.7 86.68 80.73C87.04 79.92 88.57 77.02 89.67 76.98C91.16 76.93 90.76 79.39 90.75 80.31L90.75 84.35C89.12 86.41 88.94 83.69 88.93 82.52L88.93 80.06C86.47 83.64 86.55 83.16 84.19 79.88C84.17 81.13 84.76 85.06 83.2 84.98C81.85 84.91 82.44 78.15 82.59 77.68C82.73 77.28 83.04 77.14 83.4 76.98Z" fill="#2081F0" fill-opacity="1.000000" fill-rule="nonzero"/>
		<path id="Vector" d="M69.35 80.5C69.91 79.65 71.27 77.2 72.24 76.95C73.98 76.51 73.46 79.79 73.46 80.66C73.47 81.43 73.94 84.93 72.7 84.99C71.34 85.06 71.77 82.22 71.77 81.43C71.76 80.91 71.76 80.4 71.77 79.88C68.68 83.89 70.15 83.63 66.97 79.95L66.91 79.88C66.91 80.81 67.36 84.27 66.46 84.86C65.67 85.37 65.19 84.47 65.14 83.81C65.03 82.48 64.6 77.67 65.88 76.98C67.58 76.83 68.53 79.2 69.35 80.5Z" fill="#2081F0" fill-opacity="1.000000" fill-rule="nonzero"/>
		<path id="Vector" d="M61.04 70.43C59.19 70.87 58.44 69.88 56.99 68.88L47.26 62.22C43.98 59.96 41.94 58.76 41.43 54.48C41.27 53.21 40.38 43.21 40.59 42.24C40.68 41.85 41.04 41.78 41.38 41.89C41.9 42.32 41.85 44.48 41.9 45.21L42.34 51.23C42.59 54.45 42.72 57.75 45.76 59.73L45.84 59.79C46.97 60.77 48.32 61.5 49.54 62.36C52.67 64.56 56.37 67.25 59.62 69.24C60.59 69.83 63.11 67.53 63.88 67.01C65.48 65.91 70.15 62.56 71.77 62.03C71.96 62.21 72.02 62.31 72.03 62.58C71.52 63.82 69.61 64.63 68.55 65.34C66.05 67.02 63.45 68.63 61.04 70.43Z" fill="#000000" fill-opacity="1.000000" fill-rule="nonzero"/>
		<path id="Vector" d="M113.46 81.6C114.45 83.11 114.56 85.14 113.38 86.58C111.5 88.86 109.2 90.9 107.12 92.99C103.94 96.19 100.73 99.36 97.44 102.46L83.07 115.84C81.05 117.73 79.4 119.76 76.29 119C76.81 118.62 78.01 118.51 78.89 117.84C79.59 117.3 80.22 116.66 80.86 116.06C89.46 107.94 98.06 100.22 106.5 91.84L110.36 87.94C113.44 84.81 112.82 85.82 113.46 81.6Z" fill="#20C84F" fill-opacity="1.000000" fill-rule="nonzero"/>
		<path id="Vector" d="M105.63 41.61C107 41.8 105.94 45.14 105.8 46.26L105.15 51.63C104.35 58.12 103.74 58.84 98.67 62.32L90.15 68.16C86.35 70.82 86.13 70.59 82.39 68.04L73.66 62.06C72.66 61.37 71.55 60.77 70.68 59.93C67.17 56.55 66.98 48.6 66.91 43.69C66.45 41.41 67.97 40.86 68.07 43.78C68.12 45.23 68.28 46.7 68.37 48.15C68.8 54.73 68.62 57.19 74.16 60.97L77.87 63.5C80.12 65.04 82.53 66.86 84.81 68.31C87.32 69.9 90.83 66.24 93.1 64.71L98.03 61.34C103.37 57.65 103.2 57.38 104.02 50.75C104.18 49.45 104.87 42.07 105.63 41.61Z" fill="#000000" fill-opacity="1.000000" fill-rule="nonzero"/>
		<path id="Vector" d="M71.35 30.72C71.58 30.55 71.84 30.35 72.15 30.38C74.18 30.61 70.17 33.15 69.94 33.31L65.52 36.43C64.67 37.02 62.31 38.09 62.98 39.48C63.79 41.15 68.36 37.09 69.1 36.58L80.77 28.42C85.59 25.05 85.28 23.62 90.51 27.33L104.99 37.42C105.92 38.06 107.66 39.5 108.55 39.89C109.6 40.34 110.88 39.36 110.08 38.3C108.64 36.39 103.09 33.85 101.49 32.04C101.12 31.62 101.23 30.83 101.89 31C102.48 31.15 109.8 36.45 110.52 37.08C112.52 38.84 110.77 42.13 108.31 41.14C107.22 40.7 104.57 38.59 103.46 37.81L90.76 28.95C85.98 25.63 87.23 25.27 82.47 28.65L68.34 38.59C67.38 39.27 65.99 40.11 65.15 40.81C62.56 41.94 60.8 39.26 62.17 37.58C62.78 36.82 63.71 36.3 64.49 35.75L69.08 32.45C69.85 31.89 70.67 31.39 71.35 30.72Z" fill="#000000" fill-opacity="1.000000" fill-rule="nonzero"/>
		<path id="Vector" d="M79.03 45.04C78.3 43.84 79.45 41.43 80.19 40.44C82.41 37.45 88.07 37.06 90.93 39.26C93.52 40.97 94.43 44.51 92.65 47.15C91.22 49.26 88.88 50.79 87.6 52.94C88.03 53.03 88.52 52.97 88.96 52.96L92.17 52.93C92.64 52.93 93.16 52.87 93.63 52.94C92.87 53.83 93.3 55.58 93.28 56.66L84.13 56.66C83 56.66 79.4 56.37 78.52 56.91C77.97 56.08 80.59 53.6 81.1 53C83 50.78 84.94 48.59 86.91 46.44C88.14 45.11 89.31 43.82 87.6 42.41C85.12 41.51 84.16 43.19 83.87 45.24C82.89 45.24 79.7 45.58 79.03 45.04Z" fill="#2081F0" fill-opacity="1.000000" fill-rule="nonzero"/>
		<path id="Vector" d="M82.96 44.67C83.14 41.19 86.55 40.62 87.6 42.41C85.12 41.51 84.16 43.19 83.87 45.24C82.89 45.24 79.7 45.58 79.03 45.04L79.23 44.81C79.98 44.49 82.08 44.66 82.96 44.67Z" fill="#0F1E9E" fill-opacity="1.000000" fill-rule="nonzero"/>
		<path id="Vector" d="M90.93 39.26C93.52 40.97 94.43 44.51 92.65 47.15C91.22 49.26 88.88 50.79 87.6 52.94C87.06 53.1 86.34 52.98 85.77 52.94C89.56 48.53 95.23 45.6 90.93 39.26Z" fill="#0F1E9E" fill-opacity="1.000000" fill-rule="nonzero"/>
		<path id="Vector" d="M42.5 37.28C44.24 35.92 47.99 33.18 50 32.14C52.58 30.81 51.29 32.84 52.56 29.04C54.4 23.52 61.1 21.68 65.94 24.36C66.54 24.69 67.08 25.1 67.65 25.47L67.7 25.54C68.76 26.92 69.31 30.25 70.68 29.19C70.91 29.7 71.14 30.2 71.35 30.72C70.68 31.39 69.85 31.89 69.08 32.45L64.49 35.75C63.71 36.3 62.78 36.82 62.17 37.58C60.8 39.26 62.56 41.94 65.15 40.81C65.92 47.41 64.92 59.49 71.77 62.03C70.15 62.56 65.48 65.91 63.88 67.01C63.11 67.53 60.59 69.83 59.62 69.24C56.37 67.25 52.67 64.56 49.54 62.36C48.32 61.5 46.97 60.77 45.84 59.79C45.79 59.37 44.93 58.21 44.7 57.77C43.41 55.28 43.55 52.51 43.37 49.78L42.77 41.29C42.68 39.95 42.64 38.61 42.5 37.28Z" fill="#2081F0" fill-opacity="1.000000" fill-rule="nonzero"/>
		<path id="Vector" d="M84.88 94.96C86.81 93.32 88.91 91.82 90.94 90.31L103.56 80.85C105.82 79.19 107.67 77.37 110.66 78.59C112.01 79.14 112.89 80.29 113.46 81.6C112.82 85.82 113.44 84.81 110.36 87.94L106.5 91.84C98.07 100.22 89.46 107.94 80.86 116.06C80.22 116.66 79.59 117.3 78.89 117.84C78.01 118.51 76.81 118.62 76.29 119C74.87 119.06 73.27 118.54 71.88 118.25C63.13 116.45 52.93 114.58 43.94 114.57C43.46 114.57 42.98 114.55 42.5 114.57C42.5 115.9 42.76 118.15 42.16 119.33C39.66 119.42 37.14 119.33 34.65 119.33C31.74 119.34 26.77 120.3 26.07 116.3C25.89 115.26 26.03 114.13 26.04 113.07L26.04 97.21C26.02 91.4 25.14 88.77 31.71 88.79L39.32 88.79C41.96 88.77 42.4 88.25 42.5 91.05C43.33 90.82 44.16 90.42 44.96 90.08L49.3 88.22C53.78 86.3 54.47 87.11 58.98 89.05C60.98 89.9 62.98 90.72 64.97 91.59C68.58 93.18 68 92.95 71.99 92.95L80.08 92.94C82.46 92.95 83.21 93.27 84.88 94.96ZM42.5 92.45C42.52 92.79 42.51 93.12 42.5 93.46L42.5 94.06C42.92 94 43.37 93.97 43.76 93.8C47.55 92.17 52.4 89 56.32 90.55C59.14 91.66 61.9 92.97 64.68 94.16C68.99 96 68.65 95.63 73.51 95.63L83.87 95.63C82.67 93.76 80.41 94.05 78.52 94.06L71.4 94.05C70.31 94.06 69.14 94.2 68.06 94.05C64.33 93.52 56.02 87.96 52.77 88.28C51 88.45 44.67 91.46 42.5 92.45ZM28.51 117.85L28.51 96.88C28.49 90.93 29.38 91.37 34.44 91.38L41.3 91.38C41.3 90.91 41.31 90.43 41.3 89.96L33.1 89.95C27.01 89.95 27.26 89.98 27.27 95.49L27.27 111.08C27.26 113.29 26.55 116.56 28.51 117.85ZM85.37 95.99C85.51 96.45 85.64 96.91 85.77 97.38C86.08 97.23 86.38 97.08 86.68 96.92C86.82 96.5 103.68 84.09 105.03 83.13C108.6 80.57 107.4 80.1 111.95 81.43C109.84 77.08 105.88 80.56 103.63 82.25L89.79 92.63C88.31 93.74 86.76 94.8 85.37 95.99Z" fill="#000000" fill-opacity="1.000000" fill-rule="nonzero"/>
		<path id="Vector" d="M28.51 117.85L28.51 96.88C28.49 90.93 29.38 91.37 34.44 91.38L41.3 91.38L41.3 118.12C39.31 118.06 29.53 118.37 28.51 117.85Z" fill="#20C84F" fill-opacity="1.000000" fill-rule="nonzero"/>
		<path id="Vector" d="M86.68 96.92C86.82 96.5 103.68 84.09 105.03 83.13C108.6 80.57 107.4 80.1 111.95 81.43C112.67 82.76 112.09 84.22 111.19 85.26C108.57 88.23 105.55 91 102.72 93.76L87.59 108.18L81.56 113.77C76.9 118.04 77.55 118.24 71.78 117C62.66 115.05 53.27 113.51 43.94 113.35C43.46 113.34 42.98 113.35 42.5 113.35L42.5 99.64C42.5 97.85 42.31 95.15 42.5 93.46L42.5 94.06C42.92 94 43.37 93.97 43.76 93.8C47.55 92.17 52.39 89 56.32 90.55C59.14 91.66 61.9 92.97 64.68 94.16C68.99 96 68.65 95.63 73.51 95.63L83.87 95.63C86.63 101.41 81.37 101.69 77.32 102.13L72.27 102.71C70.61 102.9 66.82 103.79 65.33 103.19C64.14 102.72 60.31 100.54 59.36 100.68C57.48 102.02 65.26 104.48 65.88 104.58L66.08 104.58C67.5 104.59 68.94 104.35 70.35 104.19L77.62 103.3C81.85 102.78 85.79 103.07 85.77 97.38C86.08 97.23 86.38 97.08 86.68 96.92Z" fill="#20C84F" fill-opacity="1.000000" fill-rule="nonzero"/>
	</g>
</svg>
