<svg width="140.000000" height="140.000000" viewBox="0 0 140 140" fill="none" xmlns="http://www.w3.org/2000/svg" xmlns:xlink="http://www.w3.org/1999/xlink">
	<desc>
			Created with Pixso.
	</desc>
	<defs>
		<clipPath id="clip129_3320">
			<rect id="5-star-technician-rating" rx="0.000000" width="139.000000" height="139.000000" transform="translate(0.500000 0.500000)" fill="white" fill-opacity="0"/>
		</clipPath>
	</defs>
	<rect id="5-star-technician-rating" rx="0.000000" width="139.000000" height="139.000000" transform="translate(0.500000 0.500000)" fill="#FFFFFF" fill-opacity="0"/>
	<g clip-path="url(#clip129_3320)">
		<path id="Vector" d="M38.7 85.68C39.2 85.58 39.83 86.02 40.37 86.07C42.07 86.21 43.82 85.94 45.5 86.13C45.27 86.49 45.05 86.83 44.77 87.15C42.52 87.5 40.48 87.26 38.7 85.68Z" fill="#2081F0" fill-opacity="1.000000" fill-rule="nonzero"/>
		<path id="Vector" d="M37.61 84.38C38.28 84.53 38.85 84.96 39.52 85.08C41.46 85.41 44.38 85.08 46.44 85.17C46.16 85.49 45.86 85.91 45.5 86.13C43.82 85.94 42.07 86.21 40.37 86.07C39.84 86.02 39.2 85.58 38.7 85.68C38.26 85.3 37.93 84.86 37.61 84.38Z" fill="#000000" fill-opacity="1.000000" fill-rule="nonzero"/>
		<path id="Vector" d="M20.87 82.82C21.28 83 21.67 83.17 21.99 83.49C21.04 83.97 20.16 84.52 19.26 85.09C17.7 86.08 16.27 87.54 14.82 85.68C17.15 85.73 18.79 83.62 20.87 82.82Z" fill="#20C84F" fill-opacity="1.000000" fill-rule="nonzero"/>
		<path id="Vector" d="M112.79 49.14C113.35 49.76 113.43 50.39 113.38 51.19C112.85 52.08 109.66 54.7 108.54 55.45L108.79 56.52C109.05 57.55 109.73 59.26 109.83 60.19C110.09 61.07 110.18 61.86 109.83 62.73C109.41 63.12 109.08 63.26 108.54 63.39C107.34 63.04 106.42 62.38 105.51 61.55C107.38 62.08 108.76 63.34 109.31 60.46C109.16 59.14 108.68 57.8 108.33 56.52L108.12 55.68L108.12 54.72C109.71 52.38 112.35 52.54 112.79 49.14Z" fill="#20C84F" fill-opacity="1.000000" fill-rule="nonzero"/>
		<path id="Vector" d="M31.28 72.51C33.72 75.19 29.33 77.09 27.73 78.62C28.06 80.01 28.35 81.41 28.6 82.82C28.78 83.8 29.13 84.75 28.6 85.68C27.7 86.64 26.67 86.54 25.74 85.68C26.87 85.18 28.01 85.87 28.13 83.49C27.76 81.61 27.23 79.74 26.78 77.87C28.81 75.83 31.36 75.48 31.28 72.51Z" fill="#20C84F" fill-opacity="1.000000" fill-rule="nonzero"/>
		<path id="Vector" d="M49.88 49.52C50.56 49.99 50.6 50.42 50.49 51.19C49.26 52.9 47.14 54.27 45.74 56.02C46.09 57.26 46.94 60.01 46.94 61.23C46.93 63.18 45.01 63.73 43.72 62.45L43.96 62.4C47.76 61.7 45.28 57.54 44.77 55.24C46.14 53.72 49.39 51.44 49.88 49.52Z" fill="#20C84F" fill-opacity="1.000000" fill-rule="nonzero"/>
		<path id="Vector" d="M85.99 41.12C86.1 41.32 86.22 41.51 86.32 41.7C86.45 44.98 79.21 47.86 79.54 49.14C79.87 51.15 81.74 57.19 81.12 58.69C80.42 59.81 79.33 60.15 78.17 59.47C79.35 59.13 80.13 58.73 80.62 57.5C80.8 56.09 79.38 51.86 79.04 50.18C78.85 49.61 78.75 49.03 78.65 48.44C79.12 47.92 79.71 47.49 80.25 47.05L83.34 44.57C84.94 43.29 85.38 43.05 85.99 41.12Z" fill="#20C84F" fill-opacity="1.000000" fill-rule="nonzero"/>
		<path id="Vector" d="M129.76 72.51C130.2 73.13 130.38 73.64 130.52 74.38C130.08 75.77 127.81 77.61 126.53 78.27C125.2 79.57 128.85 84.14 127.26 85.92C126.29 87 124.75 86.23 123.92 85.41C124.38 85.3 124.84 85.58 125.32 85.44C127.95 84.73 125.89 80.24 125.46 78.62C125.36 78.31 125.3 77.99 125.24 77.66C126.7 75.83 129.14 74.92 129.76 72.51Z" fill="#20C84F" fill-opacity="1.000000" fill-rule="nonzero"/>
		<path id="Vector" d="M103.56 76.67C104.27 76.71 104.46 77.01 104.81 77.55C107.04 79.69 106.66 83.39 104.62 85.51C103.06 87.15 101.4 87.36 99.22 87.4C94.81 87.47 90.4 87.41 85.99 87.4C85.76 87.21 85.53 87.01 85.34 86.78C85.41 86.52 85.47 86.17 85.6 85.93C85.61 85.57 85.6 85.21 85.6 84.85L94.91 84.85C96.4 84.85 97.93 84.95 99.41 84.84C102.21 84.65 104.3 82.36 104.03 79.46C103.95 78.57 103.18 77.52 103.56 76.67Z" fill="#2081F0" fill-opacity="1.000000" fill-rule="nonzero"/>
		<path id="Vector" d="M103.56 76.67C104.27 76.71 104.46 77.01 104.81 77.55C104.8 78.12 105.03 78.64 105.1 79.19C105.58 82.78 102.74 85.84 99.2 85.93C97.56 85.97 95.91 85.93 94.27 85.93L85.6 85.93C85.61 85.57 85.6 85.21 85.6 84.85L94.91 84.85C96.4 84.85 97.93 84.95 99.41 84.84C102.21 84.65 104.3 82.36 104.03 79.46C103.95 78.57 103.18 77.52 103.56 76.67Z" fill="#000000" fill-opacity="1.000000" fill-rule="nonzero"/>
		<path id="Vector" d="M37.61 84.38C37.2 83.8 36.7 83.3 36.29 82.72C33.86 79.3 36.18 74.35 40.31 73.82C41.23 73.7 42.2 73.75 43.13 73.75L62.48 73.75C61.98 76.82 58.97 81.93 56.65 83.6C55.86 84.18 54.93 84.5 54.02 84.85C51.27 82.99 49.06 83.54 46.44 85.17C44.38 85.08 41.46 85.41 39.52 85.08C38.85 84.96 38.28 84.53 37.61 84.38Z" fill="#2081F0" fill-opacity="1.000000" fill-rule="nonzero"/>
		<path id="Vector" d="M16.39 70.66C17 68.98 19.24 62.12 22.15 65.55C23.07 66.64 23.94 69.24 24.74 70.66C27.39 70.85 29.88 69.66 31.28 72.51C31.36 75.48 28.81 75.83 26.78 77.87C27.23 79.74 27.76 81.61 28.13 83.49C28.01 85.87 26.87 85.18 25.74 85.68C24.45 85.02 23.27 84.17 21.99 83.49C21.67 83.17 21.28 83 20.87 82.82C18.79 83.62 17.15 85.73 14.82 85.68C11.94 84.69 13.97 79.88 14.82 78.02C13.52 77.22 11.76 75.79 10.7 74.69C9.4 73.32 9.89 71.23 11.81 70.78C12.85 70.53 15.27 70.6 16.39 70.66ZM21.62 66.57C19.88 66.66 18.95 71.14 17.83 72.75C15.41 72.82 12.84 71.94 11.35 73.94C12.12 74.61 15.5 77.2 15.83 77.87C15.39 79.33 13.43 83.97 15.13 84.59C16.45 84.42 19.45 82.15 20.87 81.44C21.68 82 25.35 84.34 26.12 84.48C28.04 84.82 25.83 78.95 25.74 77.55C26.58 76.14 31.29 74.07 29.94 72.27C29.26 71.23 25.37 71.77 24.14 71.7C23.66 71.6 21.97 67.3 21.62 66.57ZM16.99 71.7C15.68 71.74 9.43 70.77 11.35 73.94C12.84 71.94 15.41 72.82 17.83 72.75C18.95 71.14 19.88 66.66 21.62 66.57C19.61 63.44 17.58 70.55 16.99 71.7Z" fill="#000000" fill-opacity="1.000000" fill-rule="nonzero"/>
		<path id="Vector" d="M21.62 66.57C21.97 67.3 23.66 71.6 24.14 71.7C25.37 71.77 29.26 71.23 29.94 72.27C31.29 74.07 26.58 76.14 25.74 77.55C25.83 78.95 28.04 84.82 26.12 84.48C25.35 84.34 21.68 82 20.87 81.44C19.45 82.15 16.45 84.42 15.13 84.59C13.43 83.97 15.39 79.33 15.83 77.87C15.5 77.2 12.12 74.61 11.35 73.94C12.84 71.94 15.41 72.82 17.83 72.75C18.95 71.14 19.88 66.66 21.62 66.57ZM15.13 84.59C13.43 83.97 15.39 79.33 15.83 77.87C18.15 78.09 15.4 83.04 15.13 84.59ZM24.14 71.7C24.24 72.12 24.47 72.44 24.74 72.75C26.04 72.81 28.85 72.91 29.94 72.27C29.26 71.23 25.37 71.77 24.14 71.7Z" fill="#20C84F" fill-opacity="1.000000" fill-rule="nonzero"/>
		<path id="Vector" d="M74.37 73.94L95.23 73.93C98.27 73.93 101.9 73.45 103.56 76.67C103.18 77.52 103.95 78.57 104.03 79.46C104.3 82.36 102.21 84.65 99.41 84.84C97.93 84.95 96.4 84.85 94.91 84.85L85.6 84.85C85.04 80.51 82.01 80.45 78.32 80.45L73.37 80.45C74.29 77.89 74.44 76.65 74.37 73.94Z" fill="#2081F0" fill-opacity="1.000000" fill-rule="nonzero"/>
		<path id="Vector" d="M115.46 69.98C115.79 68.93 116.87 66.03 117.45 65.17C118.31 63.92 119.96 63.81 120.83 65.07C121.66 66.28 122.49 69.15 123.15 70.66C125.77 70.66 128.84 69.69 129.76 72.51C129.14 74.92 126.7 75.83 125.24 77.66C125.3 77.99 125.36 78.31 125.46 78.62C125.89 80.24 127.95 84.73 125.32 85.44C124.84 85.58 124.38 85.3 123.92 85.41C122.91 84.98 121.66 84.12 120.74 83.49C120.59 83.44 120.44 83.38 120.3 83.32C119.18 83.88 118.12 84.56 117.07 85.24C115.41 86.32 114.35 87.43 112.79 85.68C109.89 83.55 111.94 81.02 112.79 77.87C111.04 76.71 106.91 74.65 108.49 72.06C109.42 70.55 113.54 70.46 115.46 69.98ZM120.3 66.11C118.27 66.5 118.15 70.38 116.89 71.97C114.54 72.92 110.99 72.09 109.83 74.38C110.53 74.89 113.85 77.08 113.99 77.66C113.49 79.07 111.56 83.39 112.79 84.38C113.99 85.12 117.62 81.78 119.15 81.2C120.47 81.82 121.76 82.72 123.01 83.47C128.18 86.59 124.05 79.71 124.14 77.61C124.21 76.14 127.9 74.39 128.52 72.75C126.99 72.78 125.45 72.77 123.92 72.75C123.58 72.45 123.37 72.09 123.15 71.7C121.52 70.77 120.92 67.81 120.3 66.11ZM109.83 74.38C110.99 72.09 114.54 72.92 116.89 71.97C118.15 70.38 118.27 66.5 120.3 66.11C118.52 62.31 116.74 70.34 115.92 70.9C115.15 71.42 110.94 71.44 109.63 72.19C108.88 72.62 109.05 74.04 109.83 74.38ZM123.15 71.7C123.37 72.09 123.58 72.45 123.92 72.75C125.45 72.77 126.99 72.78 128.52 72.75C128.76 70.98 124.4 71.7 123.15 71.7Z" fill="#000000" fill-opacity="1.000000" fill-rule="nonzero"/>
		<path id="Vector" d="M119.15 82.36C119.58 82.66 120.53 83.07 120.74 83.49C120.59 83.44 120.44 83.38 120.3 83.32C119.18 83.88 118.12 84.56 117.07 85.24C115.41 86.32 114.35 87.43 112.79 85.68C113.24 85.57 113.72 85.66 114.17 85.5C115.27 85.14 117.97 83.1 119.15 82.36Z" fill="#20C84F" fill-opacity="1.000000" fill-rule="nonzero"/>
		<path id="Vector" d="M120.29 66.11C120.92 67.81 121.52 70.77 123.15 71.7C123.37 72.09 123.58 72.45 123.92 72.75C125.45 72.77 126.98 72.78 128.52 72.75C127.9 74.39 124.21 76.14 124.14 77.61C124.05 79.71 128.18 86.59 123.01 83.48C121.76 82.72 120.47 81.82 119.15 81.2C117.62 81.78 113.99 85.12 112.79 84.38C111.56 83.39 113.49 79.07 113.99 77.66C113.85 77.08 110.53 74.89 109.83 74.38C110.99 72.09 114.54 72.92 116.89 71.97C118.15 70.38 118.27 66.5 120.29 66.11ZM113.99 77.66C113.49 79.07 111.56 83.39 112.79 84.38C113.7 83.4 115.09 79.17 114.86 78.14C114.64 77.85 114.32 77.78 113.99 77.66Z" fill="#20C84F" fill-opacity="1.000000" fill-rule="nonzero"/>
		<path id="Vector" d="M97.46 46.88C97.86 45.86 99.01 42.76 99.54 41.96C100.4 40.64 102.2 40.34 103.24 41.7C103.9 42.57 105.02 45.7 105.51 46.88C108.35 46.88 111.31 46.65 112.79 49.14C112.35 52.54 109.71 52.38 108.12 54.72L108.12 55.68L108.33 56.52C108.68 57.8 109.16 59.14 109.31 60.46C108.76 63.34 107.38 62.08 105.51 61.55C104.75 61.29 103.97 60.8 103.23 60.46C100.66 59.97 97.48 64.68 95.19 62.73C93.11 61.27 93.51 60.56 94.13 58.22L94.96 55.04C94.13 54.4 91.11 51.65 90.62 50.93C89.82 49.77 90.45 47.97 91.78 47.52C92.83 47.17 96.22 46.95 97.46 46.88ZM102.67 42.64C100.4 43.69 100.36 46.62 99.17 48.6C97.65 49.32 92.83 48.99 92.44 50.04C92.31 50.38 92.31 50.83 92.28 51.19C93.07 51.95 94.08 53.11 94.96 53.7C95.31 54.03 95.85 54.39 95.88 54.91C95.98 56.68 93.4 60.92 95.52 61.55C97.25 61.16 100.27 59.21 101.87 58.25C102.51 58.78 106.88 61.23 107.56 61.16C109.2 61 106.96 55.78 106.72 54.47C107.71 53.17 112.1 50.61 111.59 49.52C109.51 48.85 106.53 49.98 105.17 47.91C104.26 47.71 102.81 43.47 102.67 42.64ZM92.28 51.19C92.31 50.83 92.31 50.38 92.44 50.04C92.83 48.99 97.65 49.32 99.17 48.6C100.36 46.62 100.4 43.69 102.67 42.64C100.79 38.9 98.69 47.36 97.94 47.78C96.82 48.39 88.17 47.46 92.28 51.19ZM105.17 47.91C106.53 49.98 109.51 48.85 111.59 49.52C111.49 49.19 111.36 48.9 111.2 48.6C110.13 48.08 106.46 47.91 105.17 47.91Z" fill="#000000" fill-opacity="1.000000" fill-rule="nonzero"/>
		<path id="Vector" d="M101.87 59.47C102.33 59.79 102.79 60.11 103.23 60.46C100.66 59.97 97.48 64.68 95.19 62.73C96.75 62.49 100.53 60.41 101.87 59.47Z" fill="#20C84F" fill-opacity="1.000000" fill-rule="nonzero"/>
		<path id="Vector" d="M102.67 42.64C102.81 43.47 104.26 47.71 105.17 47.91C106.53 49.98 109.51 48.85 111.59 49.52C112.1 50.61 107.71 53.17 106.72 54.47C106.96 55.78 109.2 61 107.56 61.16C106.88 61.23 102.51 58.78 101.87 58.25C100.27 59.21 97.25 61.16 95.52 61.55C93.4 60.92 95.98 56.68 95.88 54.91C95.85 54.39 95.31 54.03 94.96 53.7C94.08 53.11 93.07 51.95 92.28 51.19C92.31 50.83 92.31 50.38 92.44 50.04C92.83 48.99 97.65 49.32 99.17 48.6C100.36 46.62 100.4 43.69 102.67 42.64ZM94.96 53.7C95.31 54.03 95.85 54.39 95.88 54.91C95.98 56.68 93.4 60.92 95.52 61.55C95.58 60.4 96.68 57.06 97.03 55.68C96.62 54.82 95.86 54.06 94.96 53.7Z" fill="#20C84F" fill-opacity="1.000000" fill-rule="nonzero"/>
		<path id="Vector" d="M34.08 47.07C35.05 45.02 36.47 39.88 38.95 40.7C40.43 41.18 41.89 45.48 42.64 47.07C43.69 47.01 44.76 47.05 45.81 47.06C48.09 47.08 49.49 46.87 49.88 49.52C49.39 51.44 46.14 53.73 44.77 55.24C45.28 57.54 47.76 61.7 43.96 62.4L43.72 62.45C42.33 61.7 40.99 60.88 39.57 60.19C37.85 61.04 34.12 64.4 32.26 62.45C31.35 61.54 30.31 61.06 30.55 59.58C30.73 58.43 31.82 56.29 32.26 55.04C31.02 54.2 27.44 51.29 27.45 49.65C27.45 46.31 31.88 47.01 34.08 47.07ZM39.57 42.64C37.88 42.72 36.59 47.43 35.82 49.07C33.35 49.46 30.15 48.25 29.21 50.85C30.13 51.96 32.98 54.02 33.43 55.04C32.81 56.54 30.55 59.93 32.26 60.95C32.54 61.06 32.83 61.13 33.13 61.21C34.3 60.89 37.09 58.96 38.55 58.25C39.55 58.82 43.22 61.22 44.11 61.26C46.06 61.34 43.76 56.14 43.72 55.15L43.72 55.04C44.84 52.96 48.18 51.44 48.87 49.14C48.15 47.39 44.38 48.02 42.64 48.05C41.27 47.97 39.76 43.63 39.57 42.64ZM34.77 47.91C33.87 48.06 25.73 47.46 29.21 50.85C30.15 48.25 33.35 49.46 35.82 49.07C36.59 47.43 37.88 42.72 39.57 42.64C37.52 38.97 35.8 46.46 34.77 47.91Z" fill="#000000" fill-opacity="1.000000" fill-rule="nonzero"/>
		<path id="Vector" d="M38.55 59.47C38.93 59.68 39.25 59.92 39.57 60.19C37.85 61.04 34.12 64.4 32.26 62.45C34.4 62.15 36.6 60.46 38.55 59.47Z" fill="#20C84F" fill-opacity="1.000000" fill-rule="nonzero"/>
		<path id="Vector" d="M39.57 42.64C39.76 43.63 41.27 47.97 42.64 48.05C44.38 48.02 48.15 47.39 48.87 49.14C48.18 51.44 44.84 52.96 43.72 55.04L43.72 55.15C43.76 56.14 46.06 61.34 44.11 61.26C43.22 61.22 39.55 58.82 38.55 58.25C37.09 58.96 34.3 60.89 33.13 61.21C32.83 61.13 32.54 61.06 32.26 60.95C30.55 59.93 32.81 56.54 33.43 55.04C32.98 54.02 30.13 51.96 29.21 50.85C30.15 48.25 33.35 49.46 35.82 49.07C36.59 47.43 37.88 42.72 39.57 42.64ZM33.43 55.04C32.81 56.54 30.55 59.93 32.26 60.95C32.79 60.25 34.15 56.94 34.52 56.02C34.19 55.66 33.8 55.35 33.43 55.04ZM42.64 48.05C43.13 49.96 46.97 49.15 48.87 49.14C48.15 47.39 44.38 48.02 42.64 48.05Z" fill="#20C84F" fill-opacity="1.000000" fill-rule="nonzero"/>
		<path id="Vector" d="M54.34 87.15C52.89 85.86 55.86 85.94 56.97 85.22C59.37 83.67 61.81 79.78 63.03 77.34C63.96 75.48 64.22 73.39 64.19 71.33C64.17 69.78 63.52 67.88 65.07 66.9C67.42 65.42 70.22 68.16 71.32 70.03C74.85 75.97 70.56 79.21 71.84 82.06L77.98 82.05C79.17 82.05 80.52 81.92 81.69 82.17C83.79 82.63 84.85 85.59 83.29 87.15C86.05 88.74 85.89 91.96 83.01 93.44C84.53 95.87 83.79 98.18 80.98 99.13C81.97 104.48 78.29 105.95 73.54 105.94L55.5 105.93C53.88 108.34 50.62 110.7 47.74 108.78C47.42 108.56 46.94 108.06 47.3 107.67C47.84 107.11 48.68 107.98 49.2 108.21C51.69 109.35 55.37 105.34 55.58 103.07C55.77 101.03 54.17 100.73 54.04 99.62C53.95 98.83 54.27 97.89 54.32 97.09C54.5 94.3 54.91 86.61 50.7 86.33C48.84 86.21 46.39 89.47 46.39 87.74C46.39 86.29 51.43 83.36 54.06 87.13C55.87 89.74 55.67 96.3 55.19 99.43C55.61 99.98 56.05 100.51 56.41 101.1C60.7 101.13 68.26 101.88 71.8 98.94C74.48 96.72 77.53 89.73 79.72 86.52C79.84 86.32 79.99 86.13 80.12 85.93C80.66 85.13 81.07 84.18 81.53 83.32C79.11 82.52 71.55 84.08 70.7 82.35C69.73 80.39 71.03 78.7 71.48 76.87C72.24 73.73 70.55 69.09 67.4 67.84C64.57 66.73 65.3 69.8 65.29 71.32C65.28 73.16 65.18 75.16 64.49 76.88C63.06 80.47 58.9 87.23 54.34 87.15Z" fill="#000000" fill-opacity="1.000000" fill-rule="nonzero"/>
		<path id="Vector" d="M82.07 94.24C84.37 97.08 80.74 98.44 77.95 97.97L77.87 97.95C78.47 97.92 78.42 97.68 78.65 97.18C80.41 96.68 81.88 96.39 82.07 94.24Z" fill="#9EC9F8" fill-opacity="1.000000" fill-rule="nonzero"/>
		<path id="Vector" d="M83.67 88.86C84.36 89.76 84.34 91.23 83.38 91.94C81.93 93 80.02 91.77 79.53 93.16C79.2 93.01 79.07 92.64 79.15 92.28C79.45 90.95 83.05 92.14 83.67 88.86Z" fill="#9EC9F8" fill-opacity="1.000000" fill-rule="nonzero"/>
		<path id="Vector" d="M81.53 83.32C82.31 83.59 82.71 84.12 83.01 84.85C83.05 86.23 82.21 86.81 80.98 87.15C80.72 86.75 80.15 86.63 79.72 86.52C79.84 86.32 79.99 86.13 80.12 85.93C80.66 85.13 81.07 84.18 81.53 83.32Z" fill="#EFF6FE" fill-opacity="1.000000" fill-rule="nonzero"/>
		<path id="Vector" d="M83.01 84.85C83.05 86.23 82.21 86.81 80.98 87.15C80.72 86.75 80.15 86.63 79.72 86.52C79.84 86.32 79.99 86.13 80.12 85.93C80.77 85.91 81.42 85.9 82.07 85.93C82.55 85.53 82.88 85.52 83.01 84.85Z" fill="#9EC9F8" fill-opacity="1.000000" fill-rule="nonzero"/>
		<path id="Vector" d="M79.04 99.13C80.27 99.48 80.38 100.66 80 101.78C78.93 104.88 75.72 104.83 73.05 104.83L56.41 104.82C56.51 104.28 56.62 103.75 56.7 103.21C56.89 103.86 60.67 103.38 61.47 103.36C65.7 103.29 69.96 103.47 74.18 103.05C77.07 102.76 78.09 101.99 79.04 99.13Z" fill="#9EC9F8" fill-opacity="1.000000" fill-rule="nonzero"/>
		<path id="Vector" d="M56.41 101.1C60.7 101.13 68.26 101.88 71.8 98.94C74.48 96.72 77.53 89.73 79.72 86.52C80.15 86.63 80.72 86.75 80.98 87.15C80.33 88.61 82.64 87.77 83.67 88.86C83.05 92.14 79.45 90.95 79.15 92.28C79.07 92.64 79.2 93.01 79.54 93.16C80.28 93.95 81.45 93.33 82.07 94.24C81.88 96.39 80.41 96.68 78.65 97.18C78.42 97.68 78.47 97.92 77.87 97.95C77.72 98.04 77.59 98.12 77.43 98.17C77.35 98.51 77.35 98.79 77.43 99.13C77.97 99.17 78.5 99.15 79.04 99.13C78.09 101.99 77.07 102.76 74.18 103.05C69.96 103.47 65.7 103.29 61.47 103.36C60.67 103.38 56.89 103.86 56.7 103.21C56.73 102.46 56.6 101.82 56.41 101.1Z" fill="#EFF6FE" fill-opacity="1.000000" fill-rule="nonzero"/>
		<path id="Vector" d="M64.18 37.98C65.17 36.01 66.82 31.87 67.96 30.25C68.84 28.98 70.93 28.88 71.86 30.17C72.88 31.59 74.94 36.35 75.62 37.98C77.21 38.12 83.27 38.13 84.27 38.64C85.29 39.16 85.63 40.12 85.99 41.12C85.38 43.05 84.94 43.29 83.34 44.57L80.25 47.05C79.71 47.49 79.12 47.92 78.65 48.44C78.75 49.03 78.85 49.61 79.04 50.18C79.38 51.86 80.8 56.09 80.62 57.5C80.13 58.73 79.35 59.13 78.17 59.47C77.07 59.38 71.97 55.85 70.73 55.04C69.48 56.15 67.75 56.93 66.32 57.8C65.01 58.59 62.83 60.6 61.23 59.47C60.97 59.3 60.63 59.2 60.36 59.05C58.02 57.76 59.48 54.88 59.97 52.9C60.29 51.57 60.48 49.58 61.23 48.44C59.4 47.18 54.1 43.5 54.21 41.26C54.26 40.07 55.05 38.92 56.23 38.61C57.23 38.35 63.13 37.9 64.18 37.98ZM56.99 43.66C58.01 44.66 62.15 47.45 62.18 48.6C62.63 49.01 62.97 49.38 63.27 49.92C62.77 51.46 61.26 56.85 61.23 58.25C63.08 58.04 67.72 54.02 69.93 53.29L70.05 53.33C72.16 54.08 75.16 56.93 77.58 58.03C78.6 58.5 79.15 58 79.54 57.03C78.92 54.07 77.85 50.98 77.43 48.05C79.23 45.68 84.51 43.51 84.67 40.88C84.19 38.82 82.02 39.31 80.35 39.24L75.62 39.04C74.59 38.87 74.36 37.72 73.97 36.89L72.28 33.31C71.93 32.58 71.62 31.81 71.19 31.12C69.66 31.36 69.2 33.15 68.64 34.39L67.01 37.92C65.81 40.43 65.63 40.24 63.09 40.41L59.43 40.65C56.42 40.86 56 40.95 56.99 43.66ZM69.93 30.28C67.75 30.96 66.6 36.22 65.07 38.52C64.38 39.55 58.28 39 56.41 39.66C54.12 40.46 55.57 42.67 56.99 43.66C56 40.95 56.42 40.86 59.43 40.65L63.09 40.41C65.63 40.24 65.81 40.43 67.01 37.92L68.64 34.39C69.2 33.15 69.66 31.36 71.19 31.12C70.88 30.58 70.5 30.4 69.93 30.28ZM62.18 48.6C61.57 50.28 60.34 54.89 60.14 56.79C60.04 57.72 60.29 58.05 61.23 58.25C61.26 56.85 62.77 51.46 63.27 49.92C62.97 49.38 62.63 49.01 62.18 48.6Z" fill="#000000" fill-opacity="1.000000" fill-rule="nonzero"/>
		<path id="Vector" d="M61.23 59.47C63.75 58.82 67.39 55.75 69.93 54.47C70.23 54.64 70.5 54.79 70.73 55.04C69.48 56.15 67.76 56.93 66.32 57.8C65.01 58.59 62.83 60.6 61.23 59.47Z" fill="#20C84F" fill-opacity="1.000000" fill-rule="nonzero"/>
		<path id="Vector" d="M56.99 43.66C56 40.95 56.42 40.86 59.43 40.65L63.09 40.41C65.63 40.24 65.81 40.43 67.01 37.92L68.64 34.39C69.2 33.15 69.66 31.36 71.19 31.12C71.62 31.81 71.93 32.58 72.28 33.31L73.97 36.89C74.36 37.72 74.59 38.87 75.62 39.04L80.35 39.24C82.02 39.31 84.19 38.82 84.67 40.88C84.51 43.51 79.23 45.68 77.43 48.05C77.85 50.98 78.92 54.07 79.54 57.03C79.15 58 78.6 58.5 77.58 58.03C75.16 56.93 72.16 54.08 70.05 53.33L69.93 53.29C67.72 54.02 63.08 58.04 61.23 58.25C61.26 56.85 62.77 51.46 63.27 49.92C62.97 49.38 62.63 49.01 62.18 48.6C62.15 47.45 58.01 44.66 56.99 43.66ZM75.62 39.04C75.47 39.46 76.04 40.03 76.3 40.3C78.72 40.73 82.52 40.02 84.67 40.88C84.19 38.82 82.02 39.31 80.35 39.24L75.62 39.04Z" fill="#20C84F" fill-opacity="1.000000" fill-rule="nonzero"/>
	</g>
</svg>
