<svg width="140.000000" height="140.000000" viewBox="0 0 140 140" fill="none" xmlns="http://www.w3.org/2000/svg" xmlns:xlink="http://www.w3.org/1999/xlink">
	<desc>
			Created with Pixso.
	</desc>
	<defs>
		<clipPath id="clip129_3424">
			<rect id="background-checked-technicians 1" rx="0.000000" width="139.000000" height="139.000000" transform="translate(0.500000 0.500000)" fill="white" fill-opacity="0"/>
		</clipPath>
		<linearGradient x1="73.479729" y1="98.979599" x2="74.772430" y2="99.083435" id="paint_linear_129_3430_0" gradientUnits="userSpaceOnUse">
			<stop stop-color="#0CC177"/>
			<stop offset="1.000000" stop-color="#03AA85"/>
		</linearGradient>
	</defs>
	<rect id="background-checked-technicians 1" rx="0.000000" width="139.000000" height="139.000000" transform="translate(0.500000 0.500000)" fill="#FFFFFF" fill-opacity="0"/>
	<g clip-path="url(#clip129_3424)">
		<path id="Vector" d="M78.54 74.85C80.44 73.6 83.24 72.1 85.58 72.26L85.65 72.42C85.83 72.48 86 72.49 86.18 72.51C83.53 72.93 80.79 74.52 78.85 76.34C78.79 75.83 78.64 75.35 78.54 74.85Z" fill="#2081F0" fill-opacity="1.000000" fill-rule="nonzero"/>
		<path id="Vector" d="M34.34 78.27C34.97 78.11 35.16 78.24 35.19 78.86C35.26 79.96 35.54 84.32 34.91 85.03C32.99 85.03 34.28 78.33 34.34 78.27Z" fill="#000201" fill-opacity="1.000000" fill-rule="nonzero"/>
		<path id="Vector" d="M72.92 105.28C73.25 105.39 73.56 105.53 73.87 105.67C70.92 113.25 65.54 118.34 57.39 119.72C56.54 119.87 55.55 119.83 54.73 120.07C54.64 119.94 54.55 119.87 54.43 119.77C54.83 119.5 59.28 118.55 60.56 118.02C66.32 115.62 70.58 110.97 72.92 105.28Z" fill="#20C84F" fill-opacity="1.000000" fill-rule="nonzero"/>
		<path id="Vector" d="M74.17 93.63C77.19 90.53 76.36 87.36 76.35 83.3C76.35 81.39 76.38 79.48 76.35 77.57C76.2 69.18 69.76 64.07 62.15 62.38C61.61 62.26 60.08 62.32 60.5 61.34C61.09 60.81 62.62 61.38 63.29 61.53C68.5 62.72 73.03 65.7 75.61 70.42C77.82 74.46 77.49 78.18 77.49 82.58C77.49 86.14 78.29 92.63 74.47 94.6C74.45 94.23 74.37 93.94 74.17 93.63Z" fill="#000201" fill-opacity="1.000000" fill-rule="nonzero"/>
		<path id="Vector" d="M81.68 55.96C81.7 51.97 82.84 51.86 80.02 50.68C66.39 44.96 66.49 26.09 80.2 20.67C88.18 17.52 97.29 21.29 101.02 28.92C101.49 29.88 101.81 30.94 102.2 31.93C105.4 39.84 100.94 48.05 93.23 51.15C92.4 51.48 91.28 51.58 90.55 51.96C90.58 53.35 90.52 54.75 90.55 56.15C92.19 57.31 92.09 59.21 92.07 61.01C94.48 61.69 97.75 62.7 99.6 64.46C101.26 63.15 102.72 62.05 104.65 63.51C105.29 63.99 108.67 67.4 109.09 67.98C110.39 69.8 108.97 71.23 107.72 72.51C108.6 74.65 109.63 76.48 110.18 78.78C113.01 78.56 115.02 78.82 115.17 82.12C115.39 87.17 116.26 90.36 110.18 90.3C109.52 92.94 108.62 94.75 107.41 97.17C108.95 98.39 110.2 100.26 108.75 102.06C108 102.98 104.17 106.75 103.21 107.41C101.42 108.63 99.88 106.59 98.54 105.67C95.99 106.7 94.69 107.76 91.59 108.66C91.65 109.67 91.55 110.69 91.59 111.7C90.38 113.05 87.47 112.49 85.65 112.5C80.54 112.51 78.49 113.53 78.54 107.57C76.97 106.97 75.4 106.36 73.87 105.67C73.56 105.53 73.25 105.39 72.92 105.28C70.58 110.97 66.32 115.62 60.56 118.02C59.28 118.55 54.84 119.5 54.43 119.77C53.19 119.79 51.96 119.81 50.72 119.77C41.2 119.27 32.42 110.75 31.13 101.4C30.9 99.72 30.96 98.02 30.96 96.33C24.23 92.86 24.69 89.26 24.68 82.2C24.67 80.48 24.57 78.75 24.71 77.03C25.4 68.21 32.79 61.54 41.5 61.01C41.17 60.29 40.75 59.61 40.38 58.91C37.54 53.36 36.69 46.18 40.11 40.69C43.76 34.82 51.24 32.59 57.21 36.42C68.27 43.54 63.97 64.07 51.3 66.8C52.41 68.05 53.63 69.19 54.73 70.45C55.74 69.18 58.4 64.95 59.36 64.19C59.92 63.75 60.37 64.42 60.09 64.96C59.72 65.67 58.38 67.29 57.84 68.05C57.29 68.81 55.4 72.41 54.49 71.74C53.34 70.89 51.82 68.94 50.72 67.85C50.05 68.51 47.31 71.77 46.69 71.9C46.34 71.97 42.37 66.45 41.51 65.09C41.32 64.78 41.21 64.43 41.51 64.14C42.29 63.39 46.13 69.55 46.71 70.45C47.86 69.23 49.01 67.84 50.33 66.8C46.82 66.13 44.55 64.82 42.41 61.92C40.32 62.26 38.34 62.49 36.33 63.25C30.78 65.35 26.75 70.46 25.94 76.32C25.64 78.51 25.83 80.73 25.83 82.93C25.85 88.36 25.11 92.34 31.24 95.1C33.87 79.7 51.43 72.17 64.2 80.88C65.24 81.58 66.15 82.44 67.13 83.22C67.13 82.4 66.98 78.71 67.28 78.21C69.17 76.89 68.26 84.65 68.08 85.03C68.23 85.55 68.95 85.95 69.28 86.36C71.23 88.2 72.91 90.26 73.66 92.88C73.76 93.07 73.94 93.58 74.17 93.63C74.37 93.94 74.45 94.23 74.47 94.6C74.5 95.2 74.67 95.76 74.85 96.33C75.98 95.99 77.75 93.46 78.2 92.39C78.29 92 78.39 91.62 78.54 91.25C79.13 91.67 79.65 92.18 80.25 92.59C84.45 95.43 90.52 94.75 94.05 91.14C101.4 83.61 95.61 72.02 85.58 72.26C83.24 72.1 80.44 73.6 78.54 74.85C78.53 74.48 78.54 74.11 78.45 73.76C77.62 69.83 76.51 68.58 74.17 65.74C75.96 64.32 79.12 63.21 81.34 62.79C81.05 58.62 81.46 58.31 85.24 58.31C87.11 58.31 89.02 58.4 90.88 58.31C90.57 57.35 89.95 57.1 88.98 57.05C87.44 56.97 82.93 56.81 81.45 57.06C79.64 57.37 80.21 60.68 80.18 61.92C76.96 62.74 75.76 63.66 72.86 64.83C70.28 63.95 77.74 61.4 79.15 61.01C79.19 58.93 78.94 56.25 81.68 55.96ZM34.91 108.42C35.24 109.09 35.71 109.71 36.16 110.31C41.21 117.03 49.44 120.21 57.7 117.97C70.21 114.58 76.92 99.89 70.47 88.41C70.09 87.75 69.44 87.12 69.28 86.36C68.95 85.95 68.23 85.55 68.08 85.03C67.31 84.79 65.02 82.46 63.56 81.72C62.67 81.66 61.73 80.89 60.92 80.54C50.52 76.05 38.64 82.37 34.79 92.84C33.25 97.03 33.21 101.3 34.18 105.66C34.33 106.31 34.88 107.91 34.91 108.42ZM90.88 58.31C89.02 58.4 87.11 58.31 85.24 58.31C81.46 58.31 81.05 58.62 81.34 62.79C79.12 63.21 75.96 64.32 74.17 65.74C76.51 68.58 77.62 69.83 78.45 73.76C78.54 74.11 78.53 74.48 78.54 74.85C80.44 73.6 83.24 72.1 85.58 72.26C95.61 72.02 101.4 83.61 94.05 91.14C90.52 94.75 84.45 95.43 80.25 92.59C79.65 92.18 79.13 91.67 78.54 91.25C78.39 91.62 78.29 92 78.2 92.39C77.75 93.46 75.98 95.99 74.85 96.33C74.73 99.69 74.58 101.15 74.17 104.45L74.26 104.51C75.37 105.24 76.85 105.67 78.08 106.16C79.4 106.69 79.74 106.64 79.69 108.17C79.67 109.64 79.47 110.87 81.07 111.43C81.93 111.57 82.96 111.44 83.85 111.44L90.55 111.43L90.55 107.86C91.85 107.29 93.41 107.02 94.83 106.4C96.11 105.85 97.23 104.92 98.54 104.45C99.61 105.04 100.77 106.5 101.91 106.74C102.65 106.89 107.99 101.61 108.23 100.22C108.15 99.47 107.36 98.79 106.86 98.28L106.72 98.08C106.51 97.77 106.38 97.51 106.25 97.17C106.42 96.17 108.01 93.46 108.5 92C109.59 88.78 108.27 89.03 111.68 89.05C114.34 89.08 113.97 87.15 113.96 85.22L113.95 81.21C113.39 79.94 112.41 79.8 111.11 79.85C110.45 79.86 109.8 79.88 109.15 79.85C108.55 76.27 107.59 75.28 106.29 72.36L106.25 72.26C107.11 71.29 109.1 70.16 108.13 68.68C107.77 68.14 106.21 66.51 105.68 66.06C105.16 65.89 104.79 65.46 104.24 65.31C102.92 64.97 102.1 66.27 101.06 66.8C100.71 66.52 100.3 66.3 99.92 66.06C99.16 65.18 97.91 64.5 96.86 64.03C94.99 63.09 92.95 62.31 90.88 61.92C90.95 60.73 90.86 59.51 90.88 58.31ZM75.44 46.27C75.93 46.98 76.78 47.57 77.48 48.04C88.83 55.68 103.88 45.78 101.07 32.57C100.3 28.95 97.99 25.4 94.86 23.36C94.33 23.29 93.92 22.98 93.44 22.76C88.82 20.69 83.28 21.27 79.05 24.02C72.53 28.23 69.86 37.85 74.23 44.42C74.62 45.01 75.16 45.61 75.44 46.27ZM49.68 35.62C32.72 38.33 38.18 66.06 51.8 65.74C52.8 65.31 53.84 64.93 54.78 64.36C61.32 60.44 64.2 49.78 61.28 42.95C59.34 38.4 54.68 35.2 49.68 35.62ZM34.91 108.42C34.88 107.91 34.33 106.31 34.18 105.66C33.21 101.3 33.25 97.03 34.79 92.84C38.64 82.37 50.52 76.05 60.92 80.54C61.73 80.89 62.67 81.66 63.56 81.72C62.6 81.15 61.64 80.56 60.62 80.09C43.19 72.09 24.97 91.37 34.91 108.42ZM75.44 46.27C75.16 45.61 74.62 45.01 74.23 44.42C69.86 37.85 72.53 28.23 79.05 24.02C83.28 21.27 88.82 20.69 93.44 22.76C93.92 22.98 94.33 23.29 94.86 23.36C83.49 15.75 68.52 25.42 71.26 38.75C71.81 41.43 73.36 44.46 75.44 46.27ZM99.92 66.06C100.3 66.3 100.71 66.52 101.06 66.8C102.1 66.27 102.92 64.97 104.24 65.31C104.79 65.46 105.16 65.89 105.68 66.06L105.51 65.88C102.74 62.86 102.55 63.61 99.98 66L99.92 66.06ZM82.77 51.55C82.77 53.11 82.05 55.85 83.55 55.96L83.74 55.9C83.96 55.37 83.85 52.51 83.83 51.77C83.48 51.7 83.13 51.61 82.77 51.55Z" fill="#000201" fill-opacity="1.000000" fill-rule="nonzero"/>
		<path id="Vector" d="M73.66 92.88C73.76 93.07 73.94 93.58 74.17 93.63C74.37 93.94 74.45 94.23 74.47 94.6C74.5 95.2 74.67 95.76 74.85 96.33C74.73 99.69 74.58 101.15 74.17 104.45C73.87 104.36 73.57 104.24 73.28 104.12C74.07 101.27 74.41 98.57 74.09 95.61C74.01 94.89 73.56 93.51 73.66 92.88Z" fill="url(#paint_linear_129_3430_0)" fill-opacity="1.000000" fill-rule="nonzero"/>
		<path id="Vector" d="M102.2 31.93C105.4 39.84 100.94 48.05 93.23 51.15C92.4 51.48 91.28 51.58 90.55 51.96C90.58 53.35 90.52 54.75 90.55 56.15C89.38 56.07 89.89 53.03 89.89 51.96C89.81 51.89 89.68 51.83 89.58 51.77C88.34 51.89 88.94 54.71 88.95 55.96C87.15 55.96 85.35 55.94 83.55 55.96L83.74 55.9C83.96 55.37 83.85 52.51 83.83 51.77C85.98 51.76 87.39 51.77 89.58 51.55C90.32 51.25 91.11 51.06 91.87 50.79C98 48.6 102.39 42.28 102.46 35.82C102.47 34.59 101.94 33.12 102.2 31.93Z" fill="#2081F0" fill-opacity="1.000000" fill-rule="nonzero"/>
		<path id="Vector" d="M75.44 46.27C75.16 45.61 74.62 45.01 74.23 44.42C69.86 37.85 72.53 28.23 79.05 24.02C83.28 21.27 88.82 20.69 93.44 22.76C93.92 22.98 94.33 23.29 94.86 23.36C97.99 25.4 100.3 28.95 101.07 32.57C103.88 45.78 88.83 55.68 77.48 48.04C76.78 47.57 75.93 46.98 75.44 46.27ZM79.15 43.34C79.87 43.8 80.53 44.33 81.28 44.74C89.23 49.14 98.5 41.34 95.82 32.85C95.56 32.02 95.14 31.25 94.9 30.42L94.86 30.3C94.13 29.84 93.76 29.02 93.13 28.45C84.65 20.75 71.01 30.62 77.62 41.37C77.91 41.83 79.09 42.96 79.15 43.34ZM94.86 30.3L94.9 30.42C95.14 31.25 95.56 32.02 95.82 32.85C98.5 41.34 89.23 49.14 81.28 44.74C80.53 44.33 79.87 43.8 79.15 43.34C79.39 43.71 79.78 43.95 80.1 44.23C86.05 49.39 96.68 46.38 97.22 37.84C97.37 35.48 96.46 32.12 94.86 30.3Z" fill="#2081F0" fill-opacity="1.000000" fill-rule="nonzero"/>
		<path id="Vector" d="M79.15 43.34C79.09 42.96 77.91 41.83 77.62 41.37C71.01 30.62 84.65 20.75 93.13 28.45C93.76 29.02 94.13 29.84 94.86 30.3L94.9 30.42C95.14 31.25 95.56 32.02 95.82 32.85C98.5 41.34 89.23 49.14 81.28 44.74C80.53 44.33 79.87 43.8 79.15 43.34ZM77.49 37.61C77.07 43.75 89.23 48.63 93.99 40.29C96.24 36.35 95.19 30.89 91.24 28.46C90.61 28.07 89.92 27.81 89.28 27.45L89.23 27.42C88.34 27.42 87.43 27.32 86.54 27.37C81.53 27.61 77.43 31.68 77.49 36.76C77.49 37.04 77.58 37.35 77.49 37.61Z" fill="#000201" fill-opacity="1.000000" fill-rule="nonzero"/>
		<path id="Vector" d="M77.49 37.61C76.29 35.35 77.42 32.2 78.85 30.31C80.75 27.79 86.57 25.38 89.23 27.42C88.34 27.42 87.43 27.32 86.54 27.37C81.53 27.61 77.43 31.68 77.49 36.76C77.5 37.04 77.58 37.35 77.49 37.61Z" fill="#2081F0" fill-opacity="1.000000" fill-rule="nonzero"/>
		<path id="Vector" d="M90.88 58.31C90.86 59.51 90.95 60.73 90.88 61.92C92.95 62.31 94.99 63.09 96.86 64.03C97.91 64.5 99.16 65.18 99.92 66.06C100.3 66.3 100.71 66.52 101.06 66.8C102.1 66.27 102.92 64.97 104.24 65.31C104.79 65.46 105.16 65.89 105.68 66.06C106.21 66.51 107.77 68.14 108.13 68.68C109.1 70.16 107.11 71.29 106.25 72.26L106.29 72.36C107.59 75.28 108.55 76.27 109.15 79.85C109.8 79.88 110.45 79.86 111.11 79.85C112.41 79.8 113.39 79.94 113.95 81.21L113.96 85.22C113.97 87.15 114.34 89.08 111.68 89.05C108.27 89.03 109.59 88.78 108.5 92C108.01 93.46 106.42 96.17 106.25 97.17C106.38 97.51 106.51 97.77 106.72 98.08L106.86 98.28C107.36 98.79 108.15 99.47 108.23 100.22C107.99 101.61 102.65 106.89 101.91 106.74C100.77 106.5 99.61 105.04 98.54 104.45C97.23 104.92 96.11 105.85 94.83 106.4C93.41 107.02 91.85 107.29 90.55 107.86L90.55 111.43L83.85 111.44C82.96 111.44 81.93 111.57 81.07 111.43C79.47 110.87 79.67 109.64 79.69 108.17C79.74 106.64 79.4 106.69 78.08 106.16C76.85 105.67 75.37 105.24 74.26 104.51L74.17 104.45C74.58 101.15 74.73 99.69 74.85 96.33C75.98 95.99 77.75 93.46 78.2 92.39C78.29 92 78.39 91.62 78.54 91.25C79.13 91.67 79.65 92.18 80.25 92.59C84.45 95.43 90.52 94.75 94.05 91.14C101.4 83.61 95.61 72.02 85.58 72.26C83.24 72.1 80.44 73.6 78.54 74.85C78.53 74.48 78.54 74.11 78.45 73.76C77.62 69.83 76.51 68.58 74.17 65.74C75.96 64.32 79.12 63.21 81.34 62.79C81.05 58.62 81.46 58.31 85.24 58.31C87.11 58.31 89.02 58.4 90.88 58.31ZM96.12 76.1C100.07 82.23 98.99 89.72 92.63 93.73C87.73 96.83 83.77 95.45 79.15 93.32C79.41 93.76 80.79 94.57 81.26 94.83C90.99 100.39 102.19 91.19 99.2 80.87C98.8 79.47 97.43 76.82 96.12 76.1ZM111.11 79.85C110.79 79.89 110.5 79.88 110.18 79.85L110.5 81.21C111.65 81.16 112.81 81.29 113.95 81.21C113.39 79.94 112.41 79.8 111.11 79.85ZM79.69 108.17C79.67 109.64 79.47 110.87 81.07 111.43L81.13 111.37C81.26 109.95 81.4 108.42 79.69 108.17ZM90.88 61.92C90.87 62.1 90.84 62.17 90.95 62.32C91.67 62.5 96.64 64.05 96.86 64.03C94.99 63.09 92.95 62.31 90.88 61.92ZM106.86 98.28C106.86 98.74 107.58 100.23 108.16 100.26L108.23 100.22C108.15 99.47 107.36 98.79 106.86 98.28Z" fill="#2081F0" fill-opacity="1.000000" fill-rule="nonzero"/>
		<path id="Vector" d="M78.45 73.76C83.27 70.17 90.33 70.2 94.71 74.51C95.06 74.85 95.87 75.92 96.12 76.1C100.07 82.23 98.99 89.72 92.63 93.73C87.73 96.83 83.77 95.45 79.15 93.32C79.06 93.04 78.42 92.59 78.2 92.39C78.29 92 78.39 91.62 78.54 91.25C79.13 91.67 79.65 92.18 80.25 92.59C84.45 95.43 90.52 94.75 94.05 91.14C101.4 83.61 95.61 72.02 85.58 72.26C83.24 72.1 80.44 73.6 78.54 74.85C78.53 74.48 78.54 74.11 78.45 73.76Z" fill="#000201" fill-opacity="1.000000" fill-rule="nonzero"/>
		<path id="Vector" d="M34.91 108.42C34.88 107.91 34.33 106.31 34.18 105.66C33.21 101.3 33.25 97.03 34.79 92.84C38.64 82.37 50.52 76.05 60.92 80.54C61.73 80.89 62.67 81.66 63.56 81.72C65.02 82.46 67.31 84.79 68.08 85.03C68.23 85.55 68.95 85.95 69.28 86.36C69.44 87.12 70.09 87.74 70.47 88.41C76.92 99.89 70.21 114.58 57.7 117.97C49.44 120.21 41.21 117.03 36.16 110.31C35.71 109.71 35.24 109.09 34.91 108.42ZM65.71 88.26C63.6 88.8 60.87 92.08 59.35 93.59L50.91 101.95C50.07 102.77 49.31 103.67 48.45 104.45C47.13 103.05 43.28 98.99 41.99 98.17C39.91 96.83 36.81 99.17 36.77 101.45C36.74 103.38 39.22 105.07 40.42 106.41L42.99 109.03C45.91 112.06 48.12 114.45 51.86 110.72L66.4 96.25C67.28 95.38 69.37 93.81 69.63 92.56C70.08 90.43 67.83 88.09 65.71 88.26Z" fill="#20C84F" fill-opacity="1.000000" fill-rule="nonzero"/>
		<path id="Vector" d="M65.71 89.49C67.43 89.36 69.68 91.37 67.66 93.44C66.35 94.79 64.96 96.06 63.62 97.37L52.44 108.43C48.51 112.34 47.86 112.19 44.35 108.63L40.68 104.88C39.65 103.81 37.3 102.19 38.46 100.47C40.28 97.75 41.96 99.72 43.44 101.23C44.99 102.82 46.65 104.77 48.45 106.05C49.63 105.33 51.74 102.97 52.8 101.92L62.3 92.57C63.23 91.66 64.6 90.03 65.71 89.49Z" fill="#000201" fill-opacity="1.000000" fill-rule="nonzero"/>
		<path id="Vector" d="M65.95 90.3C66.7 90.4 67.22 91.37 67.56 91.97C64.1 96.1 58.41 101.19 54.47 104.99C52.93 106.47 51.34 108.41 49.68 109.67C47.48 111.36 45.77 108.58 44.38 107.14C43.16 105.88 41.92 104.64 40.68 103.4C40.09 102.81 39.46 102.19 39.03 101.47C39.41 100.81 40.26 99.92 41.12 100.19C42.68 100.67 46.57 105.14 48.35 106.64C49.34 107.47 50.27 105.75 51.08 104.94L62.76 93.46C63.79 92.43 64.76 91.28 65.88 90.35L65.95 90.3Z" fill="#20C84F" fill-opacity="1.000000" fill-rule="nonzero"/>
	</g>
</svg>
