<svg width="140.000000" height="140.000000" viewBox="0 0 140 140" fill="none" xmlns="http://www.w3.org/2000/svg" xmlns:xlink="http://www.w3.org/1999/xlink">
	<desc>
			Created with Pixso.
	</desc>
	<defs>
		<clipPath id="clip129_3377">
			<rect id="90-day-service-guaranted" rx="0.000000" width="139.000000" height="139.000000" transform="translate(0.500000 0.500000)" fill="white" fill-opacity="0"/>
		</clipPath>
	</defs>
	<rect id="90-day-service-guaranted" rx="0.000000" width="139.000000" height="139.000000" transform="translate(0.500000 0.500000)" fill="#FFFFFF" fill-opacity="0"/>
	<g clip-path="url(#clip129_3377)">
		<path id="Vector" d="M26.59 69.16C26.79 69.16 29.66 68.97 28.7 69.99C28.34 70.37 24.92 70.2 24.14 70.2C24 70.21 20.72 70.43 21.92 69.34C22.32 68.97 25.9 69.17 26.59 69.16Z" fill="#000000" fill-opacity="1.000000" fill-rule="nonzero"/>
		<path id="Vector" d="M43.49 31.98C44.65 31.93 47.37 37.81 47.37 37.86C47.37 38.11 47.15 38.26 46.98 38.4C46.08 38.47 43.25 32.95 43.23 32.54C43.22 32.28 43.34 32.15 43.49 31.98Z" fill="#000000" fill-opacity="1.000000" fill-rule="nonzero"/>
		<path id="Vector" d="M96.29 31.98C98.18 32.4 93.67 38.34 93.31 38.68C93.03 38.63 92.84 38.54 92.6 38.4C92.89 36.96 95.19 32.63 96.29 31.98Z" fill="#000000" fill-opacity="1.000000" fill-rule="nonzero"/>
		<path id="Vector" d="M110.98 69.38C112.33 69.38 119.27 68.41 118.08 70.54C117.5 70.64 111.6 70.59 111.09 70.44C110.72 70.13 110.83 69.79 110.98 69.38Z" fill="#000000" fill-opacity="1.000000" fill-rule="nonzero"/>
		<path id="Vector" d="M27.79 47.92C28.88 47.87 30.15 48.88 31.1 49.36C32.16 49.9 35.08 50.7 34.43 51.94C33.35 52.26 27.75 48.85 27.69 48.73C27.58 48.46 27.71 48.17 27.79 47.92Z" fill="#000000" fill-opacity="1.000000" fill-rule="nonzero"/>
		<path id="Vector" d="M112.15 47.92C114.77 48.83 106.46 51.84 105.9 51.94C103.49 50.82 111.29 48.3 112.15 47.92Z" fill="#000000" fill-opacity="1.000000" fill-rule="nonzero"/>
		<path id="Vector" d="M118.08 89.92C120.59 90.93 116.73 94.7 115.89 95.84C115.11 96.9 115.13 96.91 114.98 98.14C112.71 96.56 115.24 94.09 116.28 92.61C116.9 91.73 117.46 90.81 118.08 89.92Z" fill="#20C84F" fill-opacity="1.000000" fill-rule="nonzero"/>
		<path id="Vector" d="M51.45 101.29C53.21 104.78 50.78 104.72 48.57 105.24C46.17 105.8 43.77 107.06 41.59 108.17C39.82 109.07 38.05 110.45 36.08 109.21C36.62 109.03 37.2 109.08 37.76 108.86C41.23 107.49 43.5 105.83 47.5 104.65C50.2 103.86 50.99 104.36 51.45 101.29Z" fill="#20C84F" fill-opacity="1.000000" fill-rule="nonzero"/>
		<path id="Vector" d="M121.65 104.1C125.01 107.24 120 106.03 118.38 105.93C114.77 105.68 112.08 105.57 109.04 107.77C107.02 109.23 105.98 110.77 103.4 108.99C103.7 108.83 105.1 108.7 105.72 108.43C106.94 107.9 107.99 106.9 109.17 106.25C111.95 104.72 115.61 104.87 118.6 105.74C120.41 105.39 121.13 106.37 121.65 104.1Z" fill="#20C84F" fill-opacity="1.000000" fill-rule="nonzero"/>
		<path id="Vector" d="M42.08 84.34C39.34 78.44 38.22 73.49 38.99 66.83C40.82 50.95 55.21 39.18 71 39.64C80.21 39.91 89.37 44.66 95.03 51.94C96.06 52.76 96.83 53.97 97.55 55.06C102.99 63.29 104.49 73.57 101.03 82.9C100.72 83.73 100.39 84.61 99.94 85.38C101.15 87.14 101.02 89.06 103.61 89.54C108.42 90.44 115.52 85.02 117.55 87.99C117.91 88.52 118.14 89.28 118.08 89.92C117.46 90.81 116.9 91.73 116.28 92.61C115.24 94.09 112.71 96.56 114.98 98.14C116.64 99.84 121.26 102.08 121.65 104.1C121.13 106.37 120.41 105.39 118.6 105.74C115.61 104.87 111.95 104.72 109.17 106.25C107.99 106.9 106.94 107.9 105.72 108.43C105.1 108.7 103.7 108.83 103.4 108.99C100.72 108.5 95.7 106.01 92.86 104.97C89.97 103.91 88.44 103 88.89 99.59C78.65 97.02 61.55 96.47 51.11 99.59C51.24 100.15 51.34 100.72 51.45 101.29C50.99 104.36 50.2 103.86 47.5 104.65C43.5 105.83 41.23 107.49 37.76 108.86C37.2 109.08 36.62 109.03 36.08 109.21C33.14 108.72 30.78 105.7 27.81 105.13C25.24 104.63 20 106.68 18.71 105.09C17.26 103.29 19.7 101.94 20.9 101.08C22.78 99.72 24.77 98.42 26.59 96.97C25.58 94.35 19.42 89.37 22.72 87.05C25.83 84.85 32.27 93.25 39.6 88.14C39.34 86 40.11 85.2 42.08 84.34ZM101.6 89.92C101.09 90.12 100.84 90.87 100.64 91.34L97.18 99.34C96.11 101.81 96.03 103.37 93.01 103.91C93.56 104.23 94.18 104.36 94.77 104.57C96.77 105.26 101.74 107.78 103.29 107.87C106.33 108.05 108.62 103.77 114.2 104.06C116.63 104.19 124.09 106.1 118.65 102.25C117.2 101.22 114.5 99.48 113.56 98.09C111.48 95.03 116.48 92 117.02 89.16C115.52 85.24 107.78 93.2 101.6 89.92ZM43.08 84.02C43.37 83.94 43.67 83.83 43.97 83.77C41.26 77.31 40.33 71.46 41.88 64.56C45.68 47.58 63.18 38.37 79.64 42.74C81.56 43.25 84.21 44.73 85.58 44.99C78.9 40.91 70.74 39.64 63.12 41.47C44.18 46.03 34.27 66.85 43.08 84.02ZM40.45 87.13C41.01 89.94 44.19 97.55 45.72 99.8L46.64 99.59C45.92 97.56 41.78 89.1 42.11 87.62C42.44 86.12 49.15 84.75 50.52 84.43C65.92 80.87 84.49 82.09 99.51 86.52C98.24 84.89 96.09 84.62 94.21 84.16C78.61 80.37 61.9 79.97 46.35 84.15C44.69 84.6 40.9 85.11 40.45 87.13ZM20.68 104.65C23.11 102.64 25.83 101.06 28.26 99.1C30.63 97.19 25.11 93.54 24.14 90.17C24.77 88.19 26.53 89.36 28.02 89.91C32.74 91.65 35.69 93.54 40.45 90.52L40 89.16C35.07 92.25 32.26 90.74 27.42 88.82C26.42 88.43 25.38 87.93 24.3 87.79C23.31 87.66 22.45 88.44 22.86 89.48C23.51 91.1 27.75 95.69 27.54 97.09C27.28 98.82 19.58 102.35 19.4 103.91C19.31 104.66 20.15 104.76 20.68 104.65ZM100.28 88.43L97.22 95.8C95.82 99.23 95.39 102.62 91.12 103.31C91.75 103.51 92.38 103.7 93.01 103.91C96.03 103.37 96.11 101.81 97.18 99.34L100.64 91.34C100.84 90.87 101.09 90.12 101.6 89.92C101.04 89.5 100.62 89.05 100.28 88.43ZM50.12 99.8C48.94 100.02 47.73 100.31 46.64 100.82C47.04 101.32 47.48 101.62 48.02 101.96C48.7 102.39 49.92 103.6 50.32 102.33C50.46 101.86 50.67 100.07 50.12 99.8ZM89.81 99.8C89.68 100.88 89.6 102.35 91.12 101.96C91.42 101.98 91.71 101.97 92.01 101.96C92.71 101.63 93.33 101.31 93.92 100.82C92.6 100.42 91.17 99.99 89.81 99.8Z" fill="#000000" fill-opacity="1.000000" fill-rule="nonzero"/>
		<path id="Vector" d="M91.29 100.16C91.41 100.52 91.45 100.91 91.5 101.29C91.73 101.49 91.86 101.7 92.01 101.96C91.71 101.97 91.42 101.98 91.12 101.96C91.11 101.94 91.11 101.92 91.11 101.89L91.11 101.78C91.1 101.23 91.21 100.7 91.29 100.16Z" fill="#ABF3F9" fill-opacity="1.000000" fill-rule="nonzero"/>
		<path id="Vector" d="M95.03 51.94C96.06 52.76 96.83 53.97 97.55 55.06C102.99 63.29 104.49 73.57 101.03 82.9C100.72 83.73 100.39 84.61 99.94 85.38C99.45 84.96 98.95 84.62 98.37 84.34C98.93 82.67 99.69 81.11 100.17 79.4C102.45 71.2 101.19 61.7 96.63 54.46C96.14 53.68 95.28 52.84 95.03 51.94Z" fill="#2081F0" fill-opacity="1.000000" fill-rule="nonzero"/>
		<path id="Vector" d="M24.14 90.17C24.77 88.19 26.53 89.36 28.02 89.91C32.74 91.65 35.69 93.54 40.45 90.52C42.21 95.19 43.69 100.99 48.39 103.31C45.63 104.18 42.95 105.16 40.35 106.45C38.2 107.51 36.96 108.73 34.59 107.51C30.35 105.33 29.59 103.5 24.43 104.2C23.43 104.33 21.63 104.78 20.68 104.65C23.11 102.64 25.83 101.06 28.26 99.1C30.63 97.19 25.11 93.54 24.14 90.17Z" fill="#20C84F" fill-opacity="1.000000" fill-rule="nonzero"/>
		<path id="Vector" d="M101.6 89.92C107.78 93.2 115.52 85.24 117.02 89.16C116.48 92 111.48 95.03 113.56 98.09C114.5 99.48 117.2 101.22 118.65 102.25C124.09 106.1 116.63 104.19 114.2 104.06C108.62 103.77 106.33 108.05 103.29 107.87C101.74 107.78 96.77 105.25 94.77 104.57C94.18 104.36 93.56 104.23 93.01 103.91C96.03 103.37 96.11 101.81 97.18 99.34L100.64 91.34C100.84 90.87 101.09 90.12 101.6 89.92ZM101.6 89.92C101.72 90.37 102.22 90.76 102.59 91.02C106.77 93.93 112.78 89.91 117.02 89.16C115.52 85.24 107.78 93.2 101.6 89.92Z" fill="#20C84F" fill-opacity="1.000000" fill-rule="nonzero"/>
		<path id="Vector" d="M46.64 99.59C45.92 97.56 41.78 89.1 42.11 87.62C42.44 86.12 49.15 84.75 50.52 84.43C65.92 80.87 84.49 82.09 99.51 86.52C99.85 87.52 98.73 89.56 98.36 90.47C97.26 93.17 95.76 97.33 94.45 99.8C78.8 95.86 65.44 95.12 49.41 98.88C48.48 99.1 47.57 99.38 46.64 99.59Z" fill="#20C84F" fill-opacity="1.000000" fill-rule="nonzero"/>
		<path id="Vector" d="M77.35 85.38C78.29 85.74 79.06 87.77 79.53 88.67C79.72 88.47 82.91 84.41 83.15 86.63C83.23 87.37 81.51 88.99 81.02 89.61C80.77 89.84 80.39 90.21 80.25 90.52C80.22 91.53 80.01 92.54 79.75 93.51C79.26 93.5 78.88 93.43 78.43 93.24C78.22 92.13 78.37 91.04 78.43 89.92C77.88 88.83 75.4 86.19 77.35 85.38Z" fill="#FFFFFF" fill-opacity="1.000000" fill-rule="nonzero"/>
		<path id="Vector" d="M70.85 85.38C71.92 85.39 74.29 91.2 74.58 92.21C73.98 94.22 72.87 92.48 72.51 91.46C72.02 91.45 71.52 91.46 71.03 91.46L69.29 91.46C69.04 91.82 68.92 92.23 68.69 92.59C68.26 93.27 67.09 93.1 67.22 92.19C67.37 91.16 69.82 86.11 70.85 85.38Z" fill="#FFFFFF" fill-opacity="1.000000" fill-rule="nonzero"/>
		<path id="Vector" d="M70.85 88.14C71.17 88.36 71.62 89.42 71.77 89.81L71.74 89.89L71.24 89.92L70.07 89.92C70.35 89.34 70.6 88.74 70.85 88.14Z" fill="#20C84F" fill-opacity="1.000000" fill-rule="nonzero"/>
		<path id="Vector" d="M60.96 86.02C64.69 85.64 67.3 91.83 61.37 93.24C60.47 93.34 59.55 93.49 58.64 93.51C58.32 92.69 57.59 87.66 57.66 86.6C58.12 86.15 60.25 86.07 60.96 86.02Z" fill="#FFFFFF" fill-opacity="1.000000" fill-rule="nonzero"/>
		<path id="Vector" d="M60.96 87.84C62.92 86.91 64.17 90.81 61.37 91.46L59.9 91.7C59.84 90.42 59.57 89.13 59.47 87.84C59.97 87.83 60.47 87.85 60.96 87.84Z" fill="#20C84F" fill-opacity="1.000000" fill-rule="nonzero"/>
		<path id="Vector" d="M43.97 83.77C41.26 77.31 40.33 71.46 41.88 64.56C45.68 47.58 63.18 38.37 79.64 42.74C81.56 43.25 84.21 44.73 85.58 44.99C90.64 47.18 96.39 55.34 98.31 60.19C101.07 67.2 101.04 77.34 97.27 84.02C95.84 83.49 94.37 83.14 92.88 82.79C76.93 79.03 59.72 79.29 43.97 83.77Z" fill="#2081F0" fill-opacity="1.000000" fill-rule="nonzero"/>
		<path id="Vector" d="M59 51.77C64.24 51.02 68.55 55.55 68.74 60.56C68.99 67.13 63.02 73.99 58.64 78.72C58.21 78.5 57.87 78.2 57.52 77.87C56.7 77.1 54.97 75.68 54.47 74.71C54.41 73.86 58 70.25 58.59 69.04L58.64 68.93C48.01 67.4 49.04 52.74 59 51.77Z" fill="#000000" fill-opacity="1.000000" fill-rule="nonzero"/>
		<path id="Vector" d="M59.47 52.86C63.15 51.67 67.43 56.34 67.73 60.08C68.27 66.87 62.57 72.54 58.44 77.37C57.89 76.71 57.26 76.13 56.64 75.54L55.54 74.52C57.3 72.29 59.28 70.23 60.96 67.94C48.5 68.31 50.26 52.65 59.47 52.86Z" fill="#FFFFFF" fill-opacity="1.000000" fill-rule="nonzero"/>
		<path id="Vector" d="M59.47 56.62C64.29 56.4 65.34 63.07 60.47 64.11C55.14 64.48 54.62 57.15 59.47 56.62Z" fill="#000000" fill-opacity="1.000000" fill-rule="nonzero"/>
		<path id="Vector" d="M59.47 57.63C62.95 57.42 64.09 61.95 60.47 63.1C56.73 63.61 55.76 58.65 59.47 57.63Z" fill="#2081F0" fill-opacity="1.000000" fill-rule="nonzero"/>
		<path id="Vector" d="M78.65 51.77C84.01 51.14 88.44 55.34 89.07 60.49C89.9 67.26 89.15 76.35 80.81 77.37C75.44 78.19 70.57 74.35 70.1 68.96C69.73 64.7 69.6 58.2 72.38 54.96C73.98 53.09 76.19 51.97 78.65 51.77Z" fill="#000000" fill-opacity="1.000000" fill-rule="nonzero"/>
		<path id="Vector" d="M78.43 52.86C83.02 52.42 86.97 55.26 87.91 59.82C88.26 61.53 88.25 67.82 87.9 69.55C87.17 73.14 84.4 75.72 80.81 76.41C76.05 76.83 71.78 74.25 71.14 69.26C70.94 67.7 70.9 60.74 71.22 59.33C72 55.9 74.95 53.3 78.43 52.86Z" fill="#FFFFFF" fill-opacity="1.000000" fill-rule="nonzero"/>
		<path id="Vector" d="M78.93 57.02C81.02 56.83 83.02 57.95 83.61 60.06C83.86 60.96 83.88 67.39 83.73 68.49C83.47 70.47 82.16 71.73 80.25 72.26C77.99 72.65 75.84 71.27 75.41 68.99C75.17 67.75 75.22 61.59 75.42 60.43C75.75 58.53 77.04 57.37 78.93 57.02Z" fill="#000000" fill-opacity="1.000000" fill-rule="nonzero"/>
		<path id="Vector" d="M78.93 58.04C83.31 57.63 82.84 61.97 82.83 65.06C82.83 67.59 83.2 70.22 80.25 71.28C75.08 72.57 75.97 63.41 76.37 60.73C76.59 59.25 77.5 58.44 78.93 58.04Z" fill="#2081F0" fill-opacity="1.000000" fill-rule="nonzero"/>
	</g>
</svg>
