<svg width="158.000000" height="96.000000" viewBox="0 0 158 96" fill="none" xmlns="http://www.w3.org/2000/svg" xmlns:xlink="http://www.w3.org/1999/xlink">
	<desc>
			Created with Pixso.
	</desc>
	<defs>
		<clipPath id="clip81_118">
			<rect id="logo" rx="0.000000" width="157.000000" height="95.000000" transform="translate(0.500000 0.500000)" fill="white" fill-opacity="0"/>
		</clipPath>
	</defs>
	<g clip-path="url(#clip81_118)">
		<path id="Vector" d="M9.8 90.74L11.36 90.74L11.36 94.7L12 94.7L12 90.74L13.56 90.74L13.56 90.18L9.8 90.18L9.8 90.74Z" fill="#353535" fill-opacity="1.000000" fill-rule="nonzero"/>
		<path id="Vector" d="M15.34 91.88L15.34 91.28L14.74 91.28L14.74 94.7L15.37 94.7L15.37 93C15.37 92.62 15.46 92.34 15.66 92.14C15.85 91.94 16.12 91.84 16.45 91.84L16.52 91.84C16.54 91.84 16.57 91.84 16.59 91.85L16.59 91.25C16.26 91.25 15.99 91.31 15.76 91.43C15.57 91.54 15.44 91.69 15.34 91.88Z" fill="#353535" fill-opacity="1.000000" fill-rule="nonzero"/>
		<path id="Vector" d="M19.01 91.25C18.74 91.25 18.48 91.28 18.23 91.36C17.98 91.43 17.76 91.54 17.59 91.69L17.85 92.15C17.98 92.04 18.15 91.95 18.34 91.88C18.54 91.82 18.73 91.78 18.94 91.78C19.25 91.78 19.48 91.86 19.63 92C19.78 92.14 19.86 92.35 19.86 92.61L19.86 92.73L18.87 92.73C18.53 92.73 18.26 92.78 18.06 92.87C17.86 92.96 17.71 93.08 17.62 93.23C17.53 93.38 17.49 93.55 17.49 93.73C17.49 93.92 17.54 94.1 17.64 94.25C17.75 94.41 17.9 94.53 18.09 94.61C18.28 94.7 18.5 94.74 18.76 94.74C19.08 94.74 19.34 94.68 19.55 94.56C19.7 94.48 19.8 94.36 19.89 94.23L19.89 94.7L20.48 94.7L20.48 92.64C20.48 92.17 20.35 91.82 20.1 91.59C19.84 91.36 19.48 91.25 19.01 91.25L19.01 91.25ZM19.48 94.11C19.3 94.21 19.1 94.26 18.87 94.26C18.63 94.26 18.44 94.21 18.31 94.11C18.18 94.01 18.11 93.88 18.11 93.71C18.11 93.56 18.16 93.44 18.27 93.33C18.38 93.23 18.59 93.18 18.9 93.18L19.86 93.18L19.86 93.66C19.79 93.86 19.66 94.01 19.48 94.11L19.48 94.11Z" fill="#353535" fill-opacity="1.000000" fill-rule="nonzero"/>
		<path id="Vector" d="M24.87 91.41C24.65 91.3 24.4 91.25 24.12 91.25C23.81 91.25 23.54 91.31 23.3 91.43C23.12 91.53 22.99 91.67 22.88 91.82L22.88 91.28L22.29 91.28L22.29 94.71L22.91 94.71L22.91 92.94C22.91 92.69 22.95 92.48 23.04 92.31C23.13 92.15 23.26 92.02 23.42 91.93C23.58 91.85 23.78 91.8 24 91.8C24.29 91.8 24.52 91.89 24.68 92.06C24.85 92.22 24.93 92.47 24.93 92.81L24.93 94.71L25.55 94.71L25.55 92.74C25.55 92.4 25.49 92.12 25.37 91.9C25.25 91.68 25.08 91.52 24.87 91.41L24.87 91.41Z" fill="#353535" fill-opacity="1.000000" fill-rule="nonzero"/>
		<path id="Vector" d="M29.4 92.99C29.27 92.93 29.13 92.88 28.97 92.84C28.82 92.8 28.66 92.77 28.51 92.75C28.35 92.72 28.21 92.7 28.08 92.66C27.95 92.63 27.85 92.58 27.77 92.52C27.69 92.45 27.65 92.36 27.65 92.25C27.65 92.11 27.72 92 27.85 91.91C27.99 91.82 28.19 91.78 28.46 91.78C28.63 91.78 28.8 91.8 28.97 91.83C29.14 91.87 29.3 91.94 29.46 92.05L29.72 91.56C29.57 91.46 29.38 91.38 29.15 91.33C28.92 91.27 28.69 91.25 28.47 91.25C28.17 91.25 27.92 91.29 27.7 91.37C27.49 91.45 27.32 91.58 27.21 91.73C27.09 91.88 27.03 92.06 27.03 92.27C27.03 92.48 27.07 92.63 27.15 92.75C27.23 92.87 27.33 92.96 27.46 93.03C27.59 93.09 27.73 93.14 27.89 93.18C28.05 93.22 28.2 93.25 28.36 93.27C28.51 93.29 28.65 93.32 28.78 93.35C28.91 93.38 29.01 93.43 29.09 93.49C29.17 93.55 29.21 93.63 29.21 93.74C29.21 93.88 29.14 94 29.02 94.08C28.89 94.17 28.68 94.21 28.39 94.21C28.16 94.21 27.94 94.17 27.73 94.1C27.51 94.03 27.33 93.95 27.18 93.85L26.92 94.34C27.07 94.45 27.27 94.55 27.53 94.63C27.78 94.7 28.06 94.74 28.34 94.74C28.65 94.74 28.91 94.7 29.13 94.62C29.36 94.53 29.53 94.42 29.65 94.27C29.77 94.11 29.83 93.94 29.83 93.73C29.83 93.53 29.79 93.38 29.71 93.26C29.63 93.15 29.53 93.06 29.4 92.99Z" fill="#353535" fill-opacity="1.000000" fill-rule="nonzero"/>
		<path id="Vector" d="M32.48 89.87C32.12 89.87 31.84 89.97 31.64 90.17C31.44 90.37 31.35 90.64 31.35 90.97L31.35 91.28L30.76 91.28L30.76 91.79L31.35 91.79L31.35 94.7L31.97 94.7L31.97 91.79L32.96 91.79L32.96 91.28L31.96 91.28L31.96 90.98C31.96 90.78 32 90.63 32.1 90.53C32.19 90.43 32.33 90.38 32.52 90.38C32.61 90.38 32.69 90.39 32.78 90.42C32.86 90.45 32.93 90.49 33 90.54L33.18 90.07C33.1 90 32.99 89.95 32.87 89.92C32.75 89.88 32.62 89.87 32.48 89.87L32.48 89.87Z" fill="#353535" fill-opacity="1.000000" fill-rule="nonzero"/>
		<path id="Vector" d="M36.53 91.47C36.26 91.32 35.96 91.25 35.61 91.25C35.27 91.25 34.96 91.32 34.69 91.47C34.42 91.62 34.21 91.83 34.06 92.09C33.9 92.35 33.82 92.65 33.82 92.99C33.82 93.33 33.9 93.63 34.06 93.89C34.21 94.16 34.42 94.37 34.69 94.52C34.96 94.67 35.27 94.74 35.61 94.74C35.95 94.74 36.26 94.67 36.53 94.52C36.8 94.37 37.01 94.16 37.17 93.9C37.32 93.63 37.4 93.33 37.4 92.99C37.4 92.65 37.32 92.35 37.17 92.09C37.01 91.82 36.8 91.62 36.53 91.47L36.53 91.47ZM36.62 93.63C36.52 93.81 36.38 93.95 36.21 94.05C36.03 94.15 35.84 94.2 35.61 94.2C35.39 94.2 35.2 94.15 35.02 94.05C34.85 93.95 34.71 93.81 34.61 93.63C34.5 93.44 34.45 93.23 34.45 92.99C34.45 92.75 34.51 92.53 34.61 92.35C34.71 92.17 34.85 92.04 35.02 91.94C35.2 91.84 35.4 91.79 35.61 91.79C35.83 91.79 36.03 91.84 36.21 91.94C36.38 92.04 36.52 92.17 36.62 92.35C36.72 92.53 36.77 92.74 36.77 92.99C36.77 93.23 36.72 93.44 36.62 93.63Z" fill="#353535" fill-opacity="1.000000" fill-rule="nonzero"/>
		<path id="Vector" d="M39.51 91.88L39.51 91.28L38.91 91.28L38.91 94.7L39.54 94.7L39.54 93C39.54 92.62 39.64 92.34 39.83 92.14C40.02 91.94 40.29 91.84 40.62 91.84L40.69 91.84C40.71 91.84 40.74 91.84 40.77 91.85L40.77 91.25C40.44 91.25 40.16 91.31 39.93 91.43C39.74 91.54 39.61 91.69 39.51 91.88Z" fill="#353535" fill-opacity="1.000000" fill-rule="nonzero"/>
		<path id="Vector" d="M47.21 91.41C47 91.3 46.76 91.25 46.48 91.25C46.13 91.25 45.83 91.33 45.57 91.49C45.39 91.6 45.26 91.75 45.15 91.91C45.07 91.74 44.96 91.59 44.81 91.49C44.58 91.33 44.29 91.25 43.96 91.25C43.66 91.25 43.4 91.31 43.18 91.44C43 91.53 42.88 91.67 42.77 91.82L42.77 91.28L42.18 91.28L42.18 94.71L42.8 94.71L42.8 92.94C42.8 92.7 42.84 92.49 42.93 92.32C43.02 92.15 43.14 92.02 43.29 91.94C43.45 91.85 43.63 91.81 43.83 91.81C44.12 91.81 44.34 91.89 44.49 92.06C44.64 92.22 44.72 92.48 44.72 92.81L44.72 94.71L45.34 94.71L45.34 92.94C45.34 92.7 45.39 92.49 45.47 92.32C45.55 92.15 45.68 92.02 45.83 91.94C45.99 91.85 46.17 91.81 46.38 91.81C46.66 91.81 46.88 91.89 47.03 92.06C47.19 92.22 47.27 92.48 47.27 92.81L47.27 94.71L47.89 94.71L47.89 92.74C47.89 92.4 47.83 92.12 47.71 91.9C47.59 91.68 47.43 91.52 47.22 91.41L47.21 91.41Z" fill="#353535" fill-opacity="1.000000" fill-rule="nonzero"/>
		<path id="Vector" d="M50 89.81C49.88 89.81 49.78 89.85 49.7 89.93C49.62 90.01 49.58 90.1 49.58 90.22C49.58 90.34 49.62 90.43 49.7 90.5C49.78 90.58 49.88 90.62 50 90.62C50.12 90.62 50.23 90.58 50.3 90.5C50.38 90.42 50.42 90.32 50.42 90.21C50.42 90.09 50.38 90 50.3 89.92C50.22 89.85 50.12 89.81 50 89.81Z" fill="#353535" fill-opacity="1.000000" fill-rule="nonzero"/>
		<path id="Vector" d="M49.69 91.28L50.31 91.28L50.31 94.7L49.69 94.7L49.69 91.28Z" fill="#353535" fill-opacity="1.000000" fill-rule="evenodd"/>
		<path id="Vector" d="M54.73 91.41C54.51 91.3 54.27 91.25 53.98 91.25C53.67 91.25 53.4 91.31 53.17 91.43C52.99 91.53 52.85 91.67 52.74 91.82L52.74 91.28L52.15 91.28L52.15 94.71L52.77 94.71L52.77 92.94C52.77 92.69 52.81 92.48 52.9 92.31C52.99 92.15 53.12 92.02 53.28 91.93C53.45 91.85 53.64 91.8 53.86 91.8C54.15 91.8 54.38 91.89 54.55 92.06C54.71 92.22 54.79 92.47 54.79 92.81L54.79 94.71L55.41 94.71L55.41 92.74C55.41 92.4 55.35 92.12 55.23 91.9C55.11 91.68 54.94 91.52 54.73 91.41L54.73 91.41Z" fill="#353535" fill-opacity="1.000000" fill-rule="nonzero"/>
		<path id="Vector" d="M59.92 91.83C59.79 91.66 59.64 91.52 59.45 91.42C59.21 91.3 58.94 91.25 58.64 91.25C58.31 91.25 58.02 91.32 57.75 91.45C57.49 91.59 57.28 91.78 57.13 92.03C56.98 92.28 56.9 92.57 56.9 92.9C56.9 93.23 56.98 93.52 57.13 93.77C57.28 94.02 57.49 94.21 57.75 94.35C58.02 94.49 58.31 94.56 58.64 94.56C58.94 94.56 59.21 94.5 59.45 94.38C59.62 94.29 59.76 94.16 59.89 94.01L59.89 94.3C59.89 94.69 59.79 94.98 59.6 95.17C59.41 95.35 59.11 95.45 58.71 95.45C58.45 95.45 58.21 95.41 57.97 95.33C57.74 95.25 57.54 95.14 57.38 95L57.08 95.48C57.27 95.65 57.51 95.77 57.81 95.86C58.1 95.95 58.41 95.99 58.72 95.99C59.31 95.99 59.75 95.85 60.05 95.57C60.36 95.28 60.51 94.84 60.51 94.23L60.51 91.27L59.92 91.27L59.92 91.82L59.92 91.83ZM59.74 93.48C59.64 93.65 59.5 93.78 59.33 93.88C59.15 93.97 58.95 94.02 58.72 94.02C58.49 94.02 58.28 93.97 58.1 93.88C57.92 93.78 57.78 93.65 57.68 93.48C57.58 93.31 57.53 93.12 57.53 92.9C57.53 92.68 57.58 92.49 57.68 92.32C57.78 92.15 57.92 92.02 58.1 91.93C58.28 91.84 58.49 91.79 58.72 91.79C58.94 91.79 59.15 91.84 59.33 91.93C59.5 92.02 59.64 92.15 59.74 92.32C59.85 92.49 59.9 92.68 59.9 92.9C59.9 93.12 59.85 93.31 59.74 93.48Z" fill="#353535" fill-opacity="1.000000" fill-rule="nonzero"/>
		<path id="Vector" d="M67.37 92.52C67.21 92.43 67.03 92.36 66.83 92.3C66.63 92.25 66.44 92.2 66.24 92.15C66.05 92.11 65.87 92.06 65.71 92C65.54 91.94 65.41 91.87 65.31 91.77C65.21 91.68 65.16 91.55 65.16 91.39C65.16 91.26 65.2 91.14 65.27 91.03C65.35 90.92 65.47 90.84 65.63 90.77C65.8 90.71 66.01 90.68 66.26 90.68C66.47 90.68 66.68 90.71 66.89 90.76C67.11 90.82 67.32 90.92 67.51 91.05L67.73 90.53C67.53 90.4 67.31 90.3 67.05 90.23C66.79 90.16 66.53 90.13 66.26 90.13C65.87 90.13 65.54 90.19 65.28 90.31C65.02 90.42 64.83 90.58 64.71 90.78C64.59 90.97 64.52 91.19 64.52 91.42C64.52 91.65 64.57 91.86 64.67 92.01C64.77 92.16 64.9 92.29 65.07 92.38C65.23 92.47 65.41 92.54 65.6 92.6C65.8 92.66 66 92.71 66.19 92.75C66.39 92.79 66.57 92.85 66.73 92.9C66.89 92.96 67.02 93.04 67.12 93.13C67.23 93.23 67.28 93.35 67.28 93.51C67.28 93.64 67.24 93.76 67.16 93.86C67.08 93.97 66.96 94.05 66.8 94.11C66.63 94.17 66.42 94.2 66.15 94.2C65.86 94.2 65.58 94.15 65.31 94.05C65.05 93.95 64.83 93.83 64.65 93.68L64.41 94.18C64.59 94.35 64.84 94.49 65.16 94.59C65.47 94.7 65.81 94.75 66.15 94.75C66.55 94.75 66.88 94.69 67.14 94.57C67.4 94.45 67.6 94.3 67.72 94.1C67.85 93.91 67.91 93.69 67.91 93.47C67.91 93.24 67.86 93.03 67.76 92.89C67.66 92.74 67.53 92.61 67.37 92.52L67.37 92.52Z" fill="#353535" fill-opacity="1.000000" fill-rule="nonzero"/>
		<path id="Vector" d="M72.14 91.47C71.88 91.32 71.58 91.25 71.24 91.25C70.95 91.25 70.68 91.31 70.45 91.44C70.27 91.53 70.14 91.68 70.02 91.84L70.02 91.28L69.42 91.28L69.42 95.96L70.04 95.96L70.04 94.16C70.16 94.32 70.29 94.45 70.46 94.54C70.7 94.67 70.96 94.74 71.24 94.74C71.58 94.74 71.88 94.67 72.14 94.52C72.4 94.38 72.6 94.17 72.76 93.91C72.91 93.64 72.98 93.34 72.98 92.99C72.98 92.64 72.91 92.34 72.76 92.08C72.6 91.82 72.4 91.61 72.14 91.47ZM72.2 93.63C72.1 93.81 71.96 93.95 71.78 94.05C71.61 94.15 71.41 94.2 71.19 94.2C70.97 94.2 70.78 94.15 70.6 94.05C70.43 93.95 70.29 93.81 70.19 93.63C70.08 93.44 70.03 93.23 70.03 92.99C70.03 92.75 70.08 92.53 70.19 92.35C70.29 92.17 70.43 92.04 70.6 91.94C70.78 91.84 70.97 91.79 71.19 91.79C71.41 91.79 71.61 91.84 71.78 91.94C71.96 92.04 72.1 92.17 72.2 92.35C72.3 92.53 72.35 92.74 72.35 92.99C72.35 93.23 72.3 93.44 72.2 93.63Z" fill="#353535" fill-opacity="1.000000" fill-rule="nonzero"/>
		<path id="Vector" d="M75.71 91.25C75.44 91.25 75.18 91.28 74.93 91.36C74.68 91.43 74.47 91.54 74.29 91.69L74.55 92.15C74.69 92.04 74.85 91.95 75.05 91.88C75.24 91.82 75.44 91.78 75.64 91.78C75.95 91.78 76.18 91.86 76.33 92C76.49 92.14 76.56 92.35 76.56 92.61L76.56 92.73L75.58 92.73C75.24 92.73 74.96 92.78 74.76 92.87C74.56 92.96 74.42 93.08 74.33 93.23C74.24 93.38 74.19 93.55 74.19 93.73C74.19 93.92 74.25 94.1 74.35 94.25C74.45 94.41 74.6 94.53 74.79 94.61C74.99 94.7 75.21 94.74 75.47 94.74C75.78 94.74 76.04 94.68 76.25 94.56C76.4 94.48 76.51 94.36 76.6 94.23L76.6 94.7L77.19 94.7L77.19 92.64C77.19 92.17 77.06 91.82 76.8 91.59C76.55 91.36 76.18 91.25 75.71 91.25L75.71 91.25ZM76.18 94.11C76.01 94.21 75.8 94.26 75.57 94.26C75.34 94.26 75.15 94.21 75.01 94.11C74.88 94.01 74.81 93.88 74.81 93.71C74.81 93.56 74.87 93.44 74.98 93.33C75.09 93.23 75.3 93.18 75.61 93.18L76.57 93.18L76.57 93.66C76.49 93.86 76.36 94.01 76.19 94.11L76.18 94.11Z" fill="#353535" fill-opacity="1.000000" fill-rule="nonzero"/>
		<path id="Vector" d="M79.88 91.94C80.06 91.84 80.26 91.79 80.48 91.79C80.67 91.79 80.84 91.83 81.01 91.91C81.17 91.98 81.31 92.11 81.42 92.28L81.89 91.97C81.76 91.73 81.57 91.55 81.32 91.43C81.08 91.3 80.8 91.24 80.49 91.24C80.14 91.24 79.83 91.32 79.55 91.47C79.28 91.62 79.06 91.82 78.91 92.08C78.75 92.35 78.67 92.65 78.67 92.99C78.67 93.33 78.75 93.63 78.91 93.89C79.06 94.16 79.28 94.36 79.55 94.51C79.83 94.66 80.14 94.74 80.49 94.74C80.8 94.74 81.08 94.68 81.32 94.55C81.57 94.43 81.76 94.24 81.89 94.01L81.42 93.71C81.3 93.88 81.17 94 81.01 94.08C80.84 94.16 80.67 94.2 80.48 94.2C80.26 94.2 80.06 94.15 79.88 94.05C79.7 93.95 79.56 93.81 79.46 93.63C79.35 93.45 79.3 93.24 79.3 92.99C79.3 92.74 79.36 92.53 79.46 92.35C79.56 92.17 79.7 92.04 79.88 91.94Z" fill="#353535" fill-opacity="1.000000" fill-rule="nonzero"/>
		<path id="Vector" d="M85.59 91.47C85.33 91.32 85.04 91.25 84.7 91.25C84.37 91.25 84.08 91.32 83.82 91.47C83.56 91.62 83.35 91.82 83.2 92.09C83.05 92.35 82.98 92.65 82.98 92.99C82.98 93.33 83.06 93.63 83.21 93.9C83.36 94.16 83.58 94.36 83.86 94.52C84.14 94.67 84.46 94.74 84.83 94.74C85.11 94.74 85.37 94.69 85.6 94.6C85.83 94.51 86.03 94.37 86.18 94.19L85.84 93.79C85.71 93.92 85.57 94.03 85.4 94.1C85.24 94.17 85.05 94.2 84.85 94.2C84.6 94.2 84.38 94.15 84.19 94.05C84 93.95 83.85 93.81 83.75 93.63C83.67 93.5 83.63 93.35 83.61 93.2L86.39 93.2C86.39 93.17 86.4 93.14 86.4 93.1C86.4 93.07 86.4 93.04 86.4 93.01C86.4 92.66 86.33 92.35 86.19 92.08C86.04 91.82 85.84 91.61 85.59 91.47L85.59 91.47ZM84.13 91.91C84.29 91.82 84.49 91.77 84.7 91.77C84.92 91.77 85.12 91.82 85.28 91.91C85.45 92.01 85.58 92.15 85.68 92.32C85.75 92.45 85.78 92.59 85.8 92.75L83.61 92.75C83.63 92.6 83.66 92.45 83.73 92.32C83.83 92.15 83.96 92.01 84.13 91.91L84.13 91.91Z" fill="#353535" fill-opacity="1.000000" fill-rule="nonzero"/>
		<path id="Vector" d="M89.96 92.99C89.83 92.93 89.69 92.88 89.53 92.84C89.38 92.8 89.22 92.77 89.06 92.75C88.91 92.72 88.77 92.7 88.64 92.66C88.51 92.63 88.41 92.58 88.33 92.52C88.25 92.45 88.21 92.36 88.21 92.25C88.21 92.11 88.28 92 88.41 91.91C88.54 91.82 88.75 91.78 89.02 91.78C89.19 91.78 89.36 91.8 89.53 91.83C89.69 91.87 89.86 91.94 90.01 92.05L90.28 91.56C90.13 91.46 89.94 91.38 89.71 91.33C89.48 91.27 89.25 91.25 89.02 91.25C88.73 91.25 88.48 91.29 88.26 91.37C88.05 91.45 87.88 91.58 87.76 91.73C87.65 91.88 87.59 92.06 87.59 92.27C87.59 92.48 87.63 92.63 87.71 92.75C87.78 92.87 87.89 92.96 88.02 93.03C88.15 93.09 88.29 93.14 88.45 93.18C88.6 93.22 88.76 93.25 88.91 93.27C89.07 93.29 89.21 93.32 89.34 93.35C89.46 93.38 89.57 93.43 89.65 93.49C89.72 93.55 89.76 93.63 89.76 93.74C89.76 93.88 89.7 94 89.57 94.08C89.45 94.17 89.24 94.21 88.95 94.21C88.72 94.21 88.5 94.17 88.29 94.1C88.07 94.03 87.89 93.95 87.74 93.85L87.48 94.34C87.63 94.45 87.83 94.55 88.09 94.63C88.34 94.7 88.61 94.74 88.9 94.74C89.21 94.74 89.47 94.7 89.69 94.62C89.91 94.53 90.08 94.42 90.21 94.27C90.32 94.11 90.39 93.94 90.39 93.73C90.39 93.53 90.35 93.38 90.27 93.26C90.19 93.15 90.08 93.06 89.96 92.99Z" fill="#353535" fill-opacity="1.000000" fill-rule="nonzero"/>
		<path id="Vector" d="M97.83 94.01L96.81 91.28L96.29 91.28L95.25 94.01L94.25 91.28L93.66 91.28L94.94 94.7L95.54 94.7L96.54 92.11L97.53 94.7L98.13 94.7L99.42 91.28L98.86 91.28L97.83 94.01Z" fill="#353535" fill-opacity="1.000000" fill-rule="nonzero"/>
		<path id="Vector" d="M100.69 91.28L101.32 91.28L101.32 94.7L100.69 94.7L100.69 91.28Z" fill="#353535" fill-opacity="1.000000" fill-rule="evenodd"/>
		<path id="Vector" d="M101.01 89.81C100.89 89.81 100.78 89.85 100.7 89.93C100.63 90.01 100.59 90.1 100.59 90.22C100.59 90.34 100.63 90.43 100.7 90.5C100.78 90.58 100.89 90.62 101.01 90.62C101.13 90.62 101.23 90.58 101.31 90.5C101.39 90.42 101.43 90.32 101.43 90.21C101.43 90.09 101.39 90 101.31 89.92C101.23 89.85 101.13 89.81 101.01 89.81Z" fill="#353535" fill-opacity="1.000000" fill-rule="nonzero"/>
		<path id="Vector" d="M104.41 94.22C104.24 94.22 104.1 94.17 104.01 94.07C103.91 93.97 103.87 93.83 103.87 93.64L103.87 91.79L104.85 91.79L104.85 91.28L103.87 91.28L103.87 90.53L103.25 90.53L103.25 91.28L102.66 91.28L102.66 91.79L103.25 91.79L103.25 93.67C103.25 94.01 103.34 94.28 103.53 94.46C103.72 94.65 103.99 94.74 104.34 94.74C104.48 94.74 104.62 94.72 104.75 94.68C104.88 94.64 104.99 94.58 105.09 94.5L104.89 94.05C104.76 94.16 104.6 94.21 104.41 94.21L104.41 94.22Z" fill="#353535" fill-opacity="1.000000" fill-rule="nonzero"/>
		<path id="Vector" d="M109.07 91.41C108.86 91.3 108.61 91.25 108.33 91.25C108.02 91.25 107.74 91.31 107.51 91.43C107.34 91.52 107.22 91.65 107.11 91.79L107.11 89.91L106.49 89.91L106.49 94.7L107.11 94.7L107.11 92.94C107.11 92.69 107.16 92.48 107.25 92.31C107.34 92.14 107.46 92.02 107.63 91.93C107.79 91.85 107.98 91.8 108.2 91.8C108.5 91.8 108.73 91.89 108.89 92.05C109.05 92.22 109.13 92.47 109.13 92.8L109.13 94.7L109.76 94.7L109.76 92.73C109.76 92.4 109.7 92.12 109.58 91.9C109.45 91.68 109.29 91.52 109.07 91.41L109.07 91.41Z" fill="#353535" fill-opacity="1.000000" fill-rule="nonzero"/>
		<path id="Vector" d="M116.84 90.37C116.55 90.24 116.21 90.18 115.82 90.18L114.05 90.18L114.05 94.7L114.69 94.7L114.69 93.33L115.82 93.33C116.21 93.33 116.55 93.27 116.84 93.14C117.12 93.02 117.33 92.83 117.49 92.6C117.64 92.36 117.71 92.08 117.71 91.76C117.71 91.43 117.64 91.15 117.49 90.91C117.33 90.67 117.12 90.49 116.84 90.36L116.84 90.37ZM116.74 92.51C116.53 92.68 116.21 92.77 115.8 92.77L114.69 92.77L114.69 90.74L115.8 90.74C116.21 90.74 116.53 90.83 116.74 91.01C116.95 91.18 117.06 91.43 117.06 91.75C117.06 92.08 116.95 92.33 116.74 92.5L116.74 92.51Z" fill="#353535" fill-opacity="1.000000" fill-rule="nonzero"/>
		<path id="Vector" d="M119.76 91.88L119.76 91.28L119.17 91.28L119.17 94.7L119.79 94.7L119.79 93C119.79 92.62 119.89 92.34 120.08 92.14C120.28 91.94 120.54 91.84 120.87 91.84L120.94 91.84C120.97 91.84 120.99 91.84 121.02 91.85L121.02 91.25C120.69 91.25 120.41 91.31 120.18 91.43C120 91.54 119.86 91.69 119.76 91.88Z" fill="#353535" fill-opacity="1.000000" fill-rule="nonzero"/>
		<path id="Vector" d="M124.69 91.47C124.44 91.32 124.14 91.25 123.81 91.25C123.48 91.25 123.18 91.32 122.92 91.47C122.66 91.62 122.46 91.82 122.31 92.09C122.15 92.35 122.08 92.65 122.08 92.99C122.08 93.33 122.16 93.63 122.31 93.9C122.46 94.16 122.68 94.36 122.96 94.52C123.24 94.67 123.56 94.74 123.93 94.74C124.22 94.74 124.47 94.69 124.71 94.6C124.94 94.51 125.13 94.37 125.29 94.19L124.94 93.79C124.82 93.92 124.67 94.03 124.51 94.1C124.34 94.17 124.15 94.2 123.95 94.2C123.7 94.2 123.49 94.15 123.29 94.05C123.1 93.95 122.95 93.81 122.85 93.63C122.77 93.5 122.73 93.35 122.71 93.2L125.49 93.2C125.5 93.17 125.5 93.14 125.5 93.1C125.51 93.07 125.51 93.04 125.51 93.01C125.51 92.66 125.44 92.35 125.29 92.08C125.15 91.82 124.95 91.61 124.69 91.47L124.69 91.47ZM123.23 91.91C123.4 91.82 123.59 91.77 123.81 91.77C124.02 91.77 124.22 91.82 124.39 91.91C124.56 92.01 124.69 92.15 124.78 92.32C124.85 92.45 124.89 92.59 124.9 92.75L122.71 92.75C122.73 92.6 122.77 92.45 122.84 92.32C122.93 92.15 123.06 92.01 123.23 91.91L123.23 91.91Z" fill="#353535" fill-opacity="1.000000" fill-rule="nonzero"/>
		<path id="Vector" d="M127.91 91.94C128.08 91.84 128.29 91.79 128.51 91.79C128.7 91.79 128.87 91.83 129.03 91.91C129.19 91.98 129.33 92.11 129.44 92.28L129.92 91.97C129.78 91.73 129.6 91.55 129.35 91.43C129.1 91.3 128.83 91.24 128.52 91.24C128.17 91.24 127.85 91.32 127.58 91.47C127.3 91.62 127.09 91.82 126.93 92.08C126.78 92.35 126.7 92.65 126.7 92.99C126.7 93.33 126.78 93.63 126.93 93.89C127.09 94.16 127.3 94.36 127.58 94.51C127.85 94.66 128.17 94.74 128.52 94.74C128.83 94.74 129.11 94.68 129.35 94.55C129.59 94.43 129.78 94.24 129.92 94.01L129.44 93.71C129.33 93.88 129.19 94 129.03 94.08C128.87 94.16 128.7 94.2 128.51 94.2C128.29 94.2 128.08 94.15 127.91 94.05C127.73 93.95 127.59 93.81 127.49 93.63C127.38 93.45 127.33 93.24 127.33 92.99C127.33 92.74 127.38 92.53 127.49 92.35C127.59 92.17 127.73 92.04 127.91 91.94Z" fill="#353535" fill-opacity="1.000000" fill-rule="nonzero"/>
		<path id="Vector" d="M131.64 89.81C131.52 89.81 131.42 89.85 131.34 89.93C131.26 90.01 131.22 90.1 131.22 90.22C131.22 90.34 131.26 90.43 131.34 90.5C131.42 90.58 131.52 90.62 131.64 90.62C131.76 90.62 131.87 90.58 131.94 90.5C132.02 90.42 132.06 90.32 132.06 90.21C132.06 90.09 132.02 90 131.94 89.92C131.86 89.85 131.76 89.81 131.64 89.81Z" fill="#353535" fill-opacity="1.000000" fill-rule="nonzero"/>
		<path id="Vector" d="M131.33 91.28L131.95 91.28L131.95 94.7L131.33 94.7L131.33 91.28Z" fill="#353535" fill-opacity="1.000000" fill-rule="evenodd"/>
		<path id="Vector" d="M135.83 92.99C135.7 92.93 135.56 92.88 135.41 92.84C135.25 92.8 135.1 92.77 134.94 92.75C134.79 92.72 134.64 92.7 134.52 92.66C134.39 92.63 134.28 92.58 134.2 92.52C134.12 92.45 134.08 92.36 134.08 92.25C134.08 92.11 134.15 92 134.29 91.91C134.42 91.82 134.62 91.78 134.9 91.78C135.06 91.78 135.23 91.8 135.4 91.83C135.57 91.87 135.73 91.94 135.89 92.05L136.15 91.56C136.01 91.46 135.82 91.38 135.59 91.33C135.36 91.27 135.13 91.25 134.9 91.25C134.61 91.25 134.35 91.29 134.14 91.37C133.92 91.45 133.76 91.58 133.64 91.73C133.52 91.88 133.47 92.06 133.47 92.27C133.47 92.48 133.5 92.63 133.58 92.75C133.66 92.87 133.76 92.96 133.89 93.03C134.03 93.09 134.17 93.14 134.32 93.18C134.48 93.22 134.64 93.25 134.79 93.27C134.95 93.29 135.09 93.32 135.21 93.35C135.34 93.38 135.44 93.43 135.52 93.49C135.6 93.55 135.64 93.63 135.64 93.74C135.64 93.88 135.58 94 135.45 94.08C135.32 94.17 135.11 94.21 134.82 94.21C134.6 94.21 134.38 94.17 134.16 94.1C133.95 94.03 133.76 93.95 133.62 93.85L133.36 94.34C133.5 94.45 133.7 94.55 133.96 94.63C134.22 94.7 134.49 94.74 134.78 94.74C135.08 94.74 135.35 94.7 135.57 94.62C135.79 94.53 135.96 94.42 136.08 94.27C136.2 94.11 136.26 93.94 136.26 93.73C136.26 93.53 136.22 93.38 136.14 93.26C136.06 93.15 135.96 93.06 135.83 92.99Z" fill="#353535" fill-opacity="1.000000" fill-rule="nonzero"/>
		<path id="Vector" d="M137.69 91.28L138.31 91.28L138.31 94.7L137.69 94.7L137.69 91.28Z" fill="#353535" fill-opacity="1.000000" fill-rule="evenodd"/>
		<path id="Vector" d="M138 89.81C137.88 89.81 137.78 89.85 137.7 89.93C137.62 90.01 137.58 90.1 137.58 90.22C137.58 90.34 137.62 90.43 137.7 90.5C137.78 90.58 137.88 90.62 138 90.62C138.12 90.62 138.23 90.58 138.31 90.5C138.38 90.42 138.42 90.32 138.42 90.21C138.42 90.09 138.38 90 138.3 89.92C138.22 89.85 138.12 89.81 138 89.81Z" fill="#353535" fill-opacity="1.000000" fill-rule="nonzero"/>
		<path id="Vector" d="M142.54 91.47C142.27 91.32 141.96 91.25 141.62 91.25C141.28 91.25 140.97 91.32 140.7 91.47C140.43 91.62 140.22 91.83 140.06 92.09C139.91 92.35 139.83 92.65 139.83 92.99C139.83 93.33 139.91 93.63 140.06 93.89C140.22 94.16 140.43 94.37 140.7 94.52C140.97 94.67 141.28 94.74 141.62 94.74C141.96 94.74 142.27 94.67 142.54 94.52C142.81 94.37 143.02 94.16 143.17 93.9C143.33 93.63 143.4 93.33 143.4 92.99C143.4 92.65 143.33 92.35 143.17 92.09C143.02 91.82 142.81 91.62 142.54 91.47L142.54 91.47ZM142.63 93.63C142.53 93.81 142.39 93.95 142.22 94.05C142.04 94.15 141.84 94.2 141.62 94.2C141.4 94.2 141.2 94.15 141.03 94.05C140.86 93.95 140.72 93.81 140.62 93.63C140.51 93.44 140.46 93.23 140.46 92.99C140.46 92.75 140.51 92.53 140.62 92.35C140.72 92.17 140.86 92.04 141.03 91.94C141.2 91.84 141.4 91.79 141.62 91.79C141.84 91.79 142.04 91.84 142.22 91.94C142.39 92.04 142.53 92.17 142.63 92.35C142.73 92.53 142.78 92.74 142.78 92.99C142.78 93.23 142.73 93.44 142.63 93.63Z" fill="#353535" fill-opacity="1.000000" fill-rule="nonzero"/>
		<path id="Vector" d="M148 91.9C147.88 91.68 147.71 91.52 147.5 91.41C147.29 91.3 147.04 91.25 146.76 91.25C146.45 91.25 146.17 91.31 145.94 91.43C145.76 91.53 145.63 91.67 145.52 91.82L145.52 91.28L144.92 91.28L144.92 94.71L145.54 94.71L145.54 92.94C145.54 92.69 145.59 92.48 145.68 92.31C145.77 92.15 145.89 92.02 146.06 91.93C146.22 91.85 146.41 91.8 146.63 91.8C146.93 91.8 147.16 91.89 147.32 92.06C147.48 92.22 147.56 92.47 147.56 92.81L147.56 94.71L148.19 94.71L148.19 92.74C148.19 92.4 148.13 92.12 148 91.9L148 91.9Z" fill="#353535" fill-opacity="1.000000" fill-rule="nonzero"/>
		<path id="Vector" d="M24.56 79.8C23.94 79.19 23.4 78.33 22.96 77.27L14.38 56.91L12.22 56.91L11.63 58.22L11.18 58.22L0 83.13L1.97 83.13L2.25 82.51L3.46 82.51L6.29 76.26L15.16 76.26L16.03 78.37C16.64 79.8 17.37 80.87 18.21 81.58C19.06 82.28 19.94 82.74 20.87 82.96C21.79 83.17 22.67 83.28 23.5 83.28C23.78 83.28 24.1 83.26 24.47 83.22C24.83 83.18 25.12 83.14 25.32 83.09L25.32 82.64C25.46 82.63 25.61 82.62 25.77 82.6C26.14 82.56 26.44 82.52 26.67 82.46L26.93 82.4L26.93 80.87L26.63 80.84C25.84 80.75 25.16 80.41 24.56 79.81L24.56 79.8ZM13.89 73.25L7.67 73.25L10.86 66.1L13.89 73.25ZM6.6 73.94L14.18 73.94L14.44 74.56L5.87 74.56L10.27 64.7L10.49 65.23L6.6 73.94L6.6 73.94ZM3.01 81.82L2.56 81.82L5.07 76.25L5.52 76.25L3.01 81.82ZM26.24 81.84C26.09 81.87 25.9 81.89 25.7 81.91C25.35 81.95 25.03 81.97 24.77 81.97C24.69 81.97 24.62 81.97 24.54 81.96C24 81.77 23.5 81.46 23.05 81.01C22.39 80.35 21.83 79.47 21.38 78.37L12.89 58.21L12.39 58.21L12.67 57.59L13.92 57.59L22.32 77.54C22.79 78.68 23.38 79.61 24.06 80.29C24.7 80.92 25.43 81.32 26.24 81.48L26.24 81.84L26.24 81.84Z" fill="#353535" fill-opacity="1.000000" fill-rule="nonzero"/>
		<path id="Vector" d="M40.05 66.86C39.84 66.43 39.51 66.07 39.09 65.76C38.76 65.51 38.36 65.32 37.91 65.2C37.45 65.07 36.95 65.01 36.39 65.01C35.25 65.01 34.29 65.21 33.49 65.6C32.7 65.98 32.07 66.38 31.61 66.78C31.34 66.28 30.95 65.92 30.46 65.71C29.97 65.49 29.29 65.39 28.43 65.39L24.68 65.39L24.68 66.52L25.06 66.52C26.19 66.52 26.91 66.86 27.22 67.56C27.52 68.25 27.67 69.16 27.67 70.29L27.67 83.13L32.6 83.13L32.6 70.44C32.6 70.24 32.59 70 32.56 69.73C32.54 69.45 32.5 69.08 32.45 68.63C32.78 68.3 33.22 68.03 33.78 67.8C34.33 67.57 35.02 67.46 35.82 67.46C36.45 67.46 36.99 67.63 37.44 67.95C37.88 68.28 38.21 68.61 38.44 68.93L40.37 67.46C40.37 67.49 40.27 67.29 40.05 66.86Z" fill="#353535" fill-opacity="1.000000" fill-rule="nonzero"/>
		<path id="Vector" d="M52.28 81.46C51.77 81.69 51.19 81.8 50.53 81.8C49.88 81.8 49.41 81.56 49.07 81.07C48.73 80.58 48.56 79.63 48.56 78.22L48.56 67.08L52.73 67.08L52.73 65.38L48.56 65.38L48.56 59.72L45.53 59.72L43.63 61.99L43.63 65.39L41.36 65.39L41.36 67.09L43.63 67.09L43.63 77.99C43.63 79.8 44.12 81.18 45.09 82.11C46.07 83.04 47.41 83.5 49.13 83.5C50.29 83.5 51.28 83.34 52.09 83.01C52.9 82.69 53.55 82.29 54.06 81.84L53.53 80.78C53.2 81.01 52.78 81.24 52.28 81.46L52.28 81.46Z" fill="#353535" fill-opacity="1.000000" fill-rule="nonzero"/>
		<path id="Vector" d="M68.22 59.7C69.74 59.7 70.91 60.04 71.73 60.74C72.55 61.43 72.96 62.59 72.96 64.23L74.09 64.23L74.09 63.9L75.35 63.9L75.35 60.35C75.35 59.81 75.25 59.28 75.06 58.77C74.86 58.24 74.49 57.8 73.98 57.47C73.46 57.14 72.74 56.98 71.78 56.98L55.55 56.98L55.55 58L54.99 58L54.99 59.13L55.37 59.13C56.5 59.13 57.23 59.48 57.55 60.17C57.86 60.86 58.02 61.77 58.02 62.91L58.02 82.91L62.95 82.91L62.95 82.59L64.21 82.59L64.21 71.02L71.29 71.02L71.29 70.7L72.55 70.7L72.55 68.31L64.21 68.31L64.21 59.7L68.22 59.7L68.22 59.7ZM56.24 57.67L71.78 57.67C72.59 57.67 73.21 57.8 73.6 58.05C74 58.31 74.26 58.62 74.41 59.02C74.57 59.44 74.65 59.89 74.65 60.35L74.65 63.21L74.21 63.21C74.19 62.84 74.15 62.49 74.09 62.16L74.09 61.02C74.09 60.51 74.01 60.03 73.83 59.56C73.65 59.1 73.34 58.72 72.88 58.43C72.43 58.14 71.76 58 70.87 58L56.24 58L56.24 57.68L56.24 57.67ZM63.51 81.89L62.95 81.89L62.95 71.02L63.51 71.02L63.51 81.89ZM71.85 69L71.85 70L71.29 70L71.29 69.32L62.95 69.32L62.95 59.7L63.51 59.7L63.51 69L71.85 69Z" fill="#353535" fill-opacity="1.000000" fill-rule="nonzero"/>
		<path id="Vector" d="M80.5 65.84C80.01 65.54 79.32 65.38 78.44 65.38L73.89 65.38L73.89 66.51L74.27 66.51C75.4 66.51 76.13 66.86 76.45 67.55C76.76 68.25 76.92 69.16 76.92 70.29L76.92 83.12L81.85 83.12L81.85 70.29C81.85 69.03 81.75 68.05 81.55 67.34C81.34 66.64 81 66.14 80.5 65.83L80.5 65.84Z" fill="#353535" fill-opacity="1.000000" fill-rule="nonzero"/>
		<path id="Vector" d="M79.39 63.35C79.97 63.35 80.46 63.16 80.87 62.78C81.27 62.4 81.47 61.89 81.47 61.24C81.47 60.48 81.24 59.81 80.77 59.23C80.31 58.66 79.59 58.37 78.63 58.37C78.05 58.37 77.55 58.55 77.15 58.93C76.75 59.31 76.54 59.83 76.54 60.48C76.54 61.24 76.78 61.9 77.25 62.48C77.71 63.06 78.43 63.35 79.39 63.35Z" fill="#353535" fill-opacity="1.000000" fill-rule="nonzero"/>
		<path id="Vector" d="M98.4 79.35L94.72 73.24L101.13 65.39L98.59 65.39L93.62 71.46L91.8 68.41C91.25 67.47 90.61 66.74 89.89 66.2C89.17 65.66 88.19 65.39 86.95 65.39L83.35 65.39L83.35 66.14C83.93 66.24 84.53 66.54 85.15 67.05C85.77 67.55 86.35 68.26 86.88 69.16L90.52 75.24L84.11 83.13L86.65 83.13L91.62 77.05L93.48 80.11C94.03 81.04 94.67 81.77 95.39 82.31C96.11 82.86 97.09 83.13 98.33 83.13L101.93 83.13L101.93 82.37C101.35 82.27 100.75 81.97 100.13 81.46C99.51 80.96 98.93 80.26 98.4 79.35Z" fill="#353535" fill-opacity="1.000000" fill-rule="nonzero"/>
		<path id="Vector" d="M121.67 58.97C120.86 58.4 119.97 57.96 119.01 57.68C118.07 57.39 117.14 57.21 116.24 57.11C115.34 57.03 114.54 56.98 113.85 56.98L103.08 56.98L103.08 58.21L102.52 58.21L102.52 59.34L102.9 59.34C104.04 59.34 104.77 59.69 105.08 60.38C105.4 61.08 105.56 61.99 105.56 63.12L105.56 83.12L110.49 83.12L110.49 82.58L111.74 82.58L111.74 73.05L114.09 73.05C114.54 73.05 115.14 73 115.89 72.91C116.63 72.83 117.43 72.64 118.26 72.37C118.94 72.14 119.6 71.83 120.22 71.43C120.74 71.19 121.25 70.89 121.73 70.55C122.52 69.99 123.17 69.25 123.67 68.34C124.18 67.42 124.44 66.27 124.44 64.91C124.44 63.48 124.18 62.26 123.68 61.3C123.17 60.33 122.5 59.55 121.67 58.97L121.67 58.97ZM111.04 81.89L110.49 81.89L110.49 73.05L111.04 73.05L111.04 81.89ZM111.73 59.78C111.81 59.77 111.88 59.77 111.94 59.76C112.33 59.74 112.67 59.73 112.95 59.73C113.55 59.73 114.15 59.81 114.73 59.99C115.31 60.17 115.84 60.47 116.31 60.91C116.77 61.35 117.15 61.96 117.44 62.73C117.73 63.49 117.88 64.46 117.88 65.61C117.88 66.77 117.73 67.73 117.44 68.5C117.41 68.58 117.38 68.67 117.34 68.74C117.22 68.91 117.09 69.06 116.95 69.19C116.51 69.61 116.01 69.9 115.46 70.05C114.89 70.22 114.28 70.31 113.66 70.31L111.73 70.31L111.73 59.78ZM113.66 71C114.35 71 115.02 70.9 115.65 70.72C115.75 70.69 115.85 70.66 115.94 70.62C115.55 70.92 115.12 71.14 114.65 71.27C114.05 71.45 113.42 71.54 112.76 71.54L110.48 71.54L110.48 59.99C110.68 59.95 110.86 59.91 111.03 59.88L111.03 71L113.66 71L113.66 71ZM123.06 68.01C122.94 68.23 122.81 68.43 122.68 68.62C123.02 67.84 123.19 66.9 123.19 65.8C123.19 64.42 122.95 63.27 122.47 62.35C121.99 61.43 121.35 60.69 120.57 60.14C119.79 59.59 118.93 59.17 118.01 58.9C117.09 58.62 116.19 58.44 115.3 58.35C114.41 58.26 113.63 58.22 112.95 58.22L104.78 58.22C104.49 58.15 104.17 58.11 103.8 58.11L103.77 58.11L103.77 57.67L113.85 57.67C114.52 57.67 115.3 57.72 116.17 57.8C117.03 57.89 117.92 58.07 118.81 58.34C119.7 58.6 120.52 59.01 121.27 59.54C122.01 60.06 122.61 60.76 123.06 61.62C123.51 62.49 123.74 63.59 123.74 64.91C123.74 66.16 123.51 67.2 123.07 68.01L123.06 68.01Z" fill="#353535" fill-opacity="1.000000" fill-rule="nonzero"/>
		<path id="Vector" d="M141.19 66.86C140.98 66.43 140.65 66.07 140.22 65.76C139.89 65.51 139.5 65.32 139.05 65.2C138.59 65.07 138.09 65.01 137.53 65.01C136.39 65.01 135.43 65.21 134.63 65.6C133.84 65.98 133.21 66.38 132.75 66.78C132.48 66.28 132.09 65.92 131.6 65.71C131.1 65.49 130.43 65.39 129.57 65.39L125.82 65.39L125.82 66.52L126.2 66.52C127.33 66.52 128.05 66.86 128.36 67.56C128.66 68.25 128.81 69.16 128.81 70.29L128.81 83.13L133.74 83.13L133.74 70.44C133.74 70.24 133.73 70 133.71 69.73C133.68 69.45 133.64 69.08 133.59 68.63C133.92 68.3 134.36 68.03 134.92 67.8C135.47 67.57 136.16 67.46 136.97 67.46C137.6 67.46 138.14 67.63 138.58 67.95C139.02 68.28 139.35 68.61 139.58 68.93L141.52 67.46C141.52 67.49 141.41 67.29 141.19 66.86L141.19 66.86Z" fill="#353535" fill-opacity="1.000000" fill-rule="nonzero"/>
		<path id="Vector" d="M158 73.79C158 68.78 154.14 64.7 149.4 64.7C146.89 64.7 144.64 65.84 143.06 67.66C141.03 69.25 139.71 71.81 139.71 74.7C139.71 79.52 143.4 83.43 147.95 83.43C149.19 83.43 150.37 83.14 151.43 82.62C155.19 81.65 158 78.06 158 73.79ZM154.08 80.54C155.39 78.99 156.19 76.94 156.19 74.7C156.19 69.87 152.5 65.96 147.95 65.96C147.3 65.96 146.67 66.04 146.06 66.19C147.08 65.68 148.21 65.4 149.4 65.4C153.75 65.4 157.29 69.16 157.29 73.79C157.29 76.56 156.03 79.01 154.08 80.54Z" fill="#353535" fill-opacity="1.000000" fill-rule="nonzero"/>
		<path id="Vector" d="M5.09 93.4C5.74 93.54 6.19 93 6.79 92.93C7.09 92.9 7.35 93.05 7.63 93.16L7.96 92.86C7.77 92.91 7.55 92.91 7.35 92.83C7.05 92.72 6.77 92.55 6.43 92.57C5.82 92.6 5.28 93.25 4.65 93.01C4.33 92.9 4.06 92.67 3.73 92.57C3.43 92.47 3.11 92.46 2.79 92.5C2.46 92.55 2.14 92.67 1.82 92.8C1.56 92.9 1.25 93.01 0.96 92.96L1.28 93.31C1.92 93.43 2.5 93 3.11 92.88C3.47 92.81 3.85 92.81 4.18 92.99C4.48 93.14 4.76 93.33 5.09 93.4Z" fill="#353535" fill-opacity="1.000000" fill-rule="nonzero"/>
		<path id="Vector" d="M154.15 93.4C154.81 93.54 155.25 93 155.85 92.93C156.15 92.9 156.42 93.05 156.7 93.16L157.03 92.86C156.83 92.91 156.62 92.91 156.42 92.83C156.11 92.72 155.83 92.55 155.5 92.57C154.88 92.6 154.34 93.25 153.71 93.01C153.39 92.9 153.12 92.67 152.8 92.57C152.49 92.47 152.17 92.46 151.86 92.5C151.52 92.55 151.2 92.67 150.89 92.8C150.62 92.9 150.31 93.01 150.02 92.96L150.34 93.31C150.98 93.43 151.57 93 152.17 92.88C152.54 92.81 152.91 92.81 153.24 92.99C153.54 93.14 153.82 93.33 154.15 93.4Z" fill="#353535" fill-opacity="1.000000" fill-rule="nonzero"/>
		<path id="Vector" d="M100.99 24.1C101.06 24.05 101.12 24.01 101.18 23.97C101.42 23.8 101.64 23.6 101.84 23.4C102.21 23.03 102.53 22.62 102.78 22.17L102.78 12.14L68.2 46.57L75.86 46.57C76.48 45.49 77.47 44.6 78.56 44.03C79.53 43.51 80.58 43.34 81.63 43.05C81.65 43.04 81.75 43.01 81.79 43C81.83 42.98 81.87 42.97 81.91 42.95C81.92 42.95 81.94 42.94 81.96 42.93C82.16 42.82 82.28 42.75 82.51 42.58C83.01 42.2 83.47 41.72 83.81 41.2C84.34 40.37 84.47 39.44 84.72 38.51C85.02 37.37 85.7 36.41 86.58 35.63C87.55 34.77 88.71 34.25 89.96 33.95C90.19 33.9 90.43 33.85 90.66 33.8C90.76 33.77 90.87 33.74 90.97 33.72C91.01 33.71 91.09 33.68 91.13 33.67C91.23 33.62 91.4 33.56 91.25 33.62C91.31 33.59 91.38 33.57 91.44 33.53C91.44 33.53 91.5 33.5 91.52 33.49C91.74 33.35 91.95 33.2 92.14 33.03C93.01 32.26 93.58 31.34 93.86 30.22C94.1 29.26 94.28 28.34 94.86 27.52C95.66 26.38 96.77 25.52 98.06 25.01C98.56 24.81 99.08 24.67 99.61 24.55C99.84 24.5 100.08 24.45 100.31 24.39C100.35 24.38 100.58 24.3 100.55 24.32C100.58 24.3 100.63 24.29 100.66 24.27C100.63 24.28 100.81 24.19 100.89 24.16C100.9 24.15 100.98 24.09 100.98 24.09L100.99 24.1Z" fill="#353535" fill-opacity="1.000000" fill-rule="nonzero"/>
		<path id="Vector" d="M62.47 7.37C61.94 7.46 61.65 7.49 61.13 7.77C59.81 8.47 58.8 9.8 58.41 11.23C58.07 12.46 58.03 13.73 57.4 14.87C57.03 15.54 56.55 16.14 56 16.67L56 22.4C56.76 21.91 57.63 21.55 58.52 21.34C58.75 21.29 58.99 21.24 59.22 21.19C59.32 21.16 59.43 21.14 59.53 21.11C59.57 21.1 59.62 21.08 59.66 21.07C59.66 21.07 59.67 21.07 59.67 21.07C59.72 21.04 59.78 21.02 59.84 21C59.84 21 59.85 21 59.86 20.99C59.9 20.97 60.08 20.88 60.07 20.88C60.32 20.74 60.54 20.57 60.75 20.38C61.63 19.59 62.17 18.66 62.44 17.52C62.69 16.49 62.93 15.55 63.59 14.69C64.42 13.6 65.55 12.77 66.85 12.31C67.35 12.13 67.87 12.01 68.39 11.89C68.61 11.84 68.83 11.78 69.05 11.73C69.09 11.7 69.15 11.69 69.19 11.68C69.39 11.6 69.24 11.65 69.2 11.67C69.26 11.64 69.32 11.61 69.38 11.58C70.28 11.11 71.18 10.06 71.58 9.01C71.91 8.14 71.97 7.18 72.36 6.32C72.93 5.1 74.01 4.08 75.18 3.44C76.15 2.9 77.2 2.71 78.25 2.43C78.31 2.42 78.37 2.4 78.43 2.38C78.43 2.38 78.43 2.38 78.44 2.38C78.49 2.36 78.76 2.24 78.58 2.33C78.82 2.21 78.93 2.15 79.17 1.98C79.69 1.6 80.17 1.1 80.52 0.56C80.64 0.38 80.73 0.19 80.82 0L69.97 0C69.94 0.09 69.92 0.19 69.9 0.29C69.64 1.61 69.42 2.81 68.63 3.94C67.61 5.39 66.09 6.43 64.4 6.95C63.77 7.14 63.11 7.25 62.46 7.37L62.47 7.37Z" fill="#353535" fill-opacity="1.000000" fill-rule="nonzero"/>
		<path id="Vector" d="" fill="#353535" fill-opacity="1.000000" fill-rule="nonzero"/>
		<path id="Vector" d="M58.12 22.29C58.09 22.3 58.01 22.34 58 22.35C57.86 22.42 57.89 22.4 57.79 22.47C57.04 22.95 56.41 23.62 56 24.41L56 34.42L90.57 0L82.91 0C82.84 0.12 82.76 0.24 82.68 0.36C81.88 1.49 80.77 2.35 79.48 2.87C78.98 3.07 78.46 3.21 77.93 3.32C77.7 3.38 77.47 3.42 77.23 3.49C77.19 3.5 76.96 3.57 76.99 3.56C76.96 3.57 76.91 3.59 76.88 3.6C76.91 3.59 76.73 3.68 76.65 3.72C76.64 3.73 76.56 3.78 76.56 3.78C76.49 3.82 76.43 3.87 76.36 3.91C76.12 4.08 75.91 4.28 75.7 4.48C75.27 4.91 74.91 5.38 74.66 5.93C74.27 6.78 74.2 7.71 73.89 8.58C73.45 9.75 72.54 10.74 71.53 11.46C70.56 12.14 69.43 12.47 68.29 12.72C68.09 12.77 67.89 12.82 67.69 12.88C67.69 12.88 67.59 12.91 67.52 12.94C67.46 12.97 67.4 13 67.34 13.03C66.93 13.24 66.4 13.72 66.02 14.14C65.32 14.93 65.02 15.86 64.79 16.87C64.56 17.93 64.15 18.84 63.42 19.67C62.49 20.72 61.3 21.41 59.96 21.81C59.53 21.94 59.08 22.02 58.64 22.13C58.53 22.16 58.42 22.19 58.31 22.22C58.25 22.24 58.2 22.26 58.15 22.28C58.14 22.28 58.14 22.28 58.12 22.29L58.12 22.29Z" fill="#353535" fill-opacity="1.000000" fill-rule="nonzero"/>
		<path id="Vector" d="M97.15 39.01C98.48 38.55 99.68 37.22 100.18 35.89C100.62 34.73 100.62 33.47 101.08 32.32C101.44 31.41 102.04 30.58 102.78 29.88L102.78 24.19C101.85 24.79 100.8 25.09 99.73 25.34C99.52 25.38 99.32 25.43 99.12 25.48C99.12 25.49 99.01 25.53 98.94 25.55C98.93 25.56 98.92 25.56 98.91 25.57C98.87 25.59 98.82 25.61 98.77 25.63C98.62 25.71 98.37 25.88 98.17 26.05C97.9 26.27 97.65 26.53 97.42 26.79C96.71 27.6 96.44 28.55 96.21 29.56C95.95 30.69 95.47 31.64 94.66 32.48C93.71 33.47 92.53 34.11 91.22 34.47C90.77 34.59 90.31 34.67 89.86 34.79C89.81 34.81 89.76 34.82 89.71 34.84C89.7 34.84 89.69 34.85 89.67 34.85C89.64 34.87 89.6 34.88 89.56 34.89C89.55 34.9 89.54 34.9 89.53 34.91C89.3 35.03 89.17 35.1 88.93 35.27C88 35.98 87.33 36.95 87.02 38.08C86.77 39.02 86.64 39.96 86.1 40.8C85.36 41.95 84.25 42.88 82.99 43.41C82.45 43.64 81.88 43.81 81.31 43.94C81.08 44 80.84 44.04 80.61 44.1C80.52 44.12 80.43 44.15 80.34 44.18C80.34 44.18 80.34 44.18 80.34 44.18C80.3 44.2 80.24 44.21 80.2 44.23C80.19 44.23 80.19 44.23 80.18 44.24C80.17 44.24 80.16 44.25 80.15 44.25C80.08 44.29 80.02 44.31 79.96 44.35C79.93 44.37 79.85 44.42 79.75 44.48C79.49 44.65 79.26 44.85 79.05 45.07C78.59 45.51 78.21 46 77.95 46.57L88.81 46.57C89.07 45.45 89.16 44.32 89.73 43.29C90.57 41.77 91.97 40.57 93.57 39.9C94.28 39.6 95.03 39.43 95.78 39.29C96.07 39.24 96.37 39.19 96.67 39.13C96.75 39.11 96.83 39.1 96.9 39.08C96.99 39.05 97.07 39.03 97.15 39.01C97.12 39.02 97.02 39.06 97.15 39.01L97.15 39.01Z" fill="#353535" fill-opacity="1.000000" fill-rule="nonzero"/>
		<path id="Vector" d="M56.08 11.7C56.48 10.13 57.53 8.81 58.81 7.86C60.12 6.9 61.62 6.52 63.2 6.24C63.73 6.14 64.02 6.11 64.53 5.84C65.28 5.44 65.91 4.8 66.42 4.13C67.24 3.03 67.37 1.75 67.65 0.46C67.68 0.3 67.72 0.15 67.77 0L56 0L56 12.03C56.02 11.92 56.05 11.81 56.08 11.7L56.08 11.7Z" fill="#353535" fill-opacity="1.000000" fill-rule="nonzero"/>
		<path id="Vector" d="M102.55 35.35C102.01 36.93 100.76 38.24 99.35 39.1C98.67 39.52 97.92 39.81 97.15 40.01C96.77 40.1 96.38 40.18 95.99 40.25C95.74 40.3 95.32 40.37 95.19 40.39C94.99 40.44 94.76 40.5 94.55 40.58C94.31 40.68 94.04 40.82 93.8 41C93.1 41.5 92.45 42.18 92.02 42.94C91.38 44.07 91.35 45.34 91.02 46.56L102.78 46.56L102.78 34.53C102.71 34.8 102.64 35.08 102.55 35.35L102.55 35.35Z" fill="#353535" fill-opacity="1.000000" fill-rule="nonzero"/>
		<path id="Vector" d="M58.29 22.22C58.29 22.22 58.29 22.22 58.29 22.22C58.11 22.27 58.23 22.24 58.29 22.22Z" fill="#353535" fill-opacity="1.000000" fill-rule="nonzero"/>
		<path id="Vector" d="M102.78 5.08L61.1 46.57L65.98 46.57L102.78 9.93L102.78 5.08Z" fill="#353535" fill-opacity="1.000000" fill-rule="nonzero"/>
		<path id="Vector" d="M67.51 12.94C67.51 12.94 67.49 12.95 67.48 12.95C67.38 12.99 67.48 12.95 67.51 12.94Z" fill="#353535" fill-opacity="1.000000" fill-rule="nonzero"/>
		<path id="Vector" d="M92.79 0L56 36.63L56 41.49L97.67 0L92.79 0Z" fill="#353535" fill-opacity="1.000000" fill-rule="nonzero"/>
	</g>
</svg>
