<svg width="240.000000" height="219.996826" viewBox="0 0 240 219.997" fill="none" xmlns="http://www.w3.org/2000/svg" xmlns:xlink="http://www.w3.org/1999/xlink">
	<desc>
			Created with Pixso.
	</desc>
	<defs/>
	<path id="Vector" d="M14.9 212.01L17.26 212.01L17.26 218.03L18.24 218.03L18.24 212.01L20.6 212.01L20.6 211.15L14.9 211.15L14.9 212.01Z" fill="#FFFFFF" fill-opacity="1.000000" fill-rule="nonzero"/>
	<path id="Vector" d="M23.31 213.74L23.31 212.82L22.4 212.82L22.4 218.03L23.35 218.03L23.35 215.44C23.35 214.87 23.49 214.43 23.79 214.13C24.08 213.83 24.48 213.68 24.99 213.68L25.1 213.68C25.13 213.68 25.17 213.68 25.21 213.69L25.21 212.77C24.71 212.77 24.29 212.87 23.95 213.06C23.66 213.22 23.45 213.45 23.31 213.74Z" fill="#FFFFFF" fill-opacity="1.000000" fill-rule="nonzero"/>
	<path id="Vector" d="M28.88 212.77C28.46 212.77 28.07 212.83 27.69 212.95C27.31 213.06 26.99 213.23 26.72 213.44L27.11 214.15C27.32 213.98 27.57 213.84 27.86 213.74C28.16 213.64 28.46 213.59 28.77 213.59C29.24 213.59 29.58 213.7 29.82 213.92C30.05 214.14 30.17 214.45 30.17 214.85L30.17 215.03L28.67 215.03C28.15 215.03 27.74 215.1 27.43 215.24C27.13 215.38 26.91 215.56 26.77 215.79C26.64 216.02 26.57 216.28 26.57 216.56C26.57 216.84 26.65 217.12 26.8 217.35C26.96 217.58 27.19 217.76 27.48 217.89C27.77 218.02 28.11 218.09 28.5 218.09C28.98 218.09 29.38 218 29.69 217.82C29.92 217.69 30.09 217.51 30.22 217.31L30.22 218.03L31.11 218.03L31.11 214.89C31.11 214.17 30.92 213.64 30.53 213.3C30.15 212.95 29.59 212.78 28.88 212.78L28.88 212.77ZM29.59 217.13C29.33 217.28 29.01 217.36 28.66 217.36C28.31 217.36 28.02 217.28 27.82 217.13C27.61 216.98 27.51 216.77 27.51 216.52C27.51 216.3 27.59 216.11 27.76 215.95C27.92 215.79 28.24 215.71 28.72 215.71L30.18 215.71L30.18 216.44C30.06 216.74 29.86 216.97 29.6 217.13L29.59 217.13Z" fill="#FFFFFF" fill-opacity="1.000000" fill-rule="nonzero"/>
	<path id="Vector" d="M37.77 213.02C37.45 212.86 37.07 212.78 36.64 212.78C36.17 212.78 35.76 212.87 35.4 213.06C35.13 213.21 34.92 213.41 34.76 213.65L34.76 212.83L33.85 212.83L33.85 218.03L34.8 218.03L34.8 215.35C34.8 214.97 34.87 214.66 35 214.4C35.14 214.14 35.33 213.95 35.58 213.82C35.83 213.69 36.12 213.62 36.46 213.62C36.9 213.62 37.25 213.75 37.5 214C37.75 214.26 37.87 214.64 37.87 215.15L37.87 218.03L38.81 218.03L38.81 215.04C38.81 214.53 38.72 214.1 38.54 213.77C38.35 213.43 38.1 213.19 37.78 213.02L37.77 213.02Z" fill="#FFFFFF" fill-opacity="1.000000" fill-rule="nonzero"/>
	<path id="Vector" d="M44.66 215.43C44.46 215.33 44.25 215.25 44.01 215.2C43.78 215.14 43.54 215.09 43.3 215.06C43.07 215.02 42.85 214.98 42.66 214.92C42.46 214.87 42.31 214.8 42.18 214.7C42.06 214.61 42 214.47 42 214.29C42 214.08 42.1 213.91 42.31 213.78C42.51 213.65 42.82 213.58 43.24 213.58C43.49 213.58 43.75 213.61 44.01 213.67C44.26 213.72 44.51 213.83 44.74 213.99L45.15 213.24C44.93 213.09 44.64 212.98 44.28 212.9C43.93 212.81 43.59 212.77 43.24 212.77C42.8 212.77 42.41 212.84 42.08 212.96C41.76 213.09 41.51 213.27 41.33 213.51C41.15 213.74 41.06 214.02 41.06 214.34C41.06 214.65 41.12 214.88 41.24 215.06C41.36 215.24 41.52 215.38 41.71 215.48C41.91 215.58 42.13 215.66 42.37 215.71C42.6 215.77 42.84 215.81 43.08 215.85C43.31 215.89 43.53 215.93 43.72 215.98C43.91 216.02 44.07 216.09 44.19 216.18C44.3 216.27 44.36 216.4 44.36 216.56C44.36 216.79 44.27 216.96 44.08 217.09C43.88 217.21 43.57 217.27 43.13 217.27C42.78 217.27 42.45 217.22 42.12 217.12C41.79 217.01 41.52 216.89 41.29 216.74L40.9 217.48C41.12 217.65 41.43 217.8 41.82 217.91C42.21 218.03 42.62 218.09 43.05 218.09C43.52 218.09 43.92 218.03 44.26 217.9C44.59 217.77 44.85 217.6 45.04 217.36C45.22 217.13 45.31 216.86 45.31 216.55C45.31 216.25 45.25 216.02 45.13 215.84C45.01 215.66 44.85 215.53 44.66 215.43Z" fill="#FFFFFF" fill-opacity="1.000000" fill-rule="nonzero"/>
	<path id="Vector" d="M49.34 210.68C48.79 210.68 48.36 210.83 48.07 211.14C47.77 211.44 47.62 211.85 47.62 212.36L47.62 212.82L46.73 212.82L46.73 213.6L47.62 213.6L47.62 218.03L48.56 218.03L48.56 213.6L50.06 213.6L50.06 212.82L48.54 212.82L48.54 212.37C48.54 212.07 48.62 211.84 48.76 211.69C48.91 211.53 49.12 211.46 49.39 211.46C49.53 211.46 49.66 211.48 49.79 211.52C49.91 211.56 50.02 211.62 50.12 211.7L50.41 210.98C50.28 210.88 50.12 210.8 49.93 210.75C49.74 210.7 49.55 210.68 49.35 210.68L49.34 210.68Z" fill="#FFFFFF" fill-opacity="1.000000" fill-rule="nonzero"/>
	<path id="Vector" d="M55.5 213.11C55.09 212.89 54.62 212.77 54.1 212.77C53.58 212.77 53.11 212.89 52.7 213.12C52.29 213.34 51.97 213.66 51.73 214.06C51.5 214.45 51.38 214.91 51.38 215.43C51.38 215.94 51.49 216.4 51.73 216.8C51.97 217.2 52.29 217.52 52.7 217.75C53.11 217.97 53.58 218.09 54.1 218.09C54.61 218.09 55.08 217.98 55.49 217.75C55.9 217.52 56.23 217.2 56.46 216.8C56.69 216.4 56.81 215.95 56.81 215.43C56.81 214.91 56.69 214.45 56.46 214.05C56.23 213.65 55.9 213.34 55.49 213.11L55.5 213.11ZM55.63 216.39C55.48 216.67 55.27 216.89 55 217.04C54.74 217.19 54.44 217.26 54.1 217.26C53.76 217.26 53.47 217.19 53.2 217.04C52.94 216.89 52.73 216.67 52.57 216.39C52.41 216.11 52.34 215.79 52.34 215.42C52.34 215.05 52.42 214.73 52.57 214.46C52.73 214.18 52.94 213.97 53.2 213.82C53.47 213.67 53.77 213.6 54.1 213.6C54.43 213.6 54.74 213.67 55 213.82C55.27 213.97 55.48 214.18 55.63 214.46C55.78 214.73 55.86 215.05 55.86 215.42C55.86 215.79 55.78 216.11 55.63 216.39Z" fill="#FFFFFF" fill-opacity="1.000000" fill-rule="nonzero"/>
	<path id="Vector" d="M60.02 213.74L60.02 212.82L59.11 212.82L59.11 218.03L60.06 218.03L60.06 215.44C60.06 214.87 60.21 214.43 60.5 214.13C60.8 213.83 61.2 213.68 61.71 213.68L61.81 213.68C61.85 213.68 61.88 213.68 61.93 213.69L61.93 212.77C61.42 212.77 61 212.87 60.66 213.06C60.37 213.22 60.17 213.45 60.02 213.74Z" fill="#FFFFFF" fill-opacity="1.000000" fill-rule="nonzero"/>
	<path id="Vector" d="M71.72 213.02C71.4 212.86 71.03 212.78 70.61 212.78C70.08 212.78 69.62 212.9 69.23 213.14C68.95 213.31 68.75 213.54 68.59 213.78C68.46 213.53 68.3 213.3 68.07 213.15C67.71 212.9 67.28 212.78 66.78 212.78C66.32 212.78 65.93 212.87 65.59 213.06C65.32 213.21 65.13 213.41 64.97 213.65L64.97 212.83L64.07 212.83L64.07 218.04L65.01 218.04L65.01 215.36C65.01 214.98 65.08 214.66 65.21 214.4C65.34 214.14 65.53 213.95 65.76 213.82C66 213.69 66.27 213.63 66.58 213.63C67.02 213.63 67.35 213.75 67.58 214.01C67.82 214.26 67.93 214.64 67.93 215.15L67.93 218.04L68.88 218.04L68.88 215.36C68.88 214.98 68.94 214.66 69.07 214.4C69.2 214.14 69.38 213.95 69.62 213.82C69.85 213.69 70.13 213.63 70.45 213.63C70.87 213.63 71.21 213.75 71.45 214.01C71.68 214.26 71.8 214.64 71.8 215.15L71.8 218.04L72.75 218.04L72.75 215.04C72.75 214.53 72.66 214.11 72.48 213.77C72.3 213.44 72.04 213.19 71.72 213.03L71.72 213.02Z" fill="#FFFFFF" fill-opacity="1.000000" fill-rule="nonzero"/>
	<path id="Vector" d="M75.95 210.59C75.77 210.59 75.61 210.65 75.49 210.77C75.37 210.89 75.31 211.03 75.31 211.21C75.31 211.39 75.37 211.53 75.49 211.64C75.61 211.76 75.77 211.82 75.95 211.82C76.13 211.82 76.3 211.76 76.41 211.64C76.53 211.52 76.59 211.37 76.59 211.19C76.59 211.01 76.53 210.88 76.41 210.76C76.29 210.65 76.13 210.59 75.95 210.59Z" fill="#FFFFFF" fill-opacity="1.000000" fill-rule="nonzero"/>
	<path id="Vector" d="M75.48 212.82L76.42 212.82L76.42 218.03L75.48 218.03L75.48 212.82Z" fill="#FFFFFF" fill-opacity="1.000000" fill-rule="evenodd"/>
	<path id="Vector" d="M83.13 213.02C82.81 212.86 82.43 212.78 82 212.78C81.53 212.78 81.12 212.87 80.76 213.06C80.49 213.21 80.29 213.41 80.12 213.65L80.12 212.83L79.21 212.83L79.21 218.03L80.16 218.03L80.16 215.35C80.16 214.97 80.23 214.66 80.36 214.4C80.5 214.14 80.69 213.95 80.94 213.82C81.19 213.69 81.48 213.62 81.82 213.62C82.26 213.62 82.61 213.75 82.86 214C83.11 214.26 83.23 214.64 83.23 215.15L83.23 218.03L84.17 218.03L84.17 215.04C84.17 214.53 84.08 214.1 83.9 213.77C83.71 213.43 83.46 213.19 83.14 213.02L83.13 213.02Z" fill="#FFFFFF" fill-opacity="1.000000" fill-rule="nonzero"/>
	<path id="Vector" d="M91.01 213.66C90.82 213.4 90.59 213.18 90.31 213.04C89.94 212.86 89.53 212.77 89.08 212.77C88.58 212.77 88.13 212.88 87.73 213.09C87.33 213.3 87.02 213.59 86.78 213.97C86.55 214.35 86.43 214.78 86.43 215.29C86.43 215.79 86.55 216.23 86.78 216.61C87.02 216.99 87.33 217.28 87.73 217.5C88.13 217.71 88.58 217.81 89.08 217.81C89.53 217.81 89.94 217.72 90.31 217.53C90.57 217.4 90.78 217.2 90.97 216.97L90.97 217.42C90.97 218.01 90.82 218.45 90.53 218.73C90.25 219.02 89.79 219.17 89.17 219.17C88.79 219.17 88.42 219.1 88.06 218.98C87.7 218.86 87.4 218.7 87.16 218.49L86.71 219.22C86.99 219.47 87.36 219.66 87.81 219.79C88.26 219.93 88.72 219.99 89.2 219.99C90.09 219.99 90.76 219.77 91.22 219.34C91.68 218.91 91.91 218.23 91.91 217.32L91.91 212.82L91.01 212.82L91.01 213.65L91.01 213.66ZM90.75 216.17C90.6 216.43 90.39 216.63 90.12 216.77C89.85 216.92 89.54 216.99 89.19 216.99C88.84 216.99 88.53 216.92 88.26 216.77C87.99 216.63 87.77 216.43 87.62 216.17C87.46 215.92 87.39 215.62 87.39 215.29C87.39 214.95 87.46 214.66 87.62 214.41C87.77 214.15 87.99 213.95 88.26 213.81C88.53 213.67 88.85 213.6 89.19 213.6C89.54 213.6 89.85 213.67 90.12 213.81C90.39 213.95 90.6 214.15 90.75 214.41C90.91 214.66 90.98 214.95 90.98 215.29C90.98 215.62 90.91 215.92 90.75 216.17Z" fill="#FFFFFF" fill-opacity="1.000000" fill-rule="nonzero"/>
	<path id="Vector" d="M102.34 214.72C102.09 214.58 101.82 214.47 101.52 214.38C101.22 214.3 100.92 214.22 100.62 214.15C100.33 214.08 100.06 214.01 99.81 213.92C99.56 213.83 99.36 213.72 99.21 213.58C99.05 213.43 98.98 213.24 98.98 213C98.98 212.79 99.03 212.61 99.15 212.45C99.27 212.28 99.45 212.15 99.7 212.05C99.95 211.96 100.27 211.91 100.66 211.91C100.97 211.91 101.29 211.95 101.61 212.04C101.94 212.13 102.26 212.27 102.55 212.47L102.88 211.68C102.59 211.48 102.25 211.33 101.85 211.23C101.45 211.12 101.06 211.07 100.66 211.07C100.05 211.07 99.56 211.16 99.16 211.34C98.77 211.52 98.48 211.76 98.3 212.06C98.11 212.36 98.01 212.69 98.01 213.04C98.01 213.39 98.09 213.7 98.24 213.94C98.39 214.17 98.59 214.36 98.84 214.49C99.08 214.63 99.36 214.74 99.66 214.83C99.95 214.92 100.25 215 100.55 215.06C100.85 215.13 101.12 215.21 101.36 215.29C101.61 215.38 101.81 215.5 101.96 215.64C102.12 215.78 102.2 215.98 102.2 216.21C102.2 216.41 102.13 216.59 102.02 216.76C101.9 216.92 101.71 217.04 101.47 217.13C101.21 217.22 100.89 217.27 100.49 217.27C100.05 217.27 99.62 217.19 99.22 217.04C98.81 216.89 98.47 216.7 98.21 216.47L97.85 217.24C98.12 217.5 98.5 217.7 98.98 217.86C99.46 218.02 99.96 218.1 100.49 218.1C101.09 218.1 101.59 218.01 101.99 217.83C102.39 217.65 102.68 217.41 102.87 217.12C103.06 216.82 103.16 216.49 103.16 216.15C103.16 215.8 103.08 215.49 102.93 215.27C102.78 215.04 102.58 214.85 102.34 214.71L102.34 214.72Z" fill="#FFFFFF" fill-opacity="1.000000" fill-rule="nonzero"/>
	<path id="Vector" d="M109.58 213.11C109.18 212.88 108.73 212.77 108.22 212.77C107.77 212.77 107.37 212.87 107.01 213.07C106.75 213.21 106.54 213.43 106.36 213.68L106.36 212.82L105.45 212.82L105.45 219.94L106.4 219.94L106.4 217.2C106.58 217.44 106.78 217.65 107.03 217.79C107.39 217.99 107.79 218.09 108.22 218.09C108.73 218.09 109.19 217.98 109.58 217.75C109.97 217.53 110.29 217.22 110.52 216.82C110.75 216.42 110.86 215.96 110.86 215.42C110.86 214.89 110.75 214.43 110.52 214.03C110.29 213.64 109.97 213.33 109.58 213.11ZM109.67 216.39C109.52 216.67 109.31 216.89 109.04 217.04C108.78 217.19 108.47 217.26 108.14 217.26C107.8 217.26 107.51 217.19 107.25 217.04C106.98 216.89 106.77 216.67 106.61 216.39C106.46 216.11 106.38 215.79 106.38 215.42C106.38 215.05 106.46 214.73 106.61 214.46C106.77 214.18 106.98 213.97 107.25 213.82C107.51 213.67 107.81 213.6 108.14 213.6C108.47 213.6 108.77 213.67 109.04 213.82C109.31 213.97 109.52 214.18 109.67 214.46C109.83 214.73 109.91 215.05 109.91 215.42C109.91 215.79 109.83 216.11 109.67 216.39Z" fill="#FFFFFF" fill-opacity="1.000000" fill-rule="nonzero"/>
	<path id="Vector" d="M115.01 212.77C114.6 212.77 114.2 212.83 113.82 212.95C113.44 213.06 113.12 213.23 112.85 213.44L113.25 214.15C113.45 213.98 113.7 213.84 114 213.74C114.29 213.64 114.59 213.59 114.9 213.59C115.37 213.59 115.72 213.7 115.95 213.92C116.19 214.14 116.3 214.45 116.3 214.85L116.3 215.03L114.8 215.03C114.28 215.03 113.87 215.1 113.57 215.24C113.26 215.38 113.04 215.56 112.9 215.79C112.77 216.02 112.7 216.28 112.7 216.56C112.7 216.84 112.78 217.12 112.94 217.35C113.1 217.58 113.32 217.76 113.61 217.89C113.91 218.02 114.24 218.09 114.63 218.09C115.11 218.09 115.51 218 115.83 217.82C116.06 217.69 116.22 217.51 116.35 217.31L116.35 218.03L117.25 218.03L117.25 214.89C117.25 214.17 117.05 213.64 116.67 213.3C116.28 212.95 115.73 212.78 115.01 212.78L115.01 212.77ZM115.73 217.13C115.46 217.28 115.15 217.36 114.8 217.36C114.44 217.36 114.15 217.28 113.95 217.13C113.74 216.98 113.64 216.77 113.64 216.52C113.64 216.3 113.73 216.11 113.89 215.95C114.06 215.79 114.38 215.71 114.85 215.71L116.31 215.71L116.31 216.44C116.19 216.74 116 216.97 115.73 217.13L115.73 217.13Z" fill="#FFFFFF" fill-opacity="1.000000" fill-rule="nonzero"/>
	<path id="Vector" d="M121.34 213.82C121.61 213.67 121.91 213.6 122.26 213.6C122.54 213.6 122.8 213.66 123.05 213.78C123.29 213.9 123.51 214.09 123.67 214.34L124.39 213.88C124.19 213.52 123.9 213.24 123.53 213.05C123.16 212.86 122.74 212.77 122.26 212.77C121.73 212.77 121.26 212.88 120.84 213.11C120.42 213.33 120.09 213.65 119.86 214.05C119.62 214.45 119.5 214.9 119.5 215.42C119.5 215.94 119.62 216.4 119.86 216.8C120.09 217.2 120.42 217.51 120.84 217.74C121.26 217.97 121.73 218.09 122.26 218.09C122.74 218.09 123.16 217.99 123.53 217.8C123.9 217.61 124.19 217.33 124.39 216.97L123.67 216.52C123.5 216.77 123.29 216.96 123.05 217.08C122.8 217.2 122.54 217.26 122.26 217.26C121.91 217.26 121.61 217.19 121.34 217.04C121.07 216.89 120.86 216.67 120.7 216.4C120.54 216.12 120.46 215.8 120.46 215.42C120.46 215.05 120.54 214.73 120.7 214.46C120.86 214.18 121.07 213.97 121.34 213.82Z" fill="#FFFFFF" fill-opacity="1.000000" fill-rule="nonzero"/>
	<path id="Vector" d="M130.01 213.11C129.62 212.88 129.17 212.77 128.67 212.77C128.16 212.77 127.72 212.89 127.32 213.11C126.93 213.34 126.61 213.65 126.38 214.05C126.16 214.45 126.05 214.91 126.05 215.43C126.05 215.95 126.16 216.4 126.39 216.8C126.63 217.2 126.96 217.52 127.38 217.75C127.81 217.97 128.3 218.09 128.85 218.09C129.29 218.09 129.68 218.02 130.03 217.87C130.38 217.73 130.68 217.52 130.91 217.24L130.39 216.63C130.2 216.85 129.98 217 129.73 217.11C129.47 217.21 129.19 217.26 128.88 217.26C128.51 217.26 128.18 217.19 127.89 217.04C127.6 216.89 127.37 216.67 127.21 216.4C127.09 216.2 127.03 215.98 127 215.74L131.23 215.74C131.23 215.69 131.24 215.65 131.24 215.59C131.25 215.54 131.25 215.5 131.25 215.46C131.25 214.92 131.14 214.45 130.92 214.05C130.7 213.65 130.4 213.33 130.01 213.11L130.01 213.11ZM127.79 213.79C128.04 213.64 128.34 213.57 128.66 213.57C128.99 213.57 129.29 213.64 129.55 213.79C129.8 213.94 130 214.14 130.14 214.4C130.25 214.6 130.31 214.82 130.33 215.06L127 215.06C127.03 214.83 127.08 214.6 127.19 214.41C127.33 214.14 127.53 213.94 127.79 213.79L127.79 213.79Z" fill="#FFFFFF" fill-opacity="1.000000" fill-rule="nonzero"/>
	<path id="Vector" d="M136.64 215.43C136.45 215.33 136.23 215.25 136 215.2C135.76 215.14 135.53 215.09 135.29 215.06C135.06 215.02 134.84 214.98 134.65 214.92C134.45 214.87 134.29 214.8 134.17 214.7C134.05 214.61 133.99 214.47 133.99 214.29C133.99 214.08 134.09 213.91 134.3 213.78C134.5 213.65 134.81 213.58 135.22 213.58C135.48 213.58 135.74 213.61 135.99 213.67C136.25 213.72 136.5 213.83 136.73 213.99L137.13 213.24C136.91 213.09 136.62 212.98 136.27 212.9C135.92 212.81 135.57 212.77 135.23 212.77C134.78 212.77 134.4 212.84 134.07 212.96C133.75 213.09 133.49 213.27 133.32 213.51C133.14 213.74 133.05 214.02 133.05 214.34C133.05 214.65 133.11 214.88 133.23 215.06C133.35 215.24 133.5 215.38 133.7 215.48C133.9 215.58 134.12 215.66 134.35 215.71C134.59 215.77 134.83 215.81 135.06 215.85C135.3 215.89 135.52 215.93 135.71 215.98C135.9 216.02 136.06 216.09 136.17 216.18C136.29 216.27 136.35 216.4 136.35 216.56C136.35 216.79 136.25 216.96 136.06 217.09C135.87 217.21 135.55 217.27 135.11 217.27C134.77 217.27 134.44 217.22 134.11 217.12C133.78 217.01 133.5 216.89 133.28 216.74L132.88 217.48C133.1 217.65 133.41 217.8 133.8 217.91C134.19 218.03 134.61 218.09 135.04 218.09C135.51 218.09 135.91 218.03 136.24 217.9C136.58 217.77 136.84 217.6 137.02 217.36C137.2 217.13 137.3 216.86 137.3 216.55C137.3 216.25 137.24 216.02 137.12 215.84C137 215.66 136.84 215.53 136.64 215.43Z" fill="#FFFFFF" fill-opacity="1.000000" fill-rule="nonzero"/>
	<path id="Vector" d="M148.61 216.98L147.06 212.82L146.26 212.82L144.68 216.97L143.17 212.82L142.27 212.82L144.21 218.03L145.12 218.03L146.64 214.08L148.16 218.03L149.06 218.03L151.01 212.82L150.17 212.82L148.61 216.98Z" fill="#FFFFFF" fill-opacity="1.000000" fill-rule="nonzero"/>
	<path id="Vector" d="M152.96 212.82L153.9 212.82L153.9 218.03L152.96 218.03L152.96 212.82Z" fill="#FFFFFF" fill-opacity="1.000000" fill-rule="evenodd"/>
	<path id="Vector" d="M153.43 210.59C153.25 210.59 153.09 210.65 152.97 210.77C152.85 210.89 152.79 211.03 152.79 211.21C152.79 211.39 152.85 211.53 152.97 211.64C153.09 211.76 153.25 211.82 153.43 211.82C153.61 211.82 153.77 211.76 153.89 211.64C154.01 211.52 154.07 211.37 154.07 211.19C154.07 211.01 154.01 210.88 153.89 210.76C153.77 210.65 153.61 210.59 153.43 210.59Z" fill="#FFFFFF" fill-opacity="1.000000" fill-rule="nonzero"/>
	<path id="Vector" d="M158.6 217.29C158.34 217.29 158.13 217.22 157.99 217.07C157.85 216.92 157.78 216.7 157.78 216.42L157.78 213.6L159.28 213.6L159.28 212.82L157.78 212.82L157.78 211.68L156.83 211.68L156.83 212.82L155.94 212.82L155.94 213.6L156.83 213.6L156.83 216.46C156.83 216.98 156.98 217.38 157.26 217.67C157.55 217.95 157.96 218.09 158.49 218.09C158.7 218.09 158.91 218.06 159.11 218C159.31 217.94 159.48 217.85 159.63 217.72L159.33 217.04C159.13 217.21 158.89 217.29 158.59 217.29L158.6 217.29Z" fill="#FFFFFF" fill-opacity="1.000000" fill-rule="nonzero"/>
	<path id="Vector" d="M165.68 213.02C165.35 212.86 164.98 212.78 164.55 212.78C164.08 212.78 163.66 212.87 163.31 213.06C163.06 213.2 162.87 213.38 162.71 213.6L162.71 210.74L161.76 210.74L161.76 218.03L162.71 218.03L162.71 215.35C162.71 214.97 162.78 214.65 162.91 214.4C163.04 214.14 163.24 213.95 163.49 213.82C163.74 213.69 164.03 213.62 164.36 213.62C164.81 213.62 165.16 213.75 165.4 214C165.65 214.25 165.77 214.64 165.77 215.14L165.77 218.03L166.72 218.03L166.72 215.03C166.72 214.52 166.63 214.1 166.45 213.77C166.26 213.43 166.01 213.18 165.68 213.02L165.68 213.02Z" fill="#FFFFFF" fill-opacity="1.000000" fill-rule="nonzero"/>
	<path id="Vector" d="M177.47 211.44C177.05 211.25 176.53 211.15 175.93 211.15L173.24 211.15L173.24 218.03L174.22 218.03L174.22 215.95L175.93 215.95C176.53 215.95 177.04 215.85 177.47 215.66C177.9 215.46 178.23 215.19 178.46 214.83C178.69 214.47 178.81 214.05 178.81 213.55C178.81 213.05 178.69 212.62 178.46 212.26C178.23 211.9 177.9 211.62 177.47 211.43L177.47 211.44ZM177.33 214.69C177 214.96 176.53 215.09 175.9 215.09L174.22 215.09L174.22 212.01L175.9 212.01C176.53 212.01 177 212.14 177.33 212.41C177.66 212.67 177.82 213.06 177.82 213.55C177.82 214.03 177.65 214.42 177.33 214.69L177.33 214.69Z" fill="#FFFFFF" fill-opacity="1.000000" fill-rule="nonzero"/>
	<path id="Vector" d="M181.92 213.74L181.92 212.82L181.01 212.82L181.01 218.03L181.96 218.03L181.96 215.44C181.96 214.87 182.11 214.43 182.4 214.13C182.7 213.83 183.1 213.68 183.61 213.68L183.71 213.68C183.75 213.68 183.78 213.68 183.82 213.69L183.82 212.77C183.32 212.77 182.9 212.87 182.56 213.06C182.27 213.22 182.07 213.45 181.92 213.74Z" fill="#FFFFFF" fill-opacity="1.000000" fill-rule="nonzero"/>
	<path id="Vector" d="M189.41 213.11C189.02 212.88 188.57 212.77 188.07 212.77C187.56 212.77 187.12 212.89 186.72 213.11C186.32 213.34 186.01 213.65 185.78 214.05C185.55 214.45 185.44 214.91 185.44 215.43C185.44 215.95 185.56 216.4 185.79 216.8C186.02 217.2 186.35 217.52 186.78 217.75C187.2 217.97 187.69 218.09 188.25 218.09C188.68 218.09 189.08 218.02 189.43 217.87C189.78 217.73 190.07 217.52 190.31 217.24L189.79 216.63C189.6 216.85 189.38 217 189.12 217.11C188.87 217.21 188.59 217.26 188.28 217.26C187.91 217.26 187.58 217.19 187.28 217.04C187 216.89 186.77 216.67 186.61 216.4C186.49 216.2 186.43 215.98 186.4 215.74L190.63 215.74C190.63 215.69 190.64 215.65 190.64 215.59C190.65 215.54 190.65 215.5 190.65 215.46C190.65 214.92 190.54 214.45 190.32 214.05C190.1 213.65 189.8 213.33 189.41 213.11L189.41 213.11ZM187.19 213.79C187.44 213.64 187.73 213.57 188.06 213.57C188.39 213.57 188.69 213.64 188.95 213.79C189.2 213.94 189.4 214.14 189.54 214.4C189.65 214.6 189.71 214.82 189.73 215.06L186.4 215.06C186.43 214.83 186.48 214.6 186.59 214.41C186.73 214.14 186.93 213.94 187.19 213.79L187.19 213.79Z" fill="#FFFFFF" fill-opacity="1.000000" fill-rule="nonzero"/>
	<path id="Vector" d="M194.29 213.82C194.56 213.67 194.87 213.6 195.21 213.6C195.49 213.6 195.76 213.66 196 213.78C196.25 213.9 196.46 214.09 196.63 214.34L197.35 213.88C197.14 213.52 196.85 213.24 196.48 213.05C196.11 212.86 195.69 212.77 195.22 212.77C194.69 212.77 194.21 212.88 193.79 213.11C193.38 213.33 193.05 213.65 192.81 214.05C192.58 214.45 192.46 214.9 192.46 215.42C192.46 215.94 192.57 216.4 192.81 216.8C193.05 217.2 193.38 217.51 193.79 217.74C194.21 217.97 194.69 218.09 195.22 218.09C195.69 218.09 196.11 217.99 196.48 217.8C196.85 217.61 197.14 217.33 197.35 216.97L196.63 216.52C196.46 216.77 196.25 216.96 196 217.08C195.76 217.2 195.49 217.26 195.21 217.26C194.87 217.26 194.56 217.19 194.29 217.04C194.02 216.89 193.81 216.67 193.65 216.4C193.49 216.12 193.42 215.8 193.42 215.42C193.42 215.05 193.5 214.73 193.65 214.46C193.81 214.18 194.02 213.97 194.29 213.82Z" fill="#FFFFFF" fill-opacity="1.000000" fill-rule="nonzero"/>
	<path id="Vector" d="M199.96 210.59C199.78 210.59 199.63 210.65 199.5 210.77C199.38 210.89 199.32 211.03 199.32 211.21C199.32 211.39 199.38 211.53 199.5 211.64C199.63 211.76 199.78 211.82 199.96 211.82C200.14 211.82 200.31 211.76 200.42 211.64C200.54 211.52 200.6 211.37 200.6 211.19C200.6 211.01 200.54 210.88 200.42 210.76C200.3 210.65 200.15 210.59 199.96 210.59Z" fill="#FFFFFF" fill-opacity="1.000000" fill-rule="nonzero"/>
	<path id="Vector" d="M199.49 212.82L200.43 212.82L200.43 218.03L199.49 218.03L199.49 212.82Z" fill="#FFFFFF" fill-opacity="1.000000" fill-rule="evenodd"/>
	<path id="Vector" d="M206.33 215.43C206.13 215.33 205.92 215.25 205.68 215.2C205.45 215.14 205.21 215.09 204.98 215.06C204.74 215.02 204.52 214.98 204.33 214.92C204.14 214.87 203.98 214.8 203.86 214.7C203.74 214.61 203.68 214.47 203.68 214.29C203.68 214.08 203.78 213.91 203.98 213.78C204.19 213.65 204.5 213.58 204.91 213.58C205.16 213.58 205.42 213.61 205.68 213.67C205.93 213.72 206.18 213.83 206.42 213.99L206.82 213.24C206.6 213.09 206.31 212.98 205.96 212.9C205.61 212.81 205.26 212.77 204.91 212.77C204.47 212.77 204.08 212.84 203.76 212.96C203.43 213.09 203.18 213.27 203 213.51C202.82 213.74 202.74 214.02 202.74 214.34C202.74 214.65 202.8 214.88 202.91 215.06C203.03 215.24 203.19 215.38 203.39 215.48C203.58 215.58 203.8 215.66 204.04 215.71C204.28 215.77 204.51 215.81 204.75 215.85C204.98 215.89 205.2 215.93 205.39 215.98C205.58 216.02 205.74 216.09 205.86 216.18C205.98 216.27 206.04 216.4 206.04 216.56C206.04 216.79 205.94 216.96 205.75 217.09C205.56 217.21 205.24 217.27 204.8 217.27C204.45 217.27 204.12 217.22 203.79 217.12C203.46 217.01 203.19 216.89 202.96 216.74L202.57 217.48C202.79 217.65 203.1 217.8 203.49 217.91C203.88 218.03 204.29 218.09 204.73 218.09C205.19 218.09 205.59 218.03 205.93 217.9C206.26 217.77 206.52 217.6 206.71 217.36C206.89 217.13 206.98 216.86 206.98 216.55C206.98 216.25 206.92 216.02 206.8 215.84C206.68 215.66 206.52 215.53 206.33 215.43Z" fill="#FFFFFF" fill-opacity="1.000000" fill-rule="nonzero"/>
	<path id="Vector" d="M209.15 212.82L210.1 212.82L210.1 218.03L209.15 218.03L209.15 212.82Z" fill="#FFFFFF" fill-opacity="1.000000" fill-rule="evenodd"/>
	<path id="Vector" d="M209.62 210.59C209.44 210.59 209.29 210.65 209.17 210.77C209.05 210.89 208.99 211.03 208.99 211.21C208.99 211.39 209.05 211.53 209.17 211.64C209.29 211.76 209.44 211.82 209.62 211.82C209.8 211.82 209.97 211.76 210.09 211.64C210.2 211.52 210.26 211.37 210.26 211.19C210.26 211.01 210.2 210.88 210.08 210.76C209.96 210.65 209.81 210.59 209.62 210.59Z" fill="#FFFFFF" fill-opacity="1.000000" fill-rule="nonzero"/>
	<path id="Vector" d="M216.52 213.11C216.11 212.89 215.64 212.77 215.12 212.77C214.6 212.77 214.13 212.89 213.72 213.12C213.31 213.34 213 213.66 212.76 214.06C212.52 214.45 212.4 214.91 212.4 215.43C212.4 215.94 212.52 216.4 212.76 216.8C212.99 217.2 213.32 217.52 213.73 217.75C214.14 217.97 214.6 218.09 215.12 218.09C215.64 218.09 216.1 217.98 216.52 217.75C216.93 217.52 217.25 217.2 217.48 216.8C217.72 216.4 217.83 215.95 217.83 215.43C217.83 214.91 217.71 214.45 217.48 214.05C217.25 213.65 216.93 213.34 216.52 213.11L216.52 213.11ZM216.65 216.39C216.5 216.67 216.29 216.89 216.03 217.04C215.76 217.19 215.46 217.26 215.12 217.26C214.79 217.26 214.49 217.19 214.23 217.04C213.97 216.89 213.75 216.67 213.6 216.39C213.44 216.11 213.36 215.79 213.36 215.42C213.36 215.05 213.44 214.73 213.6 214.46C213.75 214.18 213.97 213.97 214.23 213.82C214.49 213.67 214.79 213.6 215.12 213.6C215.46 213.6 215.76 213.67 216.03 213.82C216.29 213.97 216.5 214.18 216.65 214.46C216.8 214.73 216.88 215.05 216.88 215.42C216.88 215.79 216.8 216.11 216.65 216.39Z" fill="#FFFFFF" fill-opacity="1.000000" fill-rule="nonzero"/>
	<path id="Vector" d="M224.82 213.77C224.63 213.43 224.38 213.18 224.05 213.02C223.73 212.86 223.35 212.78 222.93 212.78C222.45 212.78 222.04 212.87 221.68 213.06C221.41 213.21 221.21 213.41 221.04 213.65L221.04 212.83L220.13 212.83L220.13 218.03L221.08 218.03L221.08 215.35C221.08 214.97 221.15 214.66 221.28 214.4C221.42 214.14 221.61 213.95 221.86 213.82C222.11 213.69 222.4 213.62 222.74 213.62C223.18 213.62 223.53 213.75 223.78 214C224.02 214.26 224.15 214.64 224.15 215.15L224.15 218.03L225.09 218.03L225.09 215.04C225.09 214.53 225 214.1 224.82 213.77L224.82 213.77Z" fill="#FFFFFF" fill-opacity="1.000000" fill-rule="nonzero"/>
	<path id="Vector" d="M37.31 195.37C36.36 194.43 35.55 193.14 34.88 191.52L21.85 160.55L18.56 160.55L17.67 162.54L16.98 162.54L0 200.42L2.99 200.42L3.41 199.49L5.25 199.49L9.55 189.98L23.03 189.98L24.36 193.19C25.28 195.37 26.38 197 27.67 198.07C28.95 199.14 30.3 199.84 31.7 200.17C33.1 200.49 34.43 200.65 35.7 200.65C36.12 200.65 36.61 200.62 37.17 200.57C37.73 200.51 38.16 200.44 38.46 200.37L38.46 199.68C38.68 199.67 38.9 199.65 39.14 199.63C39.71 199.57 40.17 199.5 40.51 199.41L40.92 199.32L40.92 197L40.45 196.95C39.25 196.81 38.23 196.29 37.31 195.38L37.31 195.37ZM21.1 185.4L11.66 185.4L16.5 174.54L21.1 185.4ZM10.03 186.45L21.54 186.45L21.94 187.39L8.92 187.39L15.6 172.41L15.94 173.2L10.03 186.45L10.03 186.45ZM4.57 198.43L3.89 198.43L7.71 189.97L8.39 189.97L4.57 198.43ZM39.86 198.47C39.63 198.51 39.35 198.55 39.04 198.58C38.5 198.63 38.03 198.66 37.62 198.66C37.51 198.66 37.4 198.66 37.28 198.65C36.45 198.37 35.7 197.89 35.01 197.2C34.01 196.21 33.17 194.87 32.48 193.19L19.58 162.53L18.83 162.53L19.25 161.59L21.15 161.59L33.91 191.92C34.62 193.66 35.51 195.07 36.56 196.11C37.52 197.07 38.63 197.68 39.86 197.91L39.86 198.47L39.86 198.47Z" fill="#FFFFFF" fill-opacity="1.000000" fill-rule="nonzero"/>
	<path id="Vector" d="M60.84 175.68C60.52 175.03 60.02 174.48 59.37 174.02C58.87 173.64 58.28 173.35 57.59 173.16C56.89 172.97 56.13 172.87 55.28 172.87C53.55 172.87 52.09 173.17 50.88 173.76C49.67 174.35 48.72 174.96 48.03 175.57C47.6 174.8 47.02 174.26 46.27 173.93C45.52 173.61 44.49 173.44 43.19 173.44L37.49 173.44L37.49 175.16L38.06 175.16C39.79 175.16 40.88 175.69 41.35 176.74C41.81 177.8 42.04 179.18 42.04 180.91L42.04 200.42L49.52 200.42L49.52 181.14C49.52 180.83 49.5 180.47 49.47 180.05C49.43 179.62 49.37 179.07 49.29 178.38C49.79 177.88 50.47 177.46 51.31 177.12C52.15 176.77 53.19 176.6 54.42 176.6C55.38 176.6 56.19 176.85 56.87 177.35C57.54 177.85 58.05 178.34 58.4 178.84L61.33 176.6C61.33 176.64 61.17 176.33 60.84 175.68Z" fill="#FFFFFF" fill-opacity="1.000000" fill-rule="nonzero"/>
	<path id="Vector" d="M79.41 197.9C78.64 198.24 77.76 198.41 76.76 198.41C75.76 198.41 75.06 198.04 74.54 197.29C74.02 196.55 73.77 195.1 73.77 192.96L73.77 176.03L80.1 176.03L80.1 173.44L73.77 173.44L73.77 164.83L69.16 164.83L66.28 168.28L66.28 173.44L62.83 173.44L62.83 176.03L66.28 176.03L66.28 192.62C66.28 195.37 67.02 197.46 68.5 198.87C69.98 200.29 72.02 201 74.63 201C76.4 201 77.89 200.75 79.12 200.25C80.35 199.75 81.35 199.16 82.12 198.47L81.31 196.86C80.81 197.21 80.18 197.55 79.41 197.89L79.41 197.9Z" fill="#FFFFFF" fill-opacity="1.000000" fill-rule="nonzero"/>
	<path id="Vector" d="M103.63 164.79C105.93 164.79 107.71 165.32 108.96 166.37C110.2 167.43 110.83 169.19 110.83 171.68L112.55 171.68L112.55 171.19L114.46 171.19L114.46 165.78C114.46 164.96 114.31 164.15 114.02 163.39C113.71 162.57 113.16 161.91 112.37 161.41C111.58 160.91 110.49 160.66 109.04 160.66L84.38 160.66L84.38 162.21L83.53 162.21L83.53 163.93L84.11 163.93C85.83 163.93 86.94 164.46 87.42 165.51C87.9 166.57 88.14 167.95 88.14 169.67L88.14 200.1L95.63 200.1L95.63 199.6L97.53 199.6L97.53 182.01L108.3 182.01L108.3 181.52L110.2 181.52L110.2 177.89L97.53 177.89L97.53 164.79L103.63 164.79L103.63 164.79ZM85.43 161.72L109.04 161.72C110.27 161.72 111.2 161.91 111.8 162.29C112.4 162.67 112.8 163.15 113.03 163.76C113.28 164.4 113.4 165.09 113.4 165.78L113.4 170.13L112.72 170.13C112.7 169.57 112.64 169.04 112.55 168.54L112.55 166.8C112.55 166.03 112.42 165.3 112.15 164.59C111.88 163.88 111.4 163.31 110.71 162.87C110.02 162.43 109 162.21 107.66 162.21L85.43 162.21L85.43 161.72L85.43 161.72ZM96.47 198.55L95.63 198.55L95.63 182.01L96.47 182.01L96.47 198.55ZM109.14 178.94L109.14 180.47L108.3 180.47L108.3 179.43L95.63 179.43L95.63 164.79L96.47 164.79L96.47 178.94L109.14 178.94Z" fill="#FFFFFF" fill-opacity="1.000000" fill-rule="nonzero"/>
	<path id="Vector" d="M122.29 174.13C121.54 173.67 120.49 173.44 119.15 173.44L112.24 173.44L112.24 175.16L112.81 175.16C114.54 175.16 115.64 175.69 116.12 176.74C116.61 177.8 116.84 179.18 116.84 180.9L116.84 200.42L124.33 200.42L124.33 180.9C124.33 178.99 124.18 177.49 123.87 176.42C123.56 175.35 123.04 174.59 122.29 174.13L122.29 174.13Z" fill="#FFFFFF" fill-opacity="1.000000" fill-rule="nonzero"/>
	<path id="Vector" d="M120.59 170.34C121.47 170.34 122.22 170.06 122.84 169.48C123.45 168.91 123.76 168.13 123.76 167.13C123.76 165.98 123.4 164.97 122.69 164.09C121.99 163.21 120.9 162.77 119.44 162.77C118.56 162.77 117.81 163.05 117.19 163.63C116.58 164.2 116.27 164.99 116.27 165.98C116.27 167.13 116.63 168.15 117.34 169.03C118.05 169.91 119.13 170.34 120.59 170.34Z" fill="#FFFFFF" fill-opacity="1.000000" fill-rule="nonzero"/>
	<path id="Vector" d="M149.47 194.68L143.89 185.38L153.62 173.44L149.76 173.44L142.22 182.69L139.45 178.04C138.61 176.62 137.64 175.5 136.54 174.68C135.45 173.86 133.96 173.44 132.08 173.44L126.61 173.44L126.61 174.59C127.49 174.75 128.4 175.2 129.35 175.97C130.29 176.74 131.16 177.81 131.97 179.18L137.5 188.43L127.76 200.42L131.62 200.42L139.17 191.18L141.99 195.83C142.83 197.25 143.8 198.37 144.9 199.19C145.99 200.01 147.48 200.42 149.36 200.42L154.83 200.42L154.83 199.28C153.95 199.12 153.03 198.66 152.1 197.9C151.15 197.13 150.28 196.06 149.47 194.68Z" fill="#FFFFFF" fill-opacity="1.000000" fill-rule="nonzero"/>
	<path id="Vector" d="M184.82 163.69C183.59 162.82 182.23 162.15 180.78 161.72C179.35 161.29 177.93 161 176.56 160.87C175.21 160.73 173.99 160.66 172.94 160.66L156.57 160.66L156.57 162.53L155.73 162.53L155.73 164.26L156.31 164.26C158.04 164.26 159.14 164.78 159.62 165.84C160.1 166.89 160.34 168.28 160.34 170L160.34 200.42L167.83 200.42L167.83 199.6L169.73 199.6L169.73 185.09L173.3 185.09C173.99 185.09 174.9 185.03 176.04 184.89C177.17 184.76 178.37 184.48 179.64 184.06C180.67 183.71 181.67 183.24 182.62 182.64C183.41 182.27 184.18 181.82 184.91 181.3C186.1 180.45 187.1 179.32 187.86 177.94C188.63 176.54 189.02 174.79 189.02 172.72C189.02 170.54 188.63 168.69 187.86 167.22C187.1 165.76 186.07 164.57 184.82 163.68L184.82 163.69ZM168.67 198.55L167.83 198.55L167.83 185.1L168.67 185.1L168.67 198.55ZM169.72 164.92C169.83 164.91 169.94 164.9 170.04 164.89C170.64 164.86 171.14 164.84 171.57 164.84C172.49 164.84 173.39 164.97 174.28 165.24C175.16 165.5 175.96 165.97 176.67 166.64C177.38 167.31 177.95 168.23 178.39 169.4C178.83 170.57 179.06 172.03 179.06 173.79C179.06 175.55 178.83 177.01 178.39 178.18C178.35 178.31 178.3 178.43 178.24 178.55C178.06 178.8 177.86 179.03 177.64 179.23C176.98 179.86 176.21 180.3 175.38 180.54C174.51 180.8 173.59 180.93 172.65 180.93L169.72 180.93L169.72 164.92ZM172.65 181.98C173.7 181.98 174.71 181.84 175.68 181.56C175.83 181.51 175.97 181.46 176.11 181.41C175.52 181.86 174.87 182.19 174.16 182.4C173.24 182.67 172.28 182.8 171.28 182.8L167.82 182.8L167.82 165.24C168.12 165.17 168.4 165.12 168.66 165.07L168.66 181.98L172.64 181.98L172.65 181.98ZM186.93 177.44C186.75 177.76 186.55 178.07 186.35 178.37C186.86 177.17 187.12 175.74 187.12 174.08C187.12 171.97 186.76 170.22 186.03 168.83C185.3 167.43 184.34 166.31 183.15 165.47C181.96 164.63 180.66 164 179.26 163.57C177.86 163.15 176.49 162.88 175.14 162.74C173.8 162.61 172.61 162.54 171.57 162.54L159.17 162.54C158.72 162.44 158.23 162.38 157.68 162.38L157.63 162.38L157.63 161.72L172.94 161.72C173.96 161.72 175.14 161.78 176.46 161.91C177.76 162.04 179.12 162.32 180.48 162.73C181.82 163.13 183.08 163.74 184.21 164.55C185.33 165.34 186.24 166.4 186.93 167.72C187.62 169.04 187.97 170.72 187.97 172.73C187.97 174.62 187.62 176.2 186.94 177.44L186.93 177.44Z" fill="#FFFFFF" fill-opacity="1.000000" fill-rule="nonzero"/>
	<path id="Vector" d="M214.47 175.68C214.14 175.03 213.65 174.48 213 174.02C212.5 173.64 211.91 173.35 211.21 173.16C210.52 172.97 209.75 172.87 208.91 172.87C207.18 172.87 205.71 173.17 204.51 173.76C203.3 174.35 202.35 174.96 201.65 175.57C201.23 174.8 200.65 174.26 199.9 173.93C199.15 173.61 198.12 173.44 196.82 173.44L191.12 173.44L191.12 175.16L191.69 175.16C193.42 175.16 194.51 175.69 194.98 176.74C195.44 177.8 195.67 179.18 195.67 180.91L195.67 200.42L203.16 200.42L203.16 181.14C203.16 180.83 203.14 180.47 203.1 180.05C203.06 179.62 203 179.07 202.93 178.38C203.43 177.88 204.1 177.46 204.94 177.12C205.78 176.77 206.82 176.6 208.05 176.6C209.01 176.6 209.83 176.85 210.5 177.35C211.17 177.85 211.68 178.34 212.02 178.84L214.96 176.6C214.96 176.64 214.8 176.33 214.47 175.68L214.47 175.68Z" fill="#FFFFFF" fill-opacity="1.000000" fill-rule="nonzero"/>
	<path id="Vector" d="M240 186.22C240 178.6 234.14 172.4 226.94 172.4C223.13 172.4 219.7 174.14 217.31 176.91C214.23 179.33 212.22 183.22 212.22 187.6C212.22 194.94 217.83 200.89 224.74 200.89C226.63 200.89 228.42 200.45 230.02 199.65C235.74 198.18 240 192.72 240 186.22ZM234.04 196.49C236.04 194.14 237.26 191.02 237.26 187.6C237.26 180.26 231.65 174.31 224.74 174.31C223.75 174.31 222.79 174.44 221.87 174.67C223.41 173.9 225.13 173.46 226.94 173.46C233.55 173.46 238.93 179.19 238.93 186.22C238.93 190.43 237 194.17 234.04 196.49Z" fill="#FFFFFF" fill-opacity="1.000000" fill-rule="nonzero"/>
	<path id="Vector" d="M7.73 216.05C8.72 216.26 9.4 215.44 10.32 215.33C10.77 215.28 11.17 215.52 11.59 215.68L12.1 215.22C11.8 215.3 11.48 215.3 11.17 215.18C10.71 215.01 10.28 214.76 9.77 214.78C8.84 214.83 8.02 215.82 7.06 215.46C6.58 215.28 6.17 214.94 5.67 214.79C5.21 214.64 4.73 214.62 4.25 214.68C3.73 214.76 3.25 214.94 2.77 215.13C2.37 215.29 1.9 215.46 1.46 215.38L1.95 215.91C2.92 216.09 3.8 215.44 4.73 215.26C5.28 215.15 5.85 215.16 6.35 215.42C6.8 215.65 7.23 215.94 7.73 216.05Z" fill="#FFFFFF" fill-opacity="1.000000" fill-rule="nonzero"/>
	<path id="Vector" d="M234.16 216.05C235.15 216.26 235.83 215.44 236.74 215.33C237.2 215.28 237.6 215.52 238.02 215.68L238.52 215.22C238.23 215.3 237.9 215.3 237.6 215.18C237.14 215.01 236.71 214.76 236.2 214.78C235.27 214.83 234.45 215.82 233.49 215.46C233.01 215.28 232.6 214.94 232.1 214.79C231.64 214.64 231.15 214.62 230.67 214.68C230.16 214.76 229.68 214.94 229.2 215.13C228.8 215.29 228.32 215.46 227.89 215.38L228.37 215.91C229.34 216.09 230.23 215.44 231.15 215.26C231.71 215.15 232.27 215.16 232.78 215.42C233.23 215.65 233.65 215.94 234.16 216.05Z" fill="#FFFFFF" fill-opacity="1.000000" fill-rule="nonzero"/>
	<path id="Vector" d="M152.81 110.65C152.91 110.58 153 110.52 153.1 110.45C153.47 110.2 153.79 109.9 154.1 109.58C154.67 109.02 155.16 108.41 155.52 107.71L155.52 92.47L103 144.82L114.63 144.82C115.57 143.19 117.09 141.84 118.74 140.96C120.22 140.17 121.81 139.92 123.4 139.48C123.43 139.47 123.59 139.41 123.64 139.39C123.7 139.37 123.77 139.35 123.83 139.33C123.85 139.31 123.87 139.3 123.9 139.28C124.2 139.12 124.4 139.02 124.74 138.76C125.49 138.19 126.2 137.45 126.71 136.65C127.51 135.39 127.72 133.99 128.1 132.58C128.56 130.84 129.58 129.37 130.92 128.19C132.39 126.89 134.16 126.09 136.06 125.64C136.41 125.56 136.77 125.48 137.12 125.4C137.28 125.36 137.43 125.32 137.58 125.28C137.65 125.26 137.77 125.23 137.83 125.21C137.99 125.14 138.24 125.04 138.02 125.14C138.11 125.09 138.21 125.05 138.3 125C138.3 125 138.4 124.94 138.43 124.93C138.76 124.73 139.08 124.5 139.36 124.24C140.69 123.07 141.56 121.67 141.98 119.96C142.34 118.5 142.62 117.11 143.5 115.85C144.71 114.13 146.4 112.81 148.36 112.03C149.12 111.73 149.91 111.52 150.71 111.34C151.06 111.26 151.42 111.19 151.77 111.09C151.84 111.08 152.19 110.96 152.14 110.98C152.19 110.96 152.26 110.94 152.31 110.92C152.26 110.93 152.54 110.8 152.66 110.74C152.67 110.73 152.8 110.65 152.8 110.65L152.81 110.65Z" fill="#FFFFFF" fill-opacity="1.000000" fill-rule="nonzero"/>
	<path id="Vector" d="M94.29 85.21C93.49 85.35 93.05 85.4 92.27 85.81C90.26 86.88 88.73 88.91 88.13 91.08C87.61 92.94 87.56 94.88 86.6 96.62C86.03 97.63 85.31 98.55 84.46 99.35L84.46 108.06C85.63 107.32 86.95 106.78 88.3 106.46C88.65 106.38 89.01 106.31 89.36 106.22C89.52 106.19 89.67 106.15 89.83 106.11C89.9 106.09 89.97 106.07 90.04 106.05C90.04 106.05 90.04 106.05 90.04 106.04C90.12 106 90.22 105.98 90.3 105.95C90.31 105.94 90.32 105.94 90.33 105.93C90.39 105.9 90.67 105.75 90.66 105.77C91.03 105.54 91.37 105.28 91.69 105C93.02 103.79 93.85 102.38 94.26 100.65C94.63 99.07 94.99 97.65 96 96.34C97.26 94.68 98.98 93.43 100.95 92.73C101.71 92.45 102.5 92.27 103.29 92.09C103.63 92.01 103.96 91.92 104.3 91.84C104.36 91.8 104.44 91.79 104.5 91.76C104.8 91.65 104.58 91.73 104.52 91.75C104.61 91.71 104.71 91.67 104.8 91.62C106.16 90.9 107.53 89.3 108.13 87.71C108.64 86.38 108.73 84.92 109.33 83.62C110.19 81.75 111.82 80.21 113.6 79.23C115.08 78.42 116.67 78.13 118.27 77.7C118.36 77.68 118.45 77.65 118.54 77.63C118.54 77.63 118.55 77.63 118.55 77.63C118.63 77.59 119.04 77.41 118.77 77.55C119.14 77.37 119.3 77.28 119.67 77.01C120.46 76.44 121.18 75.67 121.71 74.85C121.89 74.57 122.04 74.29 122.17 74L105.68 74C105.65 74.15 105.61 74.3 105.58 74.45C105.19 76.45 104.86 78.28 103.66 79.99C102.11 82.2 99.8 83.78 97.23 84.57C96.27 84.87 95.27 85.03 94.28 85.21L94.29 85.21Z" fill="#FFFFFF" fill-opacity="1.000000" fill-rule="nonzero"/>
	<path id="Vector" d="" fill="#FFFFFF" fill-opacity="1.000000" fill-rule="nonzero"/>
	<path id="Vector" d="M87.69 107.9C87.64 107.92 87.53 107.98 87.5 107.99C87.3 108.09 87.35 108.07 87.18 108.17C86.05 108.9 85.1 109.93 84.47 111.12L84.47 126.35L136.99 74L125.34 74C125.24 74.18 125.12 74.37 124.99 74.55C123.78 76.27 122.09 77.58 120.14 78.36C119.38 78.66 118.58 78.88 117.79 79.06C117.43 79.14 117.08 79.21 116.72 79.3C116.66 79.32 116.31 79.44 116.36 79.41C116.3 79.43 116.24 79.46 116.19 79.48C116.24 79.46 115.96 79.6 115.84 79.66C115.83 79.67 115.7 79.75 115.7 79.75C115.59 79.82 115.5 79.88 115.4 79.95C115.04 80.2 114.71 80.51 114.4 80.82C113.75 81.47 113.2 82.19 112.81 83.02C112.22 84.31 112.12 85.73 111.64 87.05C110.98 88.84 109.6 90.34 108.06 91.43C106.58 92.46 104.87 92.96 103.14 93.35C102.83 93.42 102.53 93.5 102.23 93.58C102.23 93.59 102.07 93.64 101.97 93.68C101.88 93.72 101.78 93.77 101.69 93.81C101.07 94.14 100.26 94.87 99.7 95.5C98.63 96.71 98.17 98.12 97.83 99.66C97.47 101.28 96.85 102.66 95.74 103.92C94.33 105.51 92.52 106.56 90.48 107.17C89.83 107.37 89.15 107.5 88.49 107.66C88.31 107.7 88.15 107.75 87.98 107.79C87.89 107.82 87.81 107.85 87.73 107.88C87.73 107.88 87.71 107.89 87.69 107.9L87.69 107.9Z" fill="#FFFFFF" fill-opacity="1.000000" fill-rule="nonzero"/>
	<path id="Vector" d="M146.97 133.32C149 132.63 150.81 130.61 151.59 128.58C152.25 126.83 152.25 124.9 152.94 123.16C153.49 121.77 154.41 120.5 155.52 119.45L155.52 110.8C154.12 111.7 152.52 112.16 150.89 112.53C150.58 112.6 150.28 112.67 149.98 112.76C149.98 112.76 149.8 112.82 149.69 112.86C149.68 112.87 149.67 112.88 149.65 112.88C149.58 112.92 149.51 112.95 149.44 112.99C149.21 113.11 148.83 113.36 148.53 113.61C148.12 113.96 147.73 114.35 147.38 114.75C146.32 115.98 145.9 117.42 145.55 118.96C145.16 120.68 144.43 122.12 143.2 123.41C141.75 124.9 139.96 125.87 137.97 126.42C137.28 126.61 136.59 126.73 135.91 126.92C135.83 126.94 135.75 126.96 135.67 126.98C135.66 126.99 135.64 127 135.62 127C135.56 127.03 135.5 127.05 135.45 127.07C135.44 127.08 135.42 127.08 135.4 127.09C135.05 127.27 134.86 127.38 134.49 127.65C133.07 128.72 132.06 130.2 131.59 131.91C131.2 133.34 131 134.78 130.19 136.05C129.06 137.81 127.38 139.21 125.47 140.02C124.64 140.38 123.79 140.63 122.92 140.83C122.56 140.91 122.2 140.99 121.85 141.08C121.72 141.11 121.58 141.15 121.44 141.19C121.44 141.19 121.44 141.19 121.44 141.19C121.38 141.22 121.3 141.24 121.23 141.27C121.22 141.27 121.21 141.27 121.2 141.28C121.19 141.29 121.18 141.29 121.15 141.31C121.06 141.35 120.96 141.4 120.87 141.45C120.81 141.48 120.69 141.55 120.54 141.65C120.16 141.91 119.81 142.21 119.48 142.54C118.79 143.21 118.21 143.95 117.81 144.82L134.31 144.82C134.71 143.13 134.84 141.4 135.7 139.84C136.98 137.53 139.12 135.7 141.54 134.68C142.62 134.23 143.75 133.97 144.89 133.76C145.34 133.68 145.8 133.6 146.25 133.51C146.37 133.49 146.49 133.46 146.6 133.43C146.73 133.4 146.85 133.37 146.97 133.33C146.93 133.34 146.77 133.4 146.98 133.33L146.97 133.32Z" fill="#FFFFFF" fill-opacity="1.000000" fill-rule="nonzero"/>
	<path id="Vector" d="M84.59 91.79C85.2 89.42 86.79 87.4 88.74 85.96C90.73 84.49 93.01 83.92 95.4 83.49C96.21 83.34 96.65 83.29 97.43 82.88C98.57 82.27 99.53 81.31 100.3 80.28C101.54 78.61 101.74 76.67 102.16 74.7C102.21 74.46 102.28 74.23 102.34 74L84.47 74L84.47 92.3C84.51 92.13 84.55 91.96 84.59 91.79L84.59 91.79Z" fill="#FFFFFF" fill-opacity="1.000000" fill-rule="nonzero"/>
	<path id="Vector" d="M155.18 127.77C154.36 130.17 152.46 132.17 150.32 133.47C149.29 134.1 148.14 134.55 146.98 134.85C146.4 134.99 145.81 135.11 145.22 135.21C144.84 135.28 144.2 135.39 144 135.44C143.7 135.5 143.34 135.59 143.02 135.72C142.66 135.86 142.25 136.09 141.89 136.35C140.82 137.12 139.83 138.15 139.18 139.31C138.22 141.03 138.17 142.96 137.66 144.82L155.52 144.82L155.52 126.51C155.43 126.93 155.32 127.36 155.18 127.76L155.18 127.77Z" fill="#FFFFFF" fill-opacity="1.000000" fill-rule="nonzero"/>
	<path id="Vector" d="M87.96 107.8C87.96 107.8 87.95 107.8 87.95 107.8C87.67 107.87 87.86 107.82 87.96 107.8Z" fill="#FFFFFF" fill-opacity="1.000000" fill-rule="nonzero"/>
	<path id="Vector" d="M155.52 81.72L92.22 144.82L99.63 144.82L155.52 89.11L155.52 81.72Z" fill="#FFFFFF" fill-opacity="1.000000" fill-rule="nonzero"/>
	<path id="Vector" d="M101.96 93.68C101.96 93.68 101.93 93.69 101.91 93.7C101.75 93.76 101.91 93.7 101.96 93.68Z" fill="#FFFFFF" fill-opacity="1.000000" fill-rule="nonzero"/>
	<path id="Vector" d="M140.36 74L84.46 129.7L84.46 137.1L147.77 74L140.36 74Z" fill="#FFFFFF" fill-opacity="1.000000" fill-rule="nonzero"/>
	<path id="Rectangle 4" d="M84 0L156 0L156 2C156 3.1 155.1 4 154 4L86 4C84.89 4 84 3.1 84 2L84 0Z" fill="#FFFFFF" fill-opacity="1.000000" fill-rule="evenodd"/>
</svg>
