<svg width="154.129883" height="87.360016" viewBox="0 0 154.13 87.36" fill="none" xmlns="http://www.w3.org/2000/svg" xmlns:xlink="http://www.w3.org/1999/xlink">
	<desc>
			Created with Pixso.
	</desc>
	<defs/>
	<path id="90" d="M57.05 6.9Q47.45 0 32.87 0Q24.45 0 17.35 3.07Q16.77 3.32 16.2 3.6Q11.64 5.72 8.21 9.02Q6.04 11.11 4.31 13.68Q3.28 15.22 2.5 16.88Q0 22.19 0 28.68Q0 34.49 2.13 39.38Q2.86 41.04 3.83 42.6Q5.37 44.91 7.29 46.84Q10.35 49.89 14.39 51.96Q15.36 52.43 16.35 52.83Q22.15 55.2 28.91 55.2C36.68 55.2 42.96 53.16 47.75 49.08C47.12 55.4 44.91 60.24 41.16 63.6Q40.4 64.27 39.57 64.86Q34.4 68.51 26.64 68.51C20.39 68.51 15.24 67.08 11.16 64.19L2.52 81.24C5.56 83.16 9.24 84.64 13.56 85.68C17.87 86.8 22.39 87.36 27.12 87.36C36 87.36 43.79 85.56 50.52 81.96C57.31 78.36 62.56 73.12 66.24 66.24C70 59.28 71.87 51 71.87 41.4C71.87 28.04 68.39 17.79 61.43 10.68Q59.39 8.58 57.05 6.9ZM101.41 84.05Q108.52 87.36 117.17 87.36Q125.34 87.36 132.17 84.33Q134.27 83.41 136.25 82.2C141.85 78.76 146.2 73.76 149.33 67.19C152.53 60.56 154.13 52.72 154.13 43.68C154.13 34.64 152.53 26.84 149.33 20.28C146.2 13.64 141.85 8.6 136.25 5.16Q134.27 3.94 132.17 3.02Q125.34 0 117.17 0Q108.52 0 101.41 3.3Q99.64 4.12 97.96 5.16Q96.69 5.94 95.49 6.83Q88.83 11.83 84.76 20.28Q80.08 30.12 80.08 43.68C80.08 52.72 81.64 60.56 84.76 67.19Q88.73 75.32 95.14 80.25Q96.5 81.29 97.96 82.2Q99.64 83.23 101.41 84.05ZM42.96 35.28C40.79 37.2 38 38.16 34.56 38.16C31.12 38.16 28.31 37.2 26.16 35.28Q25.18 34.37 24.51 33.28Q23.04 30.89 23.04 27.6Q23.04 24.04 24.66 21.55Q25.29 20.59 26.16 19.79C28.31 17.87 31.08 16.92 34.43 16.92Q39.12 16.92 42.09 19.17Q42.54 19.52 42.96 19.92Q44.21 21.03 44.98 22.41Q46.2 24.61 46.2 27.48C46.2 30.68 45.12 33.28 42.96 35.28ZM126.65 62.16C124.33 66 121.17 67.92 117.17 67.92C113.09 67.92 109.85 66 107.45 62.16C105.13 58.24 103.97 52.08 103.97 43.68C103.97 35.28 105.13 29.16 107.45 25.32C109.85 21.4 113.09 19.44 117.17 19.44Q119.38 19.44 121.25 20.24Q124.45 21.61 126.65 25.32C129.05 29.16 130.25 35.28 130.25 43.68C130.25 52.08 129.05 58.24 126.65 62.16Z" fill="#FFFFFF" fill-opacity="1.000000" fill-rule="evenodd"/>
</svg>
