<svg width="22.000000" height="22.000000" viewBox="0 0 22 22" fill="none" xmlns="http://www.w3.org/2000/svg" xmlns:xlink="http://www.w3.org/1999/xlink">
	<desc>
			Created with Pixso.
	</desc>
	<defs>
		<clipPath id="clip3_281">
			<rect id="check mark" rx="10.000000" width="20.000000" height="20.000000" transform="translate(1.000000 1.000000)" fill="white" fill-opacity="0"/>
		</clipPath>
	</defs>
	<rect id="check mark" rx="10.000000" width="20.000000" height="20.000000" transform="translate(1.000000 1.000000)" fill="#20C84F" fill-opacity="1.000000"/>
	<g clip-path="url(#clip3_281)">
		<path id="Vector" d="M14.61 8.16L14.82 8.37C14.93 8.48 15 8.63 15 8.78C15 8.93 14.93 9.08 14.82 9.19L9.98 13.83C9.87 13.93 9.71 14 9.56 14C9.4 14 9.25 13.93 9.13 13.83L7.17 11.95C7.06 11.84 7 11.69 7 11.54C7 11.39 7.06 11.24 7.17 11.13L7.38 10.93C7.49 10.82 7.64 10.76 7.8 10.76C7.96 10.76 8.11 10.82 8.22 10.93L9.13 11.78C9.25 11.89 9.4 11.95 9.56 11.95C9.71 11.95 9.87 11.89 9.98 11.78L13.77 8.16C13.88 8.06 14.03 8 14.19 8C14.35 8 14.5 8.06 14.61 8.16Z" fill="#FFFFFF" fill-opacity="1.000000" fill-rule="evenodd"/>
	</g>
	<rect id="check mark" rx="10.000000" width="20.000000" height="20.000000" transform="translate(1.000000 1.000000)" stroke="#20C84F" stroke-opacity="1.000000" stroke-width="2.000000"/>
</svg>
