<svg width="5.000000" height="5.000000" viewBox="0 0 5 5" fill="none" xmlns="http://www.w3.org/2000/svg" xmlns:xlink="http://www.w3.org/1999/xlink">
	<desc>
			Created with Pixso.
	</desc>
	<defs/>
	<path id="Vector" d="M0.81 0.13C0.62 -0.05 0.32 -0.05 0.13 0.13C-0.05 0.32 -0.05 0.62 0.13 0.81L1.82 2.5L0.13 4.18C-0.05 4.37 -0.05 4.67 0.13 4.86C0.32 5.04 0.62 5.04 0.81 4.86L2.5 3.17L4.18 4.86C4.37 5.04 4.67 5.04 4.86 4.86C5.04 4.67 5.04 4.37 4.86 4.18L3.17 2.5L4.86 0.81C5.04 0.62 5.04 0.32 4.86 0.13C4.67 -0.05 4.37 -0.05 4.18 0.13L2.5 1.82L0.81 0.13Z" fill="#353535" fill-opacity="1.000000" fill-rule="evenodd"/>
</svg>
