<svg width="22.000000" height="22.000000" viewBox="0 0 22 22" fill="none" xmlns="http://www.w3.org/2000/svg" xmlns:xlink="http://www.w3.org/1999/xlink">
	<desc>
			Created with Pixso.
	</desc>
	<defs>
		<clipPath id="clip31_2079">
			<rect id="check mark" rx="10.000000" width="20.000000" height="20.000000" transform="translate(1.000000 1.000000)" fill="white" fill-opacity="0"/>
		</clipPath>
	</defs>
	<rect id="check mark" rx="10.000000" width="20.000000" height="20.000000" transform="translate(1.000000 1.000000)" fill="#EB2A2A" fill-opacity="1.000000"/>
	<g clip-path="url(#clip31_2079)">
		<path id="Vector" d="M8.97 8.16C8.75 7.94 8.39 7.94 8.16 8.16C7.94 8.39 7.94 8.75 8.16 8.97L10.19 11L8.16 13.02C7.94 13.24 7.94 13.6 8.16 13.83C8.39 14.05 8.75 14.05 8.97 13.83L11 11.8L13.02 13.83C13.24 14.05 13.6 14.05 13.83 13.83C14.05 13.6 14.05 13.24 13.83 13.02L11.8 11L13.83 8.97C14.05 8.75 14.05 8.39 13.83 8.16C13.6 7.94 13.24 7.94 13.02 8.16L11 10.19L8.97 8.16Z" fill="#FFFFFF" fill-opacity="1.000000" fill-rule="evenodd"/>
	</g>
	<rect id="check mark" rx="10.000000" width="20.000000" height="20.000000" transform="translate(1.000000 1.000000)" stroke="#EB2A2A" stroke-opacity="1.000000" stroke-width="2.000000"/>
</svg>
