<svg width="8.000000" height="8.000000" viewBox="0 0 8 8" fill="none" xmlns="http://www.w3.org/2000/svg" xmlns:xlink="http://www.w3.org/1999/xlink">
	<desc>
			Created with Pixso.
	</desc>
	<defs/>
	<path id="Vector" d="M7.67 1.88C8.1 1.45 8.1 0.75 7.67 0.32C7.24 -0.11 6.54 -0.11 6.11 0.32L4 2.44L1.88 0.32C1.45 -0.11 0.75 -0.11 0.32 0.32C-0.11 0.75 -0.11 1.45 0.32 1.88L2.44 4L0.32 6.11C-0.11 6.54 -0.11 7.24 0.32 7.67C0.75 8.1 1.45 8.1 1.88 7.67L4 5.55L6.11 7.67C6.54 8.1 7.24 8.1 7.67 7.67C8.1 7.24 8.1 6.54 7.67 6.11L5.55 4L7.67 1.88Z" fill="#353535" fill-opacity="1.000000" fill-rule="evenodd"/>
</svg>
