<svg width="71.000000" height="24.000000" viewBox="0 0 71 24" fill="none" xmlns="http://www.w3.org/2000/svg" xmlns:xlink="http://www.w3.org/1999/xlink">
	<desc>
			Created with Pixso.
	</desc>
	<defs>
		<clipPath id="clip348_4088">
			<rect id="Google_2015_logo 1" rx="0.000000" width="70.000000" height="23.000000" transform="translate(0.500000 0.500000)" fill="white" fill-opacity="0"/>
		</clipPath>
	</defs>
	<rect id="Google_2015_logo 1" rx="0.000000" width="70.000000" height="23.000000" transform="translate(0.500000 0.500000)" fill="#FFFFFF" fill-opacity="0"/>
	<g clip-path="url(#clip348_4088)">
		<path id="Vector" d="M30.21 12.3C30.21 15.63 27.6 18.09 24.4 18.09C21.2 18.09 18.59 15.63 18.59 12.3C18.59 8.95 21.2 6.52 24.4 6.52C27.6 6.52 30.21 8.95 30.21 12.3ZM27.67 12.3C27.67 10.22 26.16 8.8 24.4 8.8C22.65 8.8 21.14 10.22 21.14 12.3C21.14 14.36 22.65 15.81 24.4 15.81C26.16 15.81 27.67 14.36 27.67 12.3Z" fill="#EA4335" fill-opacity="1.000000" fill-rule="nonzero"/>
		<path id="Vector" d="M42.74 12.3C42.74 15.63 40.13 18.09 36.93 18.09C33.73 18.09 31.12 15.63 31.12 12.3C31.12 8.95 33.73 6.52 36.93 6.52C40.13 6.52 42.74 8.95 42.74 12.3ZM40.2 12.3C40.2 10.22 38.68 8.8 36.93 8.8C35.18 8.8 33.67 10.22 33.67 12.3C33.67 14.36 35.18 15.81 36.93 15.81C38.68 15.81 40.2 14.36 40.2 12.3Z" fill="#FBBC05" fill-opacity="1.000000" fill-rule="nonzero"/>
		<path id="Vector" d="M54.75 6.87L54.75 17.25C54.75 21.53 52.22 23.27 49.24 23.27C46.44 23.27 44.75 21.4 44.11 19.86L46.33 18.94C46.72 19.88 47.68 21 49.24 21C51.15 21 52.33 19.82 52.33 17.6L52.33 16.77L52.24 16.77C51.67 17.47 50.58 18.09 49.19 18.09C46.3 18.09 43.65 15.57 43.65 12.32C43.65 9.06 46.3 6.52 49.19 6.52C50.57 6.52 51.67 7.13 52.24 7.81L52.33 7.81L52.33 6.87L54.75 6.87L54.75 6.87ZM52.51 12.32C52.51 10.29 51.15 8.8 49.42 8.8C47.67 8.8 46.2 10.29 46.2 12.32C46.2 14.34 47.67 15.81 49.42 15.81C51.15 15.81 52.51 14.34 52.51 12.32Z" fill="#4285F4" fill-opacity="1.000000" fill-rule="nonzero"/>
		<path id="Vector" d="M58.73 0.78L58.73 17.73L56.25 17.73L56.25 0.78L58.73 0.78Z" fill="#34A853" fill-opacity="1.000000" fill-rule="nonzero"/>
		<path id="Vector" d="M68.39 14.21L70.36 15.52C69.73 16.46 68.19 18.09 65.54 18.09C62.25 18.09 59.79 15.55 59.79 12.3C59.79 8.86 62.27 6.51 65.26 6.51C68.26 6.51 69.73 8.9 70.21 10.19L70.47 10.85L62.73 14.06C63.33 15.22 64.25 15.81 65.54 15.81C66.83 15.81 67.73 15.17 68.39 14.21ZM62.32 12.13L67.49 9.98C67.21 9.26 66.35 8.75 65.34 8.75C64.05 8.75 62.25 9.89 62.32 12.13Z" fill="#EA4335" fill-opacity="1.000000" fill-rule="nonzero"/>
		<path id="Vector" d="M9.21 10.8L9.21 8.34L17.48 8.34C17.56 8.77 17.61 9.28 17.61 9.82C17.61 11.67 17.1 13.94 15.48 15.57C13.9 17.21 11.88 18.09 9.21 18.09C4.26 18.09 0.09 14.05 0.09 9.1C0.09 4.15 4.26 0.12 9.21 0.12C11.95 0.12 13.9 1.19 15.37 2.59L13.64 4.33C12.58 3.34 11.16 2.57 9.21 2.57C5.59 2.57 2.76 5.49 2.76 9.1C2.76 12.72 5.59 15.63 9.21 15.63C11.55 15.63 12.89 14.69 13.75 13.83C14.44 13.14 14.9 12.15 15.08 10.79L9.21 10.8Z" fill="#4285F4" fill-opacity="1.000000" fill-rule="nonzero"/>
	</g>
</svg>
