<svg width="19.000000" height="19.000000" viewBox="0 0 19 19" fill="none" xmlns="http://www.w3.org/2000/svg" xmlns:xlink="http://www.w3.org/1999/xlink">
	<desc>
			Created with Pixso.
	</desc>
	<defs>
		<filter id="filter_315_1967_dd" x="0.000000" y="0.000000" width="19.000000" height="19.000000" filterUnits="userSpaceOnUse" color-interpolation-filters="sRGB">
			<feFlood flood-opacity="0" result="BackgroundImageFix"/>
			<feColorMatrix in="SourceAlpha" type="matrix" values="0 0 0 0 0 0 0 0 0 0 0 0 0 0 0 0 0 0 127 0" result="hardAlpha"/>
			<feMorphology radius="-2" in="" result="BackgroundImageFix"/>
			<feOffset dx="0" dy="2"/>
			<feGaussianBlur stdDeviation="1.33333"/>
			<feComposite in2="hardAlpha" operator="out" k2="-1" k3="1"/>
			<feColorMatrix type="matrix" values="0 0 0 0 0.17647 0 0 0 0 0.38431 0 0 0 0 0.61961 0 0 0 0.16 0"/>
			<feBlend mode="normal" in2="BackgroundImageFix" result="effect_dropShadow_1"/>
			<feBlend mode="normal" in="SourceGraphic" in2="effect_dropShadow_1" result="shape"/>
		</filter>
		<clipPath id="clip315_1967">
			<rect id="delete" rx="2.500000" width="14.000000" height="14.000000" transform="translate(2.500000 0.500000)" fill="white" fill-opacity="0"/>
		</clipPath>
	</defs>
	<g filter="url(#filter_315_1967_dd)">
		<rect id="delete" rx="2.500000" width="14.000000" height="14.000000" transform="translate(2.500000 0.500000)" fill="#FFFFFF" fill-opacity="1.000000"/>
		<g clip-path="url(#clip315_1967)">
			<path id="Vector" d="M7.81 5.13C7.62 4.95 7.32 4.95 7.13 5.13C6.95 5.32 6.95 5.62 7.13 5.81L8.82 7.5L7.13 9.18C6.95 9.37 6.95 9.67 7.13 9.86C7.32 10.04 7.62 10.04 7.81 9.86L9.5 8.17L11.18 9.86C11.37 10.04 11.67 10.04 11.86 9.86C12.04 9.67 12.04 9.37 11.86 9.18L10.17 7.5L11.86 5.81C12.04 5.62 12.04 5.32 11.86 5.13C11.67 4.95 11.37 4.95 11.18 5.13L9.5 6.82L7.81 5.13Z" fill="#353535" fill-opacity="1.000000" fill-rule="evenodd"/>
		</g>
		<rect id="delete" rx="2.500000" width="14.000000" height="14.000000" transform="translate(2.500000 0.500000)" stroke="#C6DFFB" stroke-opacity="1.000000" stroke-width="1.000000"/>
	</g>
</svg>
