<svg width="102.000000" height="18.000000" viewBox="0 0 102 18" fill="none" xmlns="http://www.w3.org/2000/svg" xmlns:xlink="http://www.w3.org/1999/xlink">
	<desc>
			Created with Pixso.
	</desc>
	<defs/>
	<path id="Star 1" d="M8.04 2.92L7.2 5.52C7.07 5.93 6.68 6.21 6.25 6.21L3.51 6.21C2.54 6.21 2.14 7.45 2.93 8.02L5.14 9.63C5.49 9.88 5.63 10.34 5.5 10.75L4.66 13.35C4.36 14.27 5.41 15.04 6.19 14.47L8.41 12.86C8.76 12.61 9.23 12.61 9.58 12.86L11.8 14.47C12.58 15.04 13.63 14.27 13.33 13.35L12.49 10.75C12.36 10.34 12.5 9.88 12.85 9.63L15.06 8.02C15.85 7.45 15.45 6.21 14.48 6.21L11.74 6.21C11.31 6.21 10.92 5.93 10.79 5.52L9.95 2.92C9.65 2 8.34 2 8.04 2.92Z" fill="#E3C13E" fill-opacity="1.000000" fill-rule="evenodd"/>
	<path id="Star 2" d="M29.04 2.92L28.2 5.52C28.07 5.93 27.68 6.21 27.25 6.21L24.51 6.21C23.54 6.21 23.14 7.45 23.93 8.02L26.14 9.63C26.49 9.88 26.63 10.34 26.5 10.75L25.66 13.35C25.36 14.27 26.41 15.04 27.2 14.47L29.41 12.86C29.76 12.61 30.23 12.61 30.58 12.86L32.8 14.47C33.58 15.04 34.63 14.27 34.33 13.35L33.49 10.75C33.36 10.34 33.5 9.88 33.85 9.63L36.06 8.02C36.85 7.45 36.45 6.21 35.48 6.21L32.74 6.21C32.31 6.21 31.92 5.93 31.79 5.52L30.95 2.92C30.65 2 29.34 2 29.04 2.92Z" fill="#E3C13E" fill-opacity="1.000000" fill-rule="evenodd"/>
	<path id="Star 3" d="M50.04 2.92L49.2 5.52C49.07 5.93 48.68 6.21 48.25 6.21L45.51 6.21C44.54 6.21 44.14 7.45 44.93 8.02L47.14 9.63C47.49 9.88 47.63 10.34 47.5 10.75L46.66 13.35C46.36 14.27 47.41 15.04 48.2 14.47L50.41 12.86C50.76 12.61 51.23 12.61 51.58 12.86L53.8 14.47C54.58 15.04 55.63 14.27 55.33 13.35L54.49 10.75C54.36 10.34 54.5 9.88 54.85 9.63L57.06 8.02C57.85 7.45 57.45 6.21 56.48 6.21L53.74 6.21C53.31 6.21 52.92 5.93 52.79 5.52L51.95 2.92C51.65 2 50.34 2 50.04 2.92Z" fill="#E3C13E" fill-opacity="1.000000" fill-rule="evenodd"/>
	<path id="Star 4" d="M71.04 2.92L70.2 5.52C70.07 5.93 69.68 6.21 69.25 6.21L66.51 6.21C65.54 6.21 65.14 7.45 65.93 8.02L68.14 9.63C68.49 9.88 68.63 10.34 68.5 10.75L67.66 13.35C67.36 14.27 68.41 15.04 69.19 14.47L71.41 12.86C71.76 12.61 72.23 12.61 72.58 12.86L74.8 14.47C75.58 15.04 76.63 14.27 76.33 13.35L75.49 10.75C75.36 10.34 75.5 9.88 75.85 9.63L78.06 8.02C78.85 7.45 78.45 6.21 77.48 6.21L74.74 6.21C74.31 6.21 73.92 5.93 73.79 5.52L72.95 2.92C72.65 2 71.34 2 71.04 2.92Z" fill="#E3C13E" fill-opacity="1.000000" fill-rule="evenodd"/>
	<path id="Star 5" d="M92.04 2.92L91.2 5.52C91.07 5.93 90.68 6.21 90.25 6.21L87.51 6.21C86.54 6.21 86.14 7.45 86.93 8.02L89.14 9.63C89.49 9.88 89.63 10.34 89.5 10.75L88.66 13.35C88.36 14.27 89.41 15.04 90.2 14.47L92.41 12.86C92.76 12.61 93.23 12.61 93.58 12.86L95.8 14.47C96.58 15.04 97.63 14.27 97.33 13.35L96.49 10.75C96.36 10.34 96.5 9.88 96.85 9.63L99.06 8.02C99.85 7.45 99.45 6.21 98.48 6.21L95.74 6.21C95.31 6.21 94.92 5.93 94.79 5.52L93.95 2.92C93.65 2 92.34 2 92.04 2.92Z" fill="#E3C13E" fill-opacity="1.000000" fill-rule="evenodd"/>
</svg>
