<svg width="94" height="25" viewBox="0 0 94 25" fill="none" xmlns="http://www.w3.org/2000/svg">
<rect width="94" height="25" rx="2" fill="url(#paint0_linear_228_886)"/>
<path d="M13.918 15.85H7.222L5.836 19H3.982L9.688 6.4H11.47L17.194 19H15.304L13.918 15.85ZM13.288 14.41L10.57 8.236L7.852 14.41H13.288ZM20.4776 11.062C20.7776 10.51 21.2216 10.09 21.8096 9.802C22.3976 9.514 23.1116 9.37 23.9516 9.37V11.044C23.8556 11.032 23.7236 11.026 23.5556 11.026C22.6196 11.026 21.8816 11.308 21.3416 11.872C20.8136 12.424 20.5496 13.216 20.5496 14.248V19H18.8216V9.46H20.4776V11.062ZM31.8321 18.442C31.5801 18.658 31.2681 18.826 30.8961 18.946C30.5241 19.054 30.1401 19.108 29.7441 19.108C28.7841 19.108 28.0401 18.85 27.5121 18.334C26.9841 17.818 26.7201 17.08 26.7201 16.12V10.882H25.1001V9.46H26.7201V7.372H28.4481V9.46H31.1841V10.882H28.4481V16.048C28.4481 16.564 28.5741 16.96 28.8261 17.236C29.0901 17.512 29.4621 17.65 29.9421 17.65C30.4701 17.65 30.9201 17.5 31.2921 17.2L31.8321 18.442ZM35.9732 7.966V12.358H42.2912V13.906H35.9732V19H34.1732V6.4H43.0652V7.966H35.9732ZM45.1712 9.46H46.8992V19H45.1712V9.46ZM46.0352 7.624C45.6992 7.624 45.4172 7.516 45.1892 7.3C44.9732 7.084 44.8652 6.82 44.8652 6.508C44.8652 6.196 44.9732 5.932 45.1892 5.716C45.4172 5.488 45.6992 5.374 46.0352 5.374C46.3712 5.374 46.6472 5.482 46.8632 5.698C47.0912 5.902 47.2052 6.16 47.2052 6.472C47.2052 6.796 47.0912 7.072 46.8632 7.3C46.6472 7.516 46.3712 7.624 46.0352 7.624ZM56.2825 19L53.5285 15.346L50.7385 19H48.8125L52.5745 14.122L48.9925 9.46H50.9185L53.5465 12.898L56.1565 9.46H58.0465L54.4465 14.122L58.2445 19H56.2825ZM65.2962 6.4C66.9282 6.4 68.2122 6.79 69.1482 7.57C70.0842 8.35 70.5522 9.424 70.5522 10.792C70.5522 12.16 70.0842 13.234 69.1482 14.014C68.2122 14.794 66.9282 15.184 65.2962 15.184H62.1822V19H60.3822V6.4H65.2962ZM65.2422 13.618C66.3822 13.618 67.2522 13.378 67.8522 12.898C68.4522 12.406 68.7522 11.704 68.7522 10.792C68.7522 9.88 68.4522 9.184 67.8522 8.704C67.2522 8.212 66.3822 7.966 65.2422 7.966H62.1822V13.618H65.2422ZM74.4424 11.062C74.7424 10.51 75.1864 10.09 75.7744 9.802C76.3624 9.514 77.0764 9.37 77.9164 9.37V11.044C77.8204 11.032 77.6884 11.026 77.5204 11.026C76.5844 11.026 75.8464 11.308 75.3064 11.872C74.7784 12.424 74.5144 13.216 74.5144 14.248V19H72.7864V9.46H74.4424V11.062ZM84.0443 19.108C83.0963 19.108 82.2443 18.898 81.4883 18.478C80.7323 18.058 80.1383 17.482 79.7063 16.75C79.2863 16.006 79.0763 15.166 79.0763 14.23C79.0763 13.294 79.2863 12.46 79.7063 11.728C80.1383 10.984 80.7323 10.408 81.4883 10C82.2443 9.58 83.0963 9.37 84.0443 9.37C84.9923 9.37 85.8383 9.58 86.5823 10C87.3383 10.408 87.9263 10.984 88.3463 11.728C88.7783 12.46 88.9943 13.294 88.9943 14.23C88.9943 15.166 88.7783 16.006 88.3463 16.75C87.9263 17.482 87.3383 18.058 86.5823 18.478C85.8383 18.898 84.9923 19.108 84.0443 19.108ZM84.0443 17.596C84.6563 17.596 85.2023 17.458 85.6823 17.182C86.1743 16.894 86.5583 16.498 86.8343 15.994C87.1103 15.478 87.2483 14.89 87.2483 14.23C87.2483 13.57 87.1103 12.988 86.8343 12.484C86.5583 11.968 86.1743 11.572 85.6823 11.296C85.2023 11.02 84.6563 10.882 84.0443 10.882C83.4323 10.882 82.8803 11.02 82.3883 11.296C81.9083 11.572 81.5243 11.968 81.2363 12.484C80.9603 12.988 80.8223 13.57 80.8223 14.23C80.8223 14.89 80.9603 15.478 81.2363 15.994C81.5243 16.498 81.9083 16.894 82.3883 17.182C82.8803 17.458 83.4323 17.596 84.0443 17.596Z" fill="white"/>
<defs>
<linearGradient id="paint0_linear_228_886" x1="1.13253" y1="-2.82531e-08" x2="118.475" y2="28.7206" gradientUnits="userSpaceOnUse">
<stop stop-color="#2081F0"/>
<stop offset="1" stop-color="#20C84F"/>
</linearGradient>
</defs>
</svg>
