<svg width="31.666748" height="28.500000" viewBox="0 0 31.6667 28.5" fill="none" xmlns="http://www.w3.org/2000/svg" xmlns:xlink="http://www.w3.org/1999/xlink">
	<desc>
			Created with Pixso.
	</desc>
	<defs/>
	<path id="Vector" d="M2.55 28.5C1.82 28.5 1.22 28.25 0.73 27.76C0.24 27.28 0 26.67 0 25.94L0 8.89C0 8.16 0.24 7.55 0.73 7.06C1.22 6.57 1.83 6.33 2.55 6.33L7.24 6.33L10.16 3.16L18.39 3.16L18.39 4.75L10.85 4.75L7.93 7.91L2.55 7.91C2.27 7.91 2.03 8 1.85 8.19C1.67 8.37 1.58 8.6 1.58 8.89L1.58 25.94C1.58 26.22 1.67 26.46 1.85 26.64C2.03 26.82 2.27 26.91 2.55 26.91L25.94 26.91C26.22 26.91 26.46 26.82 26.64 26.64C26.82 26.46 26.91 26.22 26.91 25.94L26.91 13.27L28.5 13.27L28.5 25.94C28.5 26.67 28.25 27.27 27.76 27.76C27.27 28.25 26.67 28.49 25.94 28.5L2.55 28.5ZM26.91 7.91L26.91 4.75L23.75 4.75L23.75 3.16L26.91 3.16L26.91 0L28.5 0L28.5 3.16L31.66 3.16L31.66 4.75L28.5 4.75L28.5 7.91L26.91 7.91ZM14.25 23.32C15.9 23.32 17.3 22.75 18.44 21.61C19.58 20.46 20.15 19.07 20.15 17.41C20.15 15.76 19.58 14.36 18.44 13.22C17.3 12.08 15.9 11.51 14.25 11.5C12.59 11.5 11.19 12.07 10.05 13.22C8.91 14.36 8.34 15.76 8.34 17.41C8.34 19.06 8.91 20.46 10.05 21.61C11.19 22.75 12.59 23.32 14.25 23.32L14.25 23.32ZM14.25 21.74C13.02 21.74 11.99 21.32 11.16 20.5C10.33 19.67 9.92 18.64 9.92 17.41C9.92 16.18 10.33 15.15 11.16 14.33C11.99 13.5 13.02 13.09 14.25 13.09C15.47 13.09 16.5 13.5 17.33 14.33C18.16 15.15 18.57 16.18 18.57 17.41C18.57 18.64 18.16 19.67 17.33 20.5C16.5 21.32 15.47 21.74 14.25 21.74Z" fill="#2081F0" fill-opacity="1.000000" fill-rule="nonzero"/>
</svg>
