<svg width="128.000000" height="85.000000" viewBox="0 0 128 85" fill="none" xmlns="http://www.w3.org/2000/svg" xmlns:xlink="http://www.w3.org/1999/xlink">
	<desc>
			Created with Pixso.
	</desc>
	<defs>
		<clipPath id="clip70_421">
			<rect id="warranty 1" rx="0.000000" width="127.000000" height="84.000000" transform="translate(0.500000 0.500000)" fill="white" fill-opacity="0"/>
		</clipPath>
	</defs>
	<rect id="warranty 1" rx="0.000000" width="127.000000" height="84.000000" transform="translate(0.500000 0.500000)" fill="#FFFFFF" fill-opacity="0"/>
	<g clip-path="url(#clip70_421)">
		<path id="Vector" d="M26.71 0.12C28.13 -0.12 29.56 0.24 30.98 0.31C32.59 0.4 34.29 0.34 35.91 0.34C36.93 0.34 37.95 0.16 38.98 0.17C40.15 0.18 41.33 0.31 42.51 0.34C43.61 0.37 44.72 0.3 45.83 0.33C48.53 0.41 51.25 0.54 53.95 0.54C55.09 0.53 56.23 0.4 57.36 0.33C58.98 0.23 60.61 0.18 62.23 0.17C64.03 0.16 65.76 0.43 67.54 0.51C68.8 0.56 70.06 0.44 71.31 0.36C74.77 0.13 78.5 0.48 82.01 0.47C83.7 0.46 85.39 0.29 87.08 0.29C89.99 0.3 92.9 0.45 95.8 0.39C97.64 0.35 99.48 0.12 101.32 0.12C102.4 0.12 103.48 0.4 104.56 0.4C107.66 0.39 110.86 0.18 113.97 0.22C114.9 0.23 115.82 0.35 116.75 0.38C117.64 0.42 118.68 0.33 119.54 0.57C121.31 1.06 123.83 3.43 125.26 4.66C125.42 5.22 125.54 5.78 125.62 6.37C126.09 9.91 125.68 13.51 125.68 17.06C125.68 19.13 126.02 21.19 126.04 23.26C126.08 27.36 125.84 31.47 125.87 35.57C125.89 38.05 126.21 40.52 126.25 42.99C126.28 45.26 126.28 47.55 126.22 49.82C126.18 51.18 126.06 52.54 126.05 53.9C126.04 57.1 126.24 60.28 126.27 63.47C126.29 65.72 126.14 67.95 126.09 70.2C126.02 73.17 126.28 76.15 126.01 79.11C125.9 80.32 125.55 81.59 124.77 82.55C124.3 83.13 123.75 83.51 123.04 83.74C122.16 84.03 121.2 84.03 120.28 84.08C118.53 84.18 116.79 84.21 115.04 84.17C113.86 84.14 112.68 83.99 111.51 84.01C110.53 84.03 109.55 84.21 108.58 84.3C107.55 84.4 106.49 84.39 105.45 84.36C103.59 84.3 101.72 83.92 99.86 84.11C98.14 84.32 96.5 84.04 94.79 84.07L78.98 84.24L40.4 83.99C38.12 83.99 35.82 84.14 33.54 84.2C32.04 84.23 30.54 84.17 29.04 84.19C28.11 84.2 27.18 84.28 26.25 84.27C24.37 84.24 22.54 83.65 20.67 83.61C19.49 83.59 18.32 83.78 17.14 83.87C14.22 84.08 10.7 84.24 7.83 83.67C5.75 83.25 5.49 81.59 4.04 80.45C3.47 79.99 2.71 79.87 2.12 79.44C0.19 78.05 0.71 75.5 0.58 73.49C0.53 72.78 0.28 72.11 0.18 71.41C-0.05 69.83 0.31 67.95 0.41 66.34C0.51 64.76 0.28 63.17 0.34 61.58C0.39 60.39 0.72 59.23 0.73 58.04C0.75 56.91 0.58 55.75 0.52 54.62C0.45 53.41 0.49 52.2 0.45 51C0.42 49.99 0.31 48.98 0.3 47.98C0.29 46.84 0.47 45.71 0.49 44.58L0.7 30.9C0.72 29.68 0.63 28.46 0.64 27.24C0.64 25.58 0.71 23.9 0.63 22.24C0.57 21.12 0.31 20.01 0.31 18.88C0.3 17.94 0.4 16.99 0.43 16.04C0.47 14.88 0.43 13.72 0.52 12.56C0.6 11.44 0.79 10.33 0.85 9.22C0.92 7.61 0.75 5.97 1.01 4.37C1.12 3.7 1.33 3.02 1.75 2.48C3.86 -0.23 8.35 0.78 11.26 0.67C12.44 0.63 13.57 0.29 14.77 0.27C18.75 0.2 22.74 0.55 26.71 0.12Z" fill="#353535" fill-opacity="1.000000" fill-rule="nonzero"/>
		<path id="Vector" d="M67.82 1.84C69.62 1.77 71.39 2.3 73.19 2.31C74.4 2.31 75.6 2.02 76.81 2.01C78.06 2 79.31 2.27 80.56 2.2C81.6 2.15 82.64 1.85 83.68 1.87C84.46 1.89 85.22 2.16 86.01 2.16C86.92 2.17 87.85 1.92 88.76 1.98C89.57 2.03 90.37 2.3 91.18 2.3C93.31 2.31 95.42 1.9 97.55 1.89C99.39 1.89 101.19 2.31 103.05 2.27C103.86 2.25 104.61 1.84 105.43 1.85C106.32 1.85 107.23 2.07 108.11 2.17C109.1 2.29 110.1 2.29 111.1 2.28C112.16 2.27 113.23 2.27 114.29 2.22C115.59 2.15 117.18 1.88 118.46 2.12C119.48 2.32 120.66 3.07 121.21 3.92C121.65 4.59 121.78 5.42 121.79 6.21C121.82 7.63 121.42 9.03 121.42 10.45C121.43 11.93 121.92 13.35 121.92 14.82C121.93 16.13 121.7 17.43 121.63 18.74C121.55 20.39 121.67 22.05 121.62 23.71C121.59 24.93 121.36 26.14 121.33 27.37C121.3 28.63 121.73 29.87 121.71 31.13C121.69 32.07 121.45 33.01 121.43 33.96C121.39 35.71 121.67 37.48 121.65 39.24C121.65 40.26 121.51 41.28 121.48 42.3C121.45 43.22 121.6 44.13 121.58 45.06C121.54 46.85 121.36 48.65 121.36 50.45C121.36 51.48 121.78 52.47 121.79 53.49C121.8 54.29 121.67 55.11 121.61 55.9C121.48 57.69 121.36 59.53 121.35 61.32C121.35 62.2 121.51 63.08 121.6 63.95C121.7 65.1 121.75 66.26 121.74 67.41C121.72 69.2 121.25 70.92 121.23 72.69C121.2 74.22 121.72 75.83 121.34 77.33C121.11 78.21 120.45 78.89 119.66 79.33C117.46 80.57 114.04 79.33 111.61 79.38C110.34 79.41 109.08 79.85 107.81 79.72C107.26 79.66 106.69 79.32 106.15 79.18L106.05 79.15C104.94 79.5 101.77 79.97 100.63 79.81C99.4 79.64 98.4 79.21 97.11 79.25C95.88 79.29 94.68 79.87 93.46 79.82C92.74 79.78 92.15 79.21 91.42 79.2C90.27 79.18 89.21 79.8 88.07 79.8C86.32 79.8 84.56 79.55 82.81 79.47C81.91 79.43 81.03 79.64 80.13 79.63C79.31 79.63 78.47 79.49 77.64 79.43C76.67 79.35 75.69 79.33 74.71 79.31C73.66 79.29 72.53 79.19 71.49 79.32C70.85 79.39 70.24 79.69 69.59 79.71C68.87 79.72 68.2 79.32 67.49 79.29C66.94 79.26 66.39 79.48 65.83 79.47C64.93 79.44 64.04 79.25 63.12 79.25C62.37 79.25 61.69 79.57 60.96 79.61C60.11 79.65 59.2 79.47 58.33 79.49C57.27 79.54 56.17 79.65 55.1 79.61C54.08 79.58 53.07 79.4 52.05 79.39C50.77 79.39 49.48 79.6 48.21 79.55C47.41 79.52 46.65 79.22 45.85 79.21C44.97 79.21 44.08 79.32 43.21 79.37C41.83 79.45 40.45 79.48 39.07 79.47C37.71 79.46 36.36 79.1 35 79.15C33.58 79.21 32.21 79.68 30.79 79.69C29.64 79.7 28.52 79.39 27.38 79.31C26.52 79.25 25.64 79.48 24.78 79.49C23.88 79.49 22.98 79.27 22.08 79.27C20.57 79.28 19.15 79.83 17.65 79.9C16.16 79.97 14.7 79.51 13.21 79.47C11.42 79.41 8.51 80.12 6.9 79.55C4.11 78.56 3.06 76.65 1.89 74.18C2.04 72.55 2.33 70.93 2.43 69.29C2.55 67.42 2.47 65.52 2.47 63.65C2.47 62.09 2.56 60.53 2.56 58.97C2.56 57.72 2.32 56.46 2.33 55.2C2.34 53.92 2.52 52.64 2.56 51.37C2.61 49.92 2.48 48.46 2.48 47.01C2.48 45.85 2.6 44.69 2.58 43.54C2.55 41.87 2 40.23 1.99 38.56C1.99 37.19 2.52 35.89 2.56 34.53C2.59 33.31 2.46 32.09 2.45 30.88C2.45 29.56 2.56 28.24 2.48 26.93C2.41 25.82 2.11 24.72 2.1 23.6C2.1 22.48 2.63 21.46 2.67 20.37C2.72 19.16 2.66 17.94 2.67 16.73C2.67 15.37 2.74 13.98 2.66 12.63C2.59 11.57 2.35 10.52 2.29 9.46C2.18 7.66 2.71 4.76 4 3.39C4.62 2.73 5.49 2.34 6.39 2.24C7.37 2.14 8.35 2.23 9.33 2.23C10.43 2.22 11.53 2.07 12.64 2.09C14.58 2.13 16.51 2.31 18.45 2.28C19.91 2.26 21.35 2.03 22.81 1.99C24.05 1.96 25.31 2.13 26.56 2.15C28.26 2.18 29.96 2.04 31.67 2.06C32.93 2.08 34.18 2.42 35.45 2.43C36.48 2.43 37.49 2.1 38.52 2.07C40.31 2.02 42.07 2.36 43.85 2.34C45.08 2.32 46.3 2.08 47.52 2.01C49.11 1.91 51.05 1.94 52.68 1.93C54.88 1.9 57.11 2.21 59.32 2.24C62.14 2.28 65.01 2.01 67.82 1.84Z" fill="#FEFEFE" fill-opacity="1.000000" fill-rule="nonzero"/>
		<path id="Vector" d="M73.8 65.78C74.91 65.7 75.86 65.81 76.89 66.23C77.08 66.48 77.23 66.77 77.39 67.04C77.36 67.68 77.27 68.28 77.14 68.91C76.29 69.21 75.46 69.42 74.57 69.49C73.06 69.6 71.55 69.43 70.05 69.39C68.17 69.33 66.29 69.36 64.42 69.36L39.77 69.57C38.66 69.57 37.76 69.61 36.76 69.06C36.51 68.64 36.29 68.18 36.26 67.68C36.24 67.26 36.35 66.9 36.65 66.6C37.16 66.08 38.01 66.03 38.71 65.98C40 65.88 41.31 66.03 42.61 66.01C45.63 65.98 48.65 65.91 51.67 65.93C53.02 65.94 54.37 66.02 55.73 66.03C57.63 66.05 59.54 65.92 61.45 65.89L73.8 65.78Z" fill="#2081F0" fill-opacity="1.000000" fill-rule="nonzero"/>
		<path id="Vector" d="M21.99 65.87C23.88 65.94 27.7 65.27 29.18 66.5C29.58 66.83 29.8 67.32 29.81 67.83C29.82 68.19 29.69 68.52 29.42 68.79C28.08 70.12 22.08 69.54 20.1 69.49C18.63 69.5 17.16 69.59 15.69 69.64C14.68 69.67 13.3 69.72 12.53 68.96C12.22 68.65 12.1 68.25 12.12 67.82C12.15 67.14 12.59 66.69 13.08 66.25C15.97 65.62 19.04 66.03 21.99 65.87Z" fill="#2081F0" fill-opacity="1.000000" fill-rule="nonzero"/>
		<path id="Vector" d="M37.21 54.2C38.17 54.12 39.27 54.29 40.24 54.35C41.35 54.41 42.45 54.4 43.56 54.37C44.89 54.34 46.2 54.2 47.52 54.17C48.51 54.16 49.51 54.26 50.51 54.27L61.58 54.25C64.18 54.25 66.85 54.02 69.44 54.18C70.09 54.22 70.71 54.33 71.24 54.71C71.57 54.95 71.88 55.28 71.92 55.7C71.96 56.13 71.81 56.53 71.53 56.86C71.14 57.31 70.53 57.58 69.95 57.68C68.64 57.9 67.26 57.79 65.95 57.8C64.52 57.82 63.09 57.95 61.66 57.94C60.33 57.94 59 57.8 57.68 57.77C55.97 57.74 54.25 57.86 52.54 57.9C50.77 57.95 49 57.93 47.23 58.02C44.4 57.93 41.57 57.93 38.75 57.88C37.08 57.84 35.41 57.72 33.75 57.74C31.93 57.77 30.12 57.91 28.31 57.94C25.17 58 22.03 57.95 18.89 57.96C17.57 57.97 16.24 58.08 14.93 58.05C14.38 58.03 13.58 58.01 13.12 57.69C12.69 57.39 12.38 56.9 12.32 56.38C12.27 55.89 12.4 55.42 12.73 55.04C13.12 54.6 13.64 54.43 14.21 54.35C15.88 54.13 17.64 54.3 19.32 54.3L29 54.29C31.74 54.31 34.48 54.48 37.21 54.2Z" fill="#2081F0" fill-opacity="1.000000" fill-rule="nonzero"/>
		<path id="Vector" d="M120.07 45.08C120.05 46.08 119.97 47.09 120 48.09C120.03 49.25 120.16 50.42 120.13 51.58C120.11 52.78 119.86 53.97 119.87 55.18C119.88 56.38 120.16 57.59 120.14 58.79C120.1 60.3 119.66 61.76 119.65 63.29C119.64 64.55 120.11 65.64 120.14 66.8C120.16 67.6 119.84 68.4 119.8 69.2C119.65 72.32 120.15 74.36 119.15 77.53C117.63 77.89 115.79 78.09 114.22 78.1C113.39 78.11 112.56 78.04 111.72 78.04L104.91 78.09C103.17 78.1 101.41 78.35 99.67 78.29C98.18 78.24 96.76 77.82 95.27 77.83C93.79 77.84 92.35 78.13 90.89 78.26C89.6 78.37 85.16 78.59 84.09 78C83.71 77.79 83.54 77.34 83.45 76.94C82.92 74.73 83.36 69.61 83.39 67.03L83.54 45.89C85.7 46.28 87.77 45.88 89.92 45.87C94.74 45.84 99.54 46.03 104.36 45.9C105.55 45.86 106.7 45.5 107.88 45.46C110.43 45.38 113.01 45.65 115.57 45.58C117.09 45.54 118.57 45.27 120.07 45.08Z" fill="#2081F0" fill-opacity="1.000000" fill-rule="nonzero"/>
		<path id="Vector" d="M110.8 49.46C111.22 49.5 111.78 50.17 112.09 50.45C111.78 51.08 111.48 51.65 111.02 52.19C110.26 53.07 109.37 53.87 108.55 54.69L103.47 59.83C101.76 61.59 100.18 63.64 98.28 65.19C98.05 65.38 97.36 65.91 97.07 65.84C95.86 65.55 93.88 62.63 93.14 61.66C92.62 60.98 91.94 60.04 91.98 59.16C91.99 58.87 92.11 58.62 92.36 58.45C92.78 58.16 93.46 58.29 93.94 58.34C95.12 59.92 95.84 61.28 97.31 62.72C99.24 60.53 101.38 58.5 103.4 56.38C105.28 54.41 107.08 52.23 109.15 50.45C109.68 50.01 110.17 49.73 110.8 49.46Z" fill="#FEFEFE" fill-opacity="1.000000" fill-rule="nonzero"/>
		<path id="Vector" d="M4.14 16.18C4.14 14.96 4.24 13.74 4.22 12.52C4.19 10.73 3.91 7.13 4.17 5.59C4.26 5.09 4.53 4.61 4.87 4.23C5.37 3.68 6.16 3.47 6.88 3.43C9.37 3.28 11.88 3.95 14.39 3.89C16.41 3.84 18.42 3.58 20.43 3.55C23.59 3.5 26.76 3.8 29.93 3.79L67.75 3.6C70.97 3.58 74.2 3.51 77.42 3.55C79.91 3.57 82.41 3.8 84.91 3.79C86.22 3.78 87.53 3.61 88.83 3.53C91.44 3.36 94.03 3.79 96.64 3.82C98.98 3.86 101.35 3.67 103.71 3.66C105.82 3.65 107.94 3.66 110.05 3.71C111.51 3.75 112.97 3.85 114.43 3.87C115.35 3.88 118.66 3.51 119.25 4.05C119.66 4.43 119.85 5.04 119.94 5.56C120.1 6.47 120.07 7.46 120.1 8.39C120.19 10.96 120.16 13.53 120.16 16.1C119.2 16.06 118.25 15.91 117.3 15.88C116.19 15.84 115.06 15.93 113.95 15.93C111.72 15.93 109.48 15.87 107.25 15.92C105.88 15.95 104.52 16.1 103.16 16.16C101.67 16.22 100.16 16.19 98.67 16.19C95.9 16.18 93.14 16.1 90.37 15.94C88.71 15.84 87.05 15.66 85.39 15.64C84.03 15.62 82.68 15.79 81.33 15.82C79.86 15.86 78.38 15.74 76.9 15.75C75.54 15.76 74.11 15.84 72.75 15.64C72.03 15.64 71.31 15.6 70.59 15.54C69.37 15.62 68.14 15.75 66.92 15.64C66.36 15.64 65.58 15.74 65.05 15.58C64.07 15.84 62.58 16.18 61.6 15.8C61.01 15.96 60.22 15.82 59.59 15.84C56.96 16.21 54.39 16.19 51.75 16.19C50.7 16.19 49.64 16.26 48.59 16.24C47.57 16.23 46.53 16.08 45.51 16.1C44.22 16.12 42.92 16.36 41.63 16.42C40.01 16.49 38.4 16.36 36.79 16.39C35.13 16.42 33.49 16.59 31.83 16.58C29.58 16.58 27.39 16.17 25.15 16.11C23.41 16.06 21.64 16.22 19.9 16.31C18.33 16.38 16.76 16.39 15.2 16.4C13.94 16.41 12.69 16.34 11.43 16.33C10.45 16.31 9.47 16.36 8.5 16.33C7.05 16.28 5.6 16.16 4.14 16.18Z" fill="#2081F0" fill-opacity="1.000000" fill-rule="nonzero"/>
		<path id="Vector" d="M59.59 15.84C59.58 15.83 59.58 15.81 59.58 15.8C59.21 14.21 58.82 11.88 59.82 10.43C60.64 9.24 62.64 8.74 64 8.48C65.93 8.11 68.6 7.9 70.3 9.1C71.94 10.26 72.43 13.8 72.75 15.64C72.03 15.64 71.31 15.6 70.59 15.54C69.37 15.62 68.14 15.75 66.92 15.64C66.36 15.64 65.58 15.74 65.05 15.58C64.07 15.84 62.58 16.18 61.6 15.8C61.01 15.96 60.22 15.82 59.59 15.84Z" fill="#353535" fill-opacity="1.000000" fill-rule="nonzero"/>
		<path id="Vector" d="M61.6 15.8C62.24 15.46 63.72 15.06 64.45 15.14C64.77 15.18 64.86 15.37 65.05 15.58C64.07 15.84 62.58 16.18 61.6 15.8Z" fill="#2081F0" fill-opacity="1.000000" fill-rule="nonzero"/>
		<path id="Vector" d="M61.38 11.57C63.26 10.15 66.46 9.77 68.74 10.06C70.01 11.61 70.24 13.65 70.59 15.54C69.37 15.62 68.14 15.75 66.92 15.64C66.76 14.89 66.65 13.99 66.07 13.45C65.14 13.06 62.44 13.92 61.49 14.2C61.08 13.18 61.1 12.63 61.38 11.57Z" fill="#FEFEFE" fill-opacity="1.000000" fill-rule="nonzero"/>
		<path id="Vector" d="M70.59 15.54C71.31 15.6 72.03 15.64 72.75 15.64C74.11 15.84 75.54 15.76 76.9 15.75C78.38 15.74 79.86 15.86 81.33 15.82C82.68 15.79 84.03 15.62 85.39 15.64C87.05 15.66 88.71 15.84 90.37 15.94C93.14 16.1 95.9 16.18 98.67 16.19C100.16 16.19 101.67 16.22 103.16 16.16C104.52 16.1 105.88 15.95 107.25 15.92C109.48 15.87 111.72 15.93 113.95 15.93C115.06 15.93 116.19 15.84 117.3 15.88C118.25 15.91 119.2 16.06 120.16 16.1C120.14 19.08 119.81 22.06 119.83 25.04C119.84 26.05 120.17 27.05 120.15 28.07C120.13 29.54 120.01 31.01 119.98 32.48C119.87 36.68 119.9 40.88 120.07 45.08C118.57 45.27 117.09 45.54 115.57 45.58C113.01 45.65 110.43 45.38 107.88 45.46C106.7 45.5 105.55 45.86 104.36 45.9C99.54 46.03 94.74 45.84 89.93 45.87C87.77 45.88 85.7 46.28 83.54 45.89C81.15 45.62 77.98 46 75.5 46.03C71.35 46.07 67.2 45.84 63.06 45.85C62.01 45.86 60.95 46.02 59.9 46.03C58.5 46.04 57.12 45.84 55.73 45.84C54.45 45.84 53.16 46.03 51.88 45.98C50.11 45.9 48.36 45.66 46.58 45.64C44.63 45.62 42.72 45.92 40.78 45.97C39.69 45.99 38.59 45.81 37.49 45.81C36.43 45.81 35.37 45.91 34.3 45.93C33.28 45.94 32.26 45.86 31.24 45.89C30.25 45.92 29.25 46.07 28.26 46.08C26.17 46.1 24.06 45.75 21.96 45.76C20.56 45.76 19.17 46.02 17.77 46C16.01 45.98 14.24 45.66 12.48 45.67C9.73 45.69 6.73 46.2 4.05 45.53C3.2 43.1 4.18 40.08 4.21 37.55C4.24 34.63 3.75 31.73 3.76 28.8C3.77 27.68 3.77 26.55 3.87 25.44C3.99 24.14 4.22 22.85 4.29 21.54C4.38 19.77 4.22 17.96 4.14 16.18C5.6 16.16 7.05 16.28 8.5 16.33C9.47 16.36 10.45 16.31 11.43 16.33C12.69 16.34 13.94 16.41 15.2 16.4C16.76 16.39 18.33 16.38 19.9 16.31C21.64 16.22 23.41 16.06 25.15 16.11C27.39 16.17 29.58 16.58 31.83 16.58C33.49 16.59 35.13 16.42 36.79 16.39C38.4 16.36 40.01 16.49 41.63 16.42C42.92 16.36 44.22 16.12 45.51 16.1C46.53 16.08 47.57 16.23 48.59 16.24C49.64 16.26 50.7 16.19 51.75 16.19C54.39 16.19 56.96 16.21 59.59 15.84C60.22 15.82 61.01 15.96 61.6 15.8C62.58 16.18 64.07 15.84 65.05 15.58C65.58 15.74 66.36 15.64 66.92 15.64C68.14 15.75 69.37 15.62 70.59 15.54Z" fill="#1EC94F" fill-opacity="1.000000" fill-rule="nonzero"/>
		<path id="Vector" d="M31.98 23.64C32.2 23.58 32.36 23.62 32.56 23.71C32.94 23.89 33.17 24.32 33.34 24.67C33.96 25.98 34.31 27.47 34.76 28.84C35.44 30.88 36.2 32.91 36.82 34.97C36.74 35.32 36.64 35.67 36.56 36.02L35.72 36.53C35.42 36.37 35.12 36.2 34.82 36.03C34.23 34.75 33.73 33.37 33.3 32.03L32.09 32.21C31.57 32.28 31.06 32.17 30.55 32.26C30.37 32.29 30.33 32.3 30.23 32.46C30.02 32.78 29.98 33.46 29.86 33.84C29.6 34.69 29.2 35.43 28.7 36.17C28.31 36.17 27.9 36.18 27.53 36.05C27.25 35.95 27.01 35.72 26.93 35.44C26.58 34.25 30.07 25.16 30.95 24C31.07 23.84 31.19 23.83 31.38 23.8C31.54 23.77 31.68 23.75 31.83 23.69L31.98 23.64Z" fill="#FEFEFE" fill-opacity="1.000000" fill-rule="nonzero"/>
		<path id="Vector" d="M31.89 28.34L32.05 28.45C32.26 28.89 32.44 29.26 32.33 29.75C32.16 29.91 32.17 29.89 31.92 29.89C31.69 29.93 31.57 29.99 31.34 29.92L31.25 29.69C31.33 29.21 31.65 28.76 31.89 28.34Z" fill="#1EC94F" fill-opacity="1.000000" fill-rule="nonzero"/>
		<path id="Vector" d="M102.24 23.57C103.88 23.76 105.18 26.34 106.11 27.55C106.48 28.04 106.89 28.47 107.34 28.89C107.66 27.63 108.46 24.56 109.58 23.88C109.81 23.74 110.06 23.71 110.31 23.8C110.67 23.93 111.06 24.36 111.19 24.71C111.42 25.32 108.89 30.89 108.41 31.89C107.86 33.04 106.59 36.37 105.37 36.78C105.33 36.79 105.29 36.81 105.25 36.82C105.2 36.82 105.16 36.83 105.12 36.84C105.07 36.84 105.03 36.85 104.99 36.85C104.94 36.85 104.9 36.85 104.85 36.84C104.81 36.84 104.77 36.83 104.72 36.82C104.68 36.82 104.64 36.81 104.6 36.79C104.55 36.78 104.51 36.77 104.47 36.75C104.43 36.73 104.39 36.71 104.35 36.69C104.13 36.57 103.99 36.39 103.93 36.15C103.63 34.95 105.44 32.38 106.08 31.27C104.41 29.25 102.57 27.17 101.43 24.81C101.64 24.32 101.85 23.95 102.24 23.57Z" fill="#FEFEFE" fill-opacity="1.000000" fill-rule="nonzero"/>
		<path id="Vector" d="M97.42 23.56C98.15 23.5 99.26 23.34 99.9 23.77C100.09 23.9 100.26 24.08 100.28 24.32C100.3 24.63 100.15 24.86 99.96 25.09C99.21 25.97 97.98 25.97 96.92 26.05L96.92 32.29C96.93 33.03 97.05 33.79 97.01 34.53C96.99 34.82 96.94 35.1 96.83 35.37C96.68 35.73 96.42 36.16 96.02 36.28C95.75 36.35 95.47 36.28 95.26 36.13C94.61 35.66 94.6 34.82 94.52 34.11C94.33 31.42 94.75 28.72 94.44 26.03C93.12 25.71 91.14 26.28 90.03 25.52C89.8 25.36 89.62 25.12 89.61 24.83C89.6 24.59 89.7 24.36 89.85 24.17C90.07 23.92 90.38 23.76 90.71 23.69C92.28 23.34 95.6 23.65 97.42 23.56Z" fill="#FEFEFE" fill-opacity="1.000000" fill-rule="nonzero"/>
		<path id="Vector" d="M68.86 23.17C69.34 23.17 69.78 23.16 70.13 23.54C71.56 25.08 74.75 33.68 74.52 35.77C74.49 36 74.39 36.11 74.2 36.24C73.93 36.44 73.57 36.56 73.23 36.48C71.94 36.18 71.71 33.09 71.06 32.1C70.77 31.96 70.38 32.01 70.06 32.01C68.99 32.01 69 32.27 67.85 31.88C67.71 32.6 67.58 33.32 67.41 34.03C67.12 35.25 66.69 35.92 65.62 36.57C65.37 36.4 65.02 36.21 64.87 35.94C64.55 35.36 64.93 33.78 65.06 33.16C65.5 31.12 67.26 25.29 68.2 23.73C68.36 23.47 68.61 23.32 68.86 23.17Z" fill="#FEFEFE" fill-opacity="1.000000" fill-rule="nonzero"/>
		<path id="Vector" d="M69.37 27.34C69.68 27.55 69.81 27.93 69.94 28.26C70.08 28.63 70.38 29.27 70.22 29.64L69.43 29.69L69.01 29.73C68.87 29.67 68.8 29.69 68.74 29.53C68.48 28.93 69.12 27.88 69.37 27.34Z" fill="#1EC94F" fill-opacity="1.000000" fill-rule="nonzero"/>
		<path id="Vector" d="M25.95 23.16C26.01 23.18 26 23.17 26.09 23.23C26.35 23.39 26.6 23.71 26.63 24.02C26.77 25.14 23.96 33.7 23.32 35C23.14 35.38 22.85 35.68 22.57 35.99C20.65 35.66 20.62 34.35 19.6 33L19.52 32.89C18.98 33.79 18.51 34.71 18.05 35.65L17.06 36.28C16.68 36.15 16.34 36 15.99 35.81C14.74 33.57 14.31 30.63 13.76 28.14C13.48 27.02 12.93 25.53 13.13 24.38C13.18 24.12 13.28 23.85 13.54 23.72C13.83 23.58 14.27 23.68 14.55 23.82C14.84 23.96 15.03 24.15 15.17 24.43C15.77 25.68 15.96 27.29 16.29 28.64C16.59 29.84 16.94 31.04 17.36 32.21C17.71 31.26 18.02 30.32 18.59 29.47C19 29.29 19.42 29.17 19.85 29.04C20.57 29.92 21.18 30.9 21.86 31.8C22.58 30.15 23.03 28.36 23.6 26.66C24.12 25.11 24.38 23.94 25.95 23.16Z" fill="#FEFEFE" fill-opacity="1.000000" fill-rule="nonzero"/>
		<path id="Vector" d="M41.79 23.15C43.22 23.47 44.77 23.28 46.13 23.82C47.41 24.33 48.03 25.29 48.53 26.49C48 28.68 47.7 28.99 45.81 30.22C46.52 31.35 49.15 34.06 49.11 35.3C49.1 35.64 48.95 35.98 48.68 36.19C48.44 36.38 48.2 36.43 47.9 36.38C47.12 36.26 46.56 35.18 46.17 34.59C45.46 33.82 43.92 31.54 43.23 31.1C43.04 30.98 42.93 30.93 42.7 30.97C42.3 31.54 42.39 34.43 42.26 35.33L42.24 35.45C41.85 35.93 41.35 36.44 40.71 36.53C40.52 36.45 40.47 36.43 40.37 36.24C39.75 35.05 40.04 25.5 40.51 24.23C40.72 23.66 41.28 23.39 41.79 23.15Z" fill="#FEFEFE" fill-opacity="1.000000" fill-rule="nonzero"/>
		<path id="Vector" d="M42.71 25.58C43.59 25.61 45.19 25.71 45.8 26.4C45.96 26.57 46.03 26.74 46 26.97C45.94 27.39 45.56 27.64 45.24 27.88C44.74 28.14 44.14 28.47 43.57 28.55C43.32 28.58 43.03 28.57 42.83 28.37C42.32 27.85 42.65 26.26 42.71 25.58Z" fill="#1EC94F" fill-opacity="1.000000" fill-rule="nonzero"/>
		<path id="Vector" d="M78.28 23.12C78.32 23.13 78.37 23.13 78.41 23.14C78.76 23.19 79.05 23.37 79.29 23.61C79.86 24.17 80.28 24.89 80.72 25.56C82.08 27.63 83.19 29.89 84.66 31.87C84.61 30.27 84.68 28.68 84.72 27.08C84.74 26.32 84.66 25.49 84.8 24.74C84.91 24.22 85.07 23.74 85.54 23.44C85.81 23.39 86.03 23.43 86.29 23.53C86.6 23.65 86.91 23.84 87.03 24.16C87.41 25.12 87.14 32.59 86.94 33.89C86.88 34.27 86.76 34.58 86.6 34.92C86.51 35.05 86.42 35.19 86.29 35.29C86.03 35.5 85.54 35.64 85.21 35.6C83.15 35.35 81.04 30.3 79.76 28.73L79.68 28.63C79.63 30.05 79.84 34.82 78.88 35.7C78.71 35.85 78.54 35.94 78.31 35.91C77.99 35.87 77.72 35.61 77.56 35.36C77.31 34.96 77.19 34.48 77.13 34.02C76.97 32.71 77.12 31.37 77.12 30.05C77.13 28.66 77.02 27.23 77.13 25.84C77.19 25.15 77.3 24.51 77.48 23.83C77.74 23.58 78.01 23.36 78.28 23.12Z" fill="#FEFEFE" fill-opacity="1.000000" fill-rule="nonzero"/>
		<path id="Vector" d="M55.09 22.61C56.53 22.55 58.13 22.9 59.26 23.81C60.09 24.47 60.71 25.43 60.79 26.49C60.94 28.33 59.56 29.09 58.53 30.35L58.46 30.43C59.32 31.6 60.55 32.46 61.4 33.62C61.73 34.07 61.98 34.59 61.87 35.16C61.76 35.73 61.31 36.02 60.86 36.33C60.02 35.58 59.28 34.71 58.53 33.88C57.79 33.13 57.01 31.68 55.97 31.38C55.61 31.28 55.36 31.35 55.05 31.52C54.65 32.1 55.05 33.68 55.01 34.44C54.97 35.2 54.8 35.85 54.19 36.35C53.94 36.56 53.78 36.59 53.46 36.56C53.09 36.34 52.94 36.04 52.82 35.65C52.55 34.76 52.28 26.09 52.37 24.76C52.39 24.42 52.45 24.05 52.63 23.76C53.07 23.03 54.31 22.83 55.09 22.61Z" fill="#FEFEFE" fill-opacity="1.000000" fill-rule="nonzero"/>
		<path id="Vector" d="M54.64 25.04C55.54 25.03 56.37 25.05 57.24 25.27C57.31 25.33 57.37 25.38 57.43 25.44C57.84 25.8 58.2 26.15 58.2 26.73C58.2 27.32 57.75 27.78 57.35 28.17C56.9 28.49 56.39 28.82 55.84 28.97C55.62 29.03 55.35 29.03 55.15 28.89C54.58 28.45 54.86 26.83 54.83 26.2C54.81 25.8 54.74 25.43 54.64 25.04Z" fill="#1EC94F" fill-opacity="1.000000" fill-rule="nonzero"/>
	</g>
</svg>
